<?xml version="1.0" encoding="UTF-8"?>
<svg xmlns="http://www.w3.org/2000/svg" xmlns:xlink="http://www.w3.org/1999/xlink" viewBox="0 0 800 400">
  <defs>
    <style>
      .cls-1 {
        fill: #e6773d;
      }

      .cls-1, .cls-2, .cls-3, .cls-4, .cls-5, .cls-6, .cls-7, .cls-8, .cls-9, .cls-10, .cls-11, .cls-12, .cls-13, .cls-14, .cls-15, .cls-16, .cls-17, .cls-18, .cls-19, .cls-20, .cls-21, .cls-22, .cls-23, .cls-24, .cls-25, .cls-26, .cls-27, .cls-28, .cls-29, .cls-30, .cls-31, .cls-32, .cls-33, .cls-34, .cls-35, .cls-36, .cls-37, .cls-38, .cls-39, .cls-40, .cls-41, .cls-42, .cls-43 {
        fill-rule: evenodd;
      }

      .cls-2, .cls-12, .cls-17, .cls-31, .cls-43 {
        fill: #570e23;
      }

      .cls-2, .cls-15 {
        opacity: .66;
      }

      .cls-3 {
        fill: url(#_Áåçûìÿííûé_ãðàäèåíò_421);
      }

      .cls-4, .cls-6, .cls-12, .cls-24, .cls-33, .cls-36, .cls-42 {
        opacity: .2;
      }

      .cls-4, .cls-8 {
        fill: #b30e23;
      }

      .cls-4, .cls-8, .cls-9, .cls-27, .cls-28, .cls-34 {
        mix-blend-mode: soft-light;
      }

      .cls-5 {
        fill: #9c2f3d;
      }

      .cls-6 {
        fill: #8b0e23;
      }

      .cls-44 {
        fill: #bd353d;
      }

      .cls-45 {
        isolation: isolate;
      }

      .cls-7 {
        fill: #6568a9;
        opacity: .36;
      }

      .cls-8, .cls-13, .cls-27, .cls-28, .cls-34 {
        opacity: .35;
      }

      .cls-46 {
        fill: #88353d;
      }

      .cls-9 {
        opacity: .62;
      }

      .cls-9, .cls-28 {
        fill: #c7dbf9;
      }

      .cls-10 {
        fill: #f57729;
      }

      .cls-11 {
        fill: #6c5392;
      }

      .cls-13 {
        fill: #408145;
      }

      .cls-14 {
        fill: #664351;
      }

      .cls-15 {
        fill: #59549e;
      }

      .cls-16 {
        fill: #944d2f;
        opacity: .39;
      }

      .cls-17 {
        opacity: .3;
      }

      .cls-18 {
        fill: #60538e;
      }

      .cls-19 {
        fill: url(#_Áåçûìÿííûé_ãðàäèåíò_358);
      }

      .cls-19, .cls-22, .cls-25 {
        opacity: .5;
      }

      .cls-19, .cls-25 {
        mix-blend-mode: multiply;
      }

      .cls-20 {
        fill: url(#_Áåçûìÿííûé_ãðàäèåíò_415);
      }

      .cls-21 {
        fill: #71203d;
      }

      .cls-22 {
        fill: #b76f2f;
      }

      .cls-23 {
        fill: #ba5d3d;
      }

      .cls-24 {
        fill: #8b2c39;
      }

      .cls-25 {
        fill: url(#_Áåçûìÿííûé_ãðàäèåíò_359);
      }

      .cls-26 {
        fill: url(#_Áåçûìÿííûé_ãðàäèåíò_347);
      }

      .cls-27 {
        fill: #7ca2d4;
      }

      .cls-29 {
        fill: #604172;
      }

      .cls-30 {
        fill: #662f3d;
      }

      .cls-31 {
        opacity: .57;
      }

      .cls-32 {
        fill: #6c1a2d;
      }

      .cls-33 {
        fill: #7b3723;
      }

      .cls-34 {
        fill: #a9b6f9;
      }

      .cls-35 {
        fill: #8bc9b8;
      }

      .cls-36 {
        fill: #ff974f;
      }

      .cls-37 {
        fill: #6f2b3d;
      }

      .cls-38 {
        fill: #cf5e3d;
      }

      .cls-39 {
        fill: url(#_Áåçûìÿííûé_ãðàäèåíò_293);
      }

      .cls-47 {
        fill: #7d2b3d;
      }

      .cls-40 {
        fill: #ccffa9;
      }

      .cls-41 {
        fill: #100023;
        opacity: .44;
      }

      .cls-42 {
        fill: #b7592f;
      }
    </style>
    <linearGradient id="_Áåçûìÿííûé_ãðàäèåíò_415" data-name="Áåçûìÿííûé ãðàäèåíò 415" x1="305.9" y1="-55.25" x2="305.9" y2="-398.9" gradientTransform="translate(14.07 301.41) rotate(18.87)" gradientUnits="userSpaceOnUse">
      <stop offset="0" stop-color="#905948"/>
      <stop offset=".06" stop-color="#975a45"/>
      <stop offset=".49" stop-color="#c66737"/>
      <stop offset=".81" stop-color="#e36f2e"/>
      <stop offset="1" stop-color="#ee722b"/>
    </linearGradient>
    <linearGradient id="_Áåçûìÿííûé_ãðàäèåíò_421" data-name="Áåçûìÿííûé ãðàäèåíò 421" x1="305.89" y1="-63.7" x2="305.89" y2="-384.62" gradientTransform="translate(14.07 301.41) rotate(18.87)" gradientUnits="userSpaceOnUse">
      <stop offset=".02" stop-color="#751f13"/>
      <stop offset=".6" stop-color="#62132a"/>
      <stop offset="1" stop-color="#5a0e35"/>
    </linearGradient>
    <linearGradient id="_Áåçûìÿííûé_ãðàäèåíò_293" data-name="Áåçûìÿííûé ãðàäèåíò 293" x1="305.89" y1="-84.87" x2="305.89" y2="-338.64" gradientTransform="translate(14.07 301.41) rotate(18.87)" gradientUnits="userSpaceOnUse">
      <stop offset="0" stop-color="#ac493d"/>
      <stop offset=".03" stop-color="#aa473d"/>
      <stop offset=".65" stop-color="#8d2f42"/>
      <stop offset="1" stop-color="#832744"/>
    </linearGradient>
    <linearGradient id="_Áåçûìÿííûé_ãðàäèåíò_358" data-name="Áåçûìÿííûé ãðàäèåíò 358" x1="290.63" y1="-184.2" x2="290.63" y2="-213.4" gradientTransform="translate(14.07 301.41) rotate(18.87)" gradientUnits="userSpaceOnUse">
      <stop offset="0" stop-color="#b686c7"/>
      <stop offset=".12" stop-color="#c7a3d4"/>
      <stop offset=".28" stop-color="#dbc4e3"/>
      <stop offset=".45" stop-color="#ebdeef"/>
      <stop offset=".62" stop-color="#f6f0f8"/>
      <stop offset=".79" stop-color="#fcfbfd"/>
      <stop offset=".99" stop-color="#fff"/>
    </linearGradient>
    <linearGradient id="_Áåçûìÿííûé_ãðàäèåíò_359" data-name="Áåçûìÿííûé ãðàäèåíò 359" x1="300.08" y1="-203.97" x2="300.08" y2="-217.72" gradientTransform="translate(14.07 301.41) rotate(18.87)" gradientUnits="userSpaceOnUse">
      <stop offset=".01" stop-color="#fff"/>
      <stop offset=".21" stop-color="#fcfbfd"/>
      <stop offset=".38" stop-color="#f6f0f8"/>
      <stop offset=".55" stop-color="#ebdeef"/>
      <stop offset=".72" stop-color="#dbc4e3"/>
      <stop offset=".88" stop-color="#c7a3d4"/>
      <stop offset=".99" stop-color="#b686c7"/>
    </linearGradient>
    <linearGradient id="_Áåçûìÿííûé_ãðàäèåíò_347" data-name="Áåçûìÿííûé ãðàäèåíò 347" x1="368.97" y1="305.65" x2="380.5" y2="305.65" gradientUnits="userSpaceOnUse">
      <stop offset=".02" stop-color="#893338"/>
      <stop offset=".14" stop-color="#812d37"/>
      <stop offset=".69" stop-color="#641635"/>
      <stop offset="1" stop-color="#5a0e35"/>
    </linearGradient>
  </defs>
  <g class="cls-45">
    <g id="Capa_3" data-name="Capa 3">
      <g id="Barco">
        <g>
          <g>
            <path class="cls-41" d="M314.68,346.91l-.64-4.64c-.25-1.83-6.11-45.27-1.78-78.48,4.34-33.31,33.81-126.19,51.72-150.01,10.33-13.74,36.58-35.04,57.68-52.17,8.74-7.09,16.28-13.21,20.21-16.83l3.3-3.04,14.62,5,1.08,3.68c.88,3.01,21.57,74.01,21.18,102.84-.25,18.49-5.3,56.63-12.59,77.07-11.1,31.14-22.32,66.44-30.7,80.78-16.9,28.92-56.69,52.66-58.02,53.95l-3.34,3.28-62.72-21.43Z"/>
            <path class="cls-20" d="M288.65,336.85l-.66-4.81c-.26-1.9-6.34-47.01-1.85-81.49,4.51-34.59,35.1-131.03,53.7-155.76,10.73-14.26,37.99-36.39,59.89-54.17,9.07-7.36,16.91-13.72,20.99-17.48l3.43-3.16,15.18,5.19,1.12,3.82c.91,3.12,22.4,76.85,21.99,106.79-.26,19.19-12.99,57.65-20.55,78.87-11.53,32.33-24.6,62.85-33.3,77.74-17.55,30.02-49.96,61.97-51.33,63.32l-3.47,3.4-65.12-22.25Z"/>
            <path class="cls-3" d="M454.71,136.17c.4-28.95-23.53-98.69-23.53-98.69l-7.57-2.59c-13.85,12.75-63.34,45.55-77.91,64.93-17.4,23.14-47.53,117.7-51.92,151.38-4.39,33.68,1.85,79.1,1.85,79.1l28.31,9.68,28.31,9.68s32.73-32.11,49.87-61.43c17.14-29.32,52.18-123.11,52.58-152.06Z"/>
            <path class="cls-39" d="M433.74,158.63c.39-22.87-20.69-78.75-20.69-78.75,0,0-53.07,35-64.53,50.35-13.68,18.33-37.53,93.1-41.05,119.71s1.23,62.47,1.23,62.47l22.13,7.56,22.13,7.56s25.7-25.45,39.2-48.66c13.5-23.21,41.18-97.37,41.58-120.24Z"/>
            <g>
              <polygon class="cls-12" points="343.45 323.14 331.53 318.48 395.1 126.51 415.92 133.63 343.45 323.14"/>
              <polygon class="cls-42" points="334.13 281.57 315.81 277.67 369.9 123.39 386.78 118.83 334.13 281.57"/>
              <polygon class="cls-42" points="407.33 156.07 421.24 159.47 403.74 205.57 387.69 207.53 407.33 156.07"/>
              <polygon class="cls-6" points="380.69 225.77 396.98 222.89 394.64 229.53 378.78 231.37 380.69 225.77"/>
              <polygon class="cls-6" points="376.27 151.31 385.71 152.96 377.67 177.5 368.14 177.85 376.27 151.31"/>
              <polygon class="cls-33" points="333.01 201.03 340.9 206.2 374.86 108.88 360.62 120.22 333.01 201.03"/>
              <polygon class="cls-33" points="345.05 322.93 362.72 278.35 376.14 278.25 358.16 322.17 354.09 326.02 345.05 322.93"/>
              <polygon class="cls-4" points="342.16 204.16 360.35 200.51 362.94 191.86 346.02 193.29 342.16 204.16"/>
              <polygon class="cls-4" points="347.38 187.27 364.04 188.88 364.04 188.88 348.51 184.61 347.38 187.27"/>
            </g>
            <g>
              <rect class="cls-47" x="248.37" y="198.19" width="171.09" height=".4" transform="translate(38.75 450.85) rotate(-71.26)"/>
              <rect class="cls-47" x="238.09" y="203.79" width="207.17" height=".4" transform="translate(36.09 458.89) rotate(-70.67)"/>
              <polygon class="cls-47" points="323.13 316.2 322.75 316.08 395.3 91.81 395.69 91.94 323.13 316.2"/>
              <rect class="cls-47" x="247.68" y="204.52" width="242.88" height=".4" transform="translate(58.22 490.21) rotate(-71.57)"/>
              <rect class="cls-47" x="271.87" y="216.87" width="224.23" height=".4" transform="translate(44.6 498.83) rotate(-69.18)"/>
              <rect class="cls-47" x="296.73" y="227.42" width="197.27" height=".4" transform="translate(42.08 516.27) rotate(-69.18)"/>
              <rect class="cls-47" x="388.15" y="190.83" width="72.71" height=".4" transform="translate(132.33 553.43) rotate(-75.35)"/>
              <polygon class="cls-47" points="425.09 188.74 411.85 184.22 411.98 183.84 425.22 188.36 425.09 188.74"/>
              <rect class="cls-47" x="405.31" y="119.07" width=".4" height="22.01" transform="translate(151.3 471.74) rotate(-71.13)"/>
              <rect class="cls-47" x="324.77" y="270.26" width=".4" height="18.73" transform="translate(-16.17 539.27) rotate(-77.99)"/>
              <polygon class="cls-21" points="417.12 170.34 408.92 187.95 396.31 225.13 417.12 170.34"/>
              <polygon class="cls-21" points="345.04 165.81 343.65 166.94 334.9 195.49 345.04 165.81"/>
              <polygon class="cls-21" points="360.14 118.66 351.54 146.81 363.11 116.16 360.14 118.66"/>
              <polygon class="cls-21" points="315.4 279.31 334.05 281.8 316 277.57 315.4 279.31"/>
              <polygon class="cls-21" points="334.86 307.37 334.56 302.65 335.36 306.34 334.86 307.37"/>
              <polygon class="cls-21" points="388.1 206.31 385.94 208.62 385.61 212.82 388.1 206.31"/>
            </g>
            <polygon class="cls-10" points="372.46 77.55 447.35 101.64 430.43 39.37 422.97 37.61 372.46 77.55"/>
            <polygon class="cls-30" points="372.46 77.55 374.24 79.64 444.66 102.96 447.35 101.64 372.46 77.55"/>
            <polygon class="cls-23" points="295.69 306.83 296.71 329.33 351.58 348.08 366.16 330.9 295.69 306.83"/>
            <polygon class="cls-5" points="366.16 330.9 364.28 329.5 297.88 307.15 295.69 306.83 366.16 330.9"/>
            <polygon class="cls-14" points="428.77 232.05 436.98 208.02 444.08 208.38 434.68 234.07 428.77 232.05"/>
            <polygon class="cls-14" points="314.81 168.76 308.94 165.29 300.84 190.47 306.72 192.43 314.81 168.76"/>
            <polygon class="cls-2" points="372.46 77.55 380.88 102.38 425.65 117.68 447.35 101.64 372.46 77.55"/>
            <polygon class="cls-12" points="340.62 107.9 348.52 130.23 345.47 134.94 336.85 115.2 340.62 107.9"/>
            <path class="cls-12" d="M432.51,168.8l16.74-2.71-15.46,48.84-14.41-.55s12.2-39.5,13.14-45.58Z"/>
            <polygon class="cls-12" points="433.47 162.51 452.28 153.54 452.67 151.68 433.74 158.63 433.47 162.51"/>
            <path class="cls-27" d="M293.3,255.34l13.64-.74-.5,30.39-14.07,4.12s-.24-25.06,.93-33.77Z"/>
            <polygon class="cls-16" points="292.59 294.89 306.89 293.2 307.13 296.57 292.72 297.58 292.59 294.89"/>
            <path class="cls-27" d="M375.22,319.88l-8.31-7.31,12.76-15.43,13.23-.78s-8.69,18.85-17.68,23.52Z"/>
            <polygon class="cls-12" points="397.13 296.21 384.75 290.47 385.97 288.62 400.33 291.2 397.13 296.21"/>
            <polygon class="cls-2" points="298.85 236.93 307.47 249.93 390.96 280.88 406.11 277.19 298.85 236.93"/>
            <g>
              <polygon class="cls-38" points="305.06 212.22 298.85 236.93 406.11 277.19 418.45 249.18 305.06 212.22"/>
              <g>
                <polygon class="cls-46" points="412.95 261.71 301.68 225.6 301.8 225.22 413.07 261.33 412.95 261.71"/>
                <polygon class="cls-46" points="313.9 242.55 313.51 242.45 316.61 230.25 317 230.35 313.9 242.55"/>
                <polygon class="cls-36" points="305.06 212.22 400.1 243.2 395.83 251.8 302.19 223.65 305.06 212.22"/>
                <polygon class="cls-24" points="336.42 236.67 334.93 250.47 396.32 273.51 404.24 258.67 336.42 236.67"/>
                <polygon class="cls-24" points="329.95 248.6 330.19 234.64 328.9 234.23 327.76 247.85 329.95 248.6"/>
                <polygon class="cls-37" points="321.48 231.82 331.22 233.72 360.89 244.67 321.48 231.82"/>
                <polygon class="cls-37" points="413.6 260.19 396.9 256.45 412.65 262.35 413.6 260.19"/>
                <polygon class="cls-36" points="396.32 273.51 403.19 276.09 409.34 261.11 404 259.11 396.32 273.51"/>
                <polygon class="cls-37" points="406.11 277.19 298.85 236.93 357.87 258.56 406.11 277.19"/>
                <polygon class="cls-17" points="415.97 248.33 404.64 276.59 406.11 277.19 418.45 249.18 415.97 248.33"/>
                <polygon class="cls-17" points="305.06 212.22 306.13 212.57 300.65 237.54 298.85 236.93 305.06 212.22"/>
              </g>
            </g>
            <rect class="cls-44" x="416.8" y="44.12" width=".4" height="50.18" transform="translate(216.67 441.44) rotate(-71.13)"/>
            <polygon class="cls-44" points="434.82 55.73 410.67 47.48 410.79 47.1 434.95 55.35 434.82 55.73"/>
            <polygon class="cls-46" points="359.56 338.8 296.24 320.24 296.35 319.86 359.67 338.42 359.56 338.8"/>
            <polygon class="cls-37" points="361.4 336.51 354.45 337.1 358.87 339.49 361.4 336.51"/>
            <polygon class="cls-37" points="393.26 61.1 400.74 63.65 391.71 62.32 393.26 61.1"/>
            <polygon class="cls-24" points="391.71 62.32 372.46 77.55 447.35 101.64 441.27 79.26 391.71 62.32"/>
            <polygon class="cls-17" points="443.47 100.39 429.8 42.48 422 39.81 375.47 78.52 372.03 77.4 422.97 37.61 430.43 39.37 447.35 101.64 443.47 100.39"/>
            <rect class="cls-46" x="416.41" y="27.24" width="14.92" height=".4" transform="translate(381.01 450.03) rotate(-87.91)"/>
            <polygon class="cls-46" points="431.34 37.59 431.01 37.37 439.15 25.06 439.49 25.28 431.34 37.59"/>
            <rect class="cls-46" x="287.35" y="333.38" width="9.56" height=".4" transform="translate(-149.12 289.87) rotate(-43.13)"/>
            <polygon class="cls-46" points="353.57 359.14 352.05 349.69 352.45 349.63 353.97 359.07 353.57 359.14"/>
            <polygon class="cls-4" points="314.92 148.36 324.83 142.3 335.54 117.94 326.22 120.11 314.92 148.36"/>
            <polygon class="cls-4" points="313.32 153.03 321.63 152.14 326.84 138.37 317.29 141.42 313.32 153.03"/>
            <polygon class="cls-8" points="454.08 143.52 461.21 147.55 457.27 165.64 449.39 192.53 440.13 196.37 449.47 164.6 454.08 143.52"/>
            <polygon class="cls-8" points="396.06 311.13 388.08 308.56 368.25 332.76 375.62 335.27 396.06 311.13"/>
            <polygon class="cls-8" points="393.3 301.8 399.56 306.29 393.22 314.9 385.34 311.9 393.3 301.8"/>
            <polygon class="cls-8" points="411.88 69.21 403.35 87.49 426.2 94.83 430.58 75.6 411.88 69.21"/>
            <polygon class="cls-13" points="429.78 95.63 432.54 76.27 435.21 77.19 434 97.07 429.78 95.63"/>
            <polygon class="cls-22" points="284.87 271.31 292.31 271.42 292.37 278.48 284.49 281.13 284.87 271.31"/>
            <polygon class="cls-22" points="284.65 290.21 292.2 286.18 292.59 294.89 284.9 296.64 284.65 290.21"/>
            <polygon class="cls-22" points="402.12 288.23 407.72 293.73 406.23 296.27 400.33 291.2 402.12 288.23"/>
            <polygon class="cls-21" points="308.27 308.83 306.12 295.24 305.51 266.49 307.47 249.93 306.24 267.92 307.44 297.48 308.27 308.83"/>
            <polygon class="cls-21" points="356.48 323.94 373.02 305.19 362.54 318.05 356.48 323.94"/>
            <path class="cls-32" d="M333.25,161.78l9.7-20.96,6.99-12.35-4.3,4.81s-7.42,15.14-12.39,28.49Z"/>
            <polygon class="cls-24" points="314.57 325.41 316.35 313.89 343.45 323.14 339.02 332.57 314.57 325.41"/>
            <polygon class="cls-24" points="340.11 332.89 350.35 325.5 351.9 326.03 340.88 333.12 340.11 332.89"/>
            <polygon class="cls-24" points="335.71 342.65 345.81 334.56 347.92 335.18 336.67 342.98 335.71 342.65"/>
          </g>
          <g>
            <path class="cls-35" d="M434.9,243.2l-.91-.31-4.06,6.92-9.89-3.04-10.89-5.02-18.04-1.63-71.4-23.13,5.92-3.78c-1.61-8.84,2.18-19.94,2.18-19.94l41.27-.62,4.83-5.16,53.89,.54,15.03-6.81,9.9,1.89,.1,7.95-1.13,.68-2.77,14.73-2.15,4.96-.76,8.82c-2.77,8.75-11.11,22.95-11.11,22.95Z"/>
            <path class="cls-15" d="M442.82,181.21l-.44,6.56,10.44,3.29-1.14,.68-9.27-3.17-4.69,14.07s4.25,3.48,11.18,3.82l-2.15,4.96-11.26-5.97-4.52,10.39-5.94,21.93,8.94,5.12-10.01-4.44-2.25,7.6,8.2,3.76-9.9-3.04-10.89-5.02-18.05-1.63,16.29,1.03s3.21-4.88,4.27-7.96l-24.41-6.28-21.73-2.39-39.89-11.32,41.25,9.64,44.62,7.46s6.67-12.38,9.96-23.99l-39.3-7.9-13.08-5.78,1.45-1.55,30.28,10.35,17.65,2.8,9.34-16.22,15.02-6.8Z"/>
            <path class="cls-7" d="M421.73,246.05l8.2,3.76-9.89-3.04-10.89-5.02-18.04-1.63-71.4-23.13,5.92-3.78c-1.61-8.84,2.18-19.94,2.18-19.94l41.27-.62,4.83-5.16,53.89,.54,15.03-6.81-.44,6.56,4,2.15-3.97-1.36-3.58,7.36-1.11,6.71-2.23,2.81-2.37,11.37-8.08,20.95,7.52,4.3-8.6-3.63-2.24,7.61h0Z"/>
            <polygon class="cls-18" points="442.42 188.57 438.05 190.43 418.46 204.24 400.8 201.44 421.45 206.32 437.72 191.41 442.42 188.57"/>
            <polygon class="cls-18" points="425.05 237.77 414.18 231.24 411.49 230.32 386.49 226.14 411.65 233.19 423.97 238.45 427.73 239.31 425.05 237.77"/>
            <polygon class="cls-29" points="418.46 204.24 421.45 206.32 400.8 201.44 418.46 204.24"/>
            <polygon class="cls-19" points="366.87 222.85 381.16 201.33 325.62 213.21 366.87 222.85"/>
            <polygon class="cls-11" points="366.87 222.85 348.75 217.82 325.62 213.21 366.87 222.85"/>
            <polygon class="cls-34" points="429.07 216.71 424.31 235.38 413.82 229.99 420.38 213.74 429.07 216.71"/>
            <polygon class="cls-34" points="420.6 202.48 430.39 188.07 441.67 181.74 440.98 186.61 420.6 202.48"/>
            <polygon class="cls-28" points="390.9 226.1 389.92 202.06 412.32 204.16 403.08 227.44 390.9 226.1"/>
            <polygon class="cls-28" points="386.49 226.14 387.88 199.81 382.15 198.42 373.43 223.95 386.49 226.14"/>
            <polygon class="cls-28" points="383.18 195.42 389.75 187.64 405.47 187.8 400.8 201.44 383.18 195.42"/>
            <polygon class="cls-28" points="389.38 227.65 391.1 240.12 405.88 241.05 407.62 232.15 389.38 227.65"/>
            <polygon class="cls-28" points="365.51 224.53 361.75 230.7 331.44 220.79 345.92 218.97 365.51 224.53"/>
            <polygon class="cls-9" points="370.53 191.09 383.55 194.33 400.8 201.44 383.18 195.42 370.53 191.09"/>
            <polygon class="cls-25" points="382.15 198.42 369.33 204.1 349.89 200.62 369.07 192.64 382.15 198.42"/>
          </g>
          <polygon class="cls-13" points="383.86 53.25 390.97 60.26 408.61 47.22 402.05 39.12 383.86 53.25"/>
          <polygon class="cls-13" points="413.29 43.37 409.69 32.56 413.29 30.53 416.4 40.93 413.29 43.37"/>
          <polygon class="cls-13" points="444.81 44.59 435.7 49.81 442.73 74.67 451.64 71.14 444.81 44.59"/>
          <path class="cls-40" d="M441.26,258.45s1.47,3.14,0,6.36c-1.47,3.22-5.15,11.18-7.9,13.75,0,0,8.1-12.83,7.9-20.11Z"/>
          <path class="cls-40" d="M426.86,286.23s-2.86,5.78-7.28,6.54c0,0,5.46-2.82,7.28-6.54Z"/>
          <polygon class="cls-2" points="368.54 232.81 361.68 260.03 367.69 262.35 376.93 235.64 368.54 232.81"/>
          <polygon class="cls-2" points="363.11 100.35 358.21 120.35 355.71 145.7 359.22 150.07 345.05 225.25 349.89 226.77 363.63 151.73 374.69 149.29 380.88 102.38 363.11 100.35"/>
          <g>
            <path class="cls-1" d="M386.43,134.83c-1.27,1.39-7.62,4.69-7.62,4.69l.14,12.3,1.55,154.23s-2.65,1.18-5.77,1.18c-1.81,0-3.31-.33-4.32-.64-.92-.28-1.44-.54-1.44-.54l2.51-144.27v-.06l.39-22.16s-7.67-3.34-8.94-4.73c-1.26-1.4,.42-35.61,.42-35.61,0,0,.02-.01,.06-.02,.63-.25,6.26-2.36,11.27-1.95,3.03-.25,6.29,.43,8.53,1.05,.23,.07,.44,.13,.65,.19,.19,.05,.38,.11,.57,.18,.54,.17,.96,.32,1.23,.42,.07,.03,.15,.05,.22,.08,.02,0,.04,0,.05,.02s.02,.01,.03,.01c.02,0,.03,0,.05,.02,0,0,1.69,34.21,.42,35.61Z"/>
            <path class="cls-26" d="M368.97,306.06s4.14-4.54,11.53,0c0,0-4.69,2.72-11.53,0Z"/>
            <path class="cls-14" d="M369.26,293.59s4.3-3.97,11.05-2.15l-.39-46.3s-5.13-2.82-10.08,1.98l-.58,46.46Z"/>
            <path class="cls-14" d="M371.88,139.56s3.52-2.5,6.94-.04v2.38s-4.9-1.24-6.94,0v-2.34Z"/>
            <path class="cls-31" d="M386.43,134.83c-1.27,1.39-7.62,4.69-7.62,4.69l.14,12.3-.14,.08c-4.41,.14-6.53,3.09-6.53,3.09l.78,149.48-1.19-162.56-.28,162.56-1.18,2.12c-.92-.28-1.44-.54-1.44-.54l2.9-166.49s-7.67-3.34-8.94-4.73c-1.26-1.4,.42-35.61,.42-35.61,0,0,6.02-2.41,11.33-1.97,5.31-.44,11.33,1.97,11.33,1.97,0,0,1.69,34.21,.42,35.61Z"/>
            <path class="cls-31" d="M385.88,99.17h0c-1.37-.42-12.16-3.96-22.47,.03,0,0-.68,33.11,.58,35.14,1.26,2.03,9.02,4.63,9.02,4.63l-1.53,22.75,.39-22.16s-7.67-3.34-8.94-4.73c-1.26-1.4,.42-35.61,.42-35.61,0,0,.02-.01,.06-.02,.72-.35,8.09-3.71,18.36-1.26,.51,.12,1,.24,1.44,.36,.21,.05,.43,.12,.65,.19,.19,.05,.38,.11,.57,.18,.41,.13,.82,.27,1.23,.42,.07,.03,.15,.05,.22,.08Z"/>
            <polygon class="cls-43" points="372.03 97.25 371.88 109.16 372.54 97.36 372.03 97.25"/>
          </g>
        </g>
      </g>
    </g>
  </g>
</svg>