<?xml version="1.0" encoding="UTF-8"?>
<svg xmlns="http://www.w3.org/2000/svg" xmlns:xlink="http://www.w3.org/1999/xlink" viewBox="0 0 182.31 443.81">
  <defs>
    <style>
      .cls-1 {
        fill: url(#_Áåçûìÿííûé_ãðàäèåíò_162-14);
      }

      .cls-1, .cls-2, .cls-3, .cls-4, .cls-5, .cls-6, .cls-7, .cls-8, .cls-9, .cls-10, .cls-11, .cls-12, .cls-13, .cls-14, .cls-15, .cls-16, .cls-17, .cls-18, .cls-19, .cls-20, .cls-21, .cls-22, .cls-23, .cls-24, .cls-25, .cls-26, .cls-27, .cls-28, .cls-29, .cls-30, .cls-31, .cls-32, .cls-33, .cls-34, .cls-35, .cls-36, .cls-37, .cls-38, .cls-39, .cls-40, .cls-41, .cls-42, .cls-43, .cls-44, .cls-45, .cls-46, .cls-47, .cls-48, .cls-49, .cls-50, .cls-51, .cls-52, .cls-53, .cls-54, .cls-55, .cls-56, .cls-57, .cls-58, .cls-59, .cls-60, .cls-61, .cls-62 {
        mix-blend-mode: multiply;
      }

      .cls-1, .cls-6, .cls-11, .cls-18, .cls-19, .cls-24, .cls-29, .cls-30, .cls-34, .cls-37, .cls-42, .cls-43, .cls-48, .cls-58, .cls-60 {
        opacity: .3;
      }

      .cls-63 {
        fill: url(#linear-gradient-2);
      }

      .cls-64 {
        fill: url(#_Áåçûìÿííûé_ãðàäèåíò_241-2);
      }

      .cls-65 {
        fill: url(#_Áåçûìÿííûé_ãðàäèåíò_1011);
      }

      .cls-65, .cls-66, .cls-17, .cls-67, .cls-68 {
        opacity: .5;
      }

      .cls-65, .cls-67, .cls-68 {
        mix-blend-mode: screen;
      }

      .cls-2 {
        fill: url(#_Áåçûìÿííûé_ãðàäèåíò_401-2);
      }

      .cls-2, .cls-3, .cls-4, .cls-10, .cls-13, .cls-20, .cls-21, .cls-28, .cls-33, .cls-36, .cls-39, .cls-45, .cls-46, .cls-47, .cls-54, .cls-55, .cls-56, .cls-59, .cls-62 {
        opacity: .6;
      }

      .cls-3 {
        fill: url(#_Áåçûìÿííûé_ãðàäèåíò_401-3);
      }

      .cls-69 {
        fill: url(#_Áåçûìÿííûé_ãðàäèåíò_634);
      }

      .cls-70, .cls-66 {
        fill: #fff;
      }

      .cls-71 {
        fill: url(#_Áåçûìÿííûé_ãðàäèåíò_194-2);
      }

      .cls-72 {
        fill: url(#_Áåçûìÿííûé_ãðàäèåíò_248-3);
      }

      .cls-66 {
        mix-blend-mode: soft-light;
      }

      .cls-73 {
        fill: #00032e;
      }

      .cls-73, .cls-31, .cls-74, .cls-75 {
        fill-rule: evenodd;
      }

      .cls-4 {
        fill: url(#_Áåçûìÿííûé_ãðàäèåíò_401-6);
      }

      .cls-5 {
        fill: url(#_Áåçûìÿííûé_ãðàäèåíò_281-4);
      }

      .cls-6 {
        fill: url(#_Áåçûìÿííûé_ãðàäèåíò_162-12);
      }

      .cls-76 {
        fill: url(#_Áåçûìÿííûé_ãðàäèåíò_634-3);
      }

      .cls-7 {
        fill: url(#_Áåçûìÿííûé_ãðàäèåíò_281-3);
      }

      .cls-77 {
        fill: url(#linear-gradient-15);
      }

      .cls-78 {
        fill: #40446f;
      }

      .cls-8 {
        fill: url(#_Áåçûìÿííûé_ãðàäèåíò_281-8);
      }

      .cls-9 {
        fill: url(#_Áåçûìÿííûé_ãðàäèåíò_815);
      }

      .cls-9, .cls-14, .cls-15, .cls-38 {
        opacity: .8;
      }

      .cls-10 {
        fill: url(#_Áåçûìÿííûé_ãðàäèåíò_401-12);
      }

      .cls-11 {
        fill: url(#_Áåçûìÿííûé_ãðàäèåíò_162-5);
      }

      .cls-12 {
        fill: url(#_Áåçûìÿííûé_ãðàäèåíò_281-6);
      }

      .cls-79 {
        fill: url(#linear-gradient-14);
      }

      .cls-13 {
        fill: url(#_Áåçûìÿííûé_ãðàäèåíò_401-11);
      }

      .cls-14 {
        fill: url(#_Áåçûìÿííûé_ãðàäèåíò_2716-8);
      }

      .cls-80 {
        fill: url(#linear-gradient-6);
      }

      .cls-81 {
        isolation: isolate;
      }

      .cls-15 {
        fill: url(#_Áåçûìÿííûé_ãðàäèåíò_2716-9);
      }

      .cls-16 {
        fill: url(#_Áåçûìÿííûé_ãðàäèåíò_281-5);
      }

      .cls-82 {
        fill: url(#_Áåçûìÿííûé_ãðàäèåíò_194);
      }

      .cls-17 {
        fill: url(#_Áåçûìÿííûé_ãðàäèåíò_183);
      }

      .cls-18 {
        fill: url(#_Áåçûìÿííûé_ãðàäèåíò_162-8);
      }

      .cls-83 {
        fill: url(#_Áåçûìÿííûé_ãðàäèåíò_634-4);
      }

      .cls-19 {
        fill: url(#_Áåçûìÿííûé_ãðàäèåíò_162-2);
      }

      .cls-84 {
        fill: url(#_Áåçûìÿííûé_ãðàäèåíò_192-3);
      }

      .cls-85 {
        clip-path: url(#clippath-1);
      }

      .cls-86 {
        fill: #9698ab;
      }

      .cls-87 {
        fill: url(#linear-gradient-10);
      }

      .cls-88 {
        fill: url(#_Áåçûìÿííûé_ãðàäèåíò_192);
      }

      .cls-20 {
        fill: url(#_Áåçûìÿííûé_ãðàäèåíò_401-9);
      }

      .cls-21 {
        fill: url(#_Áåçûìÿííûé_ãðàäèåíò_2716-10);
      }

      .cls-89, .cls-75 {
        fill: #111540;
      }

      .cls-22 {
        fill: url(#_Áåçûìÿííûé_ãðàäèåíò_266);
        opacity: .2;
      }

      .cls-23 {
        fill: url(#_Áåçûìÿííûé_ãðàäèåíò_281-2);
      }

      .cls-67 {
        fill: url(#_Áåçûìÿííûé_ãðàäèåíò_1011-3);
      }

      .cls-24 {
        fill: url(#_Áåçûìÿííûé_ãðàäèåíò_162-15);
      }

      .cls-90 {
        fill: #272b56;
      }

      .cls-25 {
        fill: url(#_Áåçûìÿííûé_ãðàäèåíò_3649-7);
      }

      .cls-26 {
        fill: url(#_Áåçûìÿííûé_ãðàäèåíò_669);
        opacity: .87;
      }

      .cls-27 {
        fill: url(#linear-gradient-3);
        opacity: .54;
      }

      .cls-28 {
        fill: url(#_Áåçûìÿííûé_ãðàäèåíò_401);
      }

      .cls-91 {
        fill: url(#_Áåçûìÿííûé_ãðàäèåíò_192-2);
      }

      .cls-29 {
        fill: url(#_Áåçûìÿííûé_ãðàäèåíò_162-7);
      }

      .cls-92 {
        fill: url(#_Áåçûìÿííûé_ãðàäèåíò_241);
      }

      .cls-93 {
        fill: url(#linear-gradient-5);
      }

      .cls-30 {
        fill: url(#_Áåçûìÿííûé_ãðàäèåíò_162-10);
      }

      .cls-31 {
        fill: url(#linear-gradient-16);
        opacity: .81;
      }

      .cls-94 {
        fill: #e0645e;
      }

      .cls-95 {
        clip-path: url(#clippath);
      }

      .cls-32 {
        fill: url(#_Áåçûìÿííûé_ãðàäèåíò_281);
      }

      .cls-33 {
        fill: url(#_Áåçûìÿííûé_ãðàäèåíò_401-7);
      }

      .cls-34 {
        fill: url(#_Áåçûìÿííûé_ãðàäèåíò_162-13);
      }

      .cls-96 {
        fill: none;
      }

      .cls-74 {
        fill: #080c37;
      }

      .cls-97 {
        fill: #262a55;
      }

      .cls-35 {
        fill: url(#_Áåçûìÿííûé_ãðàäèåíò_3649-6);
      }

      .cls-36 {
        fill: url(#_Áåçûìÿííûé_ãðàäèåíò_401-10);
      }

      .cls-98 {
        fill: url(#_32);
      }

      .cls-99 {
        fill: url(#linear-gradient-7);
      }

      .cls-100 {
        fill: url(#_Áåçûìÿííûé_ãðàäèåíò_192-4);
      }

      .cls-101 {
        fill: url(#_Áåçûìÿííûé_ãðàäèåíò_853-2);
      }

      .cls-102 {
        fill: url(#_Áåçûìÿííûé_ãðàäèåíò_938-2);
      }

      .cls-103 {
        fill: #c22a57;
      }

      .cls-104 {
        fill: url(#_Áåçûìÿííûé_ãðàäèåíò_634-2);
      }

      .cls-37 {
        fill: url(#_Áåçûìÿííûé_ãðàäèåíò_162-11);
      }

      .cls-105 {
        fill: url(#_Áåçûìÿííûé_ãðàäèåíò_192-5);
      }

      .cls-38 {
        fill: url(#_Áåçûìÿííûé_ãðàäèåíò_2716-7);
      }

      .cls-39 {
        fill: url(#_Áåçûìÿííûé_ãðàäèåíò_2716);
      }

      .cls-106 {
        fill: url(#linear-gradient-9);
      }

      .cls-40 {
        fill: url(#linear-gradient-12);
      }

      .cls-40, .cls-49 {
        opacity: .44;
      }

      .cls-41 {
        fill: #e89fc0;
      }

      .cls-42 {
        fill: url(#_Áåçûìÿííûé_ãðàäèåíò_162-6);
      }

      .cls-43 {
        fill: url(#_Áåçûìÿííûé_ãðàäèåíò_162-4);
      }

      .cls-44 {
        fill: url(#_Áåçûìÿííûé_ãðàäèåíò_3649);
      }

      .cls-45 {
        fill: url(#_Áåçûìÿííûé_ãðàäèåíò_401-5);
      }

      .cls-46 {
        fill: url(#_Áåçûìÿííûé_ãðàäèåíò_2716-4);
      }

      .cls-47 {
        fill: url(#_Áåçûìÿííûé_ãðàäèåíò_401-4);
      }

      .cls-107 {
        fill: url(#linear-gradient);
      }

      .cls-48 {
        fill: url(#_Áåçûìÿííûé_ãðàäèåíò_162-3);
      }

      .cls-49 {
        fill: url(#linear-gradient-11);
      }

      .cls-108 {
        fill: url(#_Áåçûìÿííûé_ãðàäèåíò_186);
      }

      .cls-50 {
        fill: url(#_Áåçûìÿííûé_ãðàäèåíò_3649-5);
      }

      .cls-51 {
        fill: url(#_Áåçûìÿííûé_ãðàäèåíò_3649-2);
      }

      .cls-52 {
        fill: url(#_Áåçûìÿííûé_ãðàäèåíò_281-7);
      }

      .cls-53 {
        fill: url(#_Áåçûìÿííûé_ãðàäèåíò_3649-3);
      }

      .cls-109 {
        fill: url(#_Áåçûìÿííûé_ãðàäèåíò_853);
      }

      .cls-54 {
        fill: url(#_Áåçûìÿííûé_ãðàäèåíò_2716-6);
      }

      .cls-55 {
        fill: url(#_Áåçûìÿííûé_ãðàäèåíò_2716-3);
      }

      .cls-110 {
        fill: url(#_Áåçûìÿííûé_ãðàäèåíò_938);
      }

      .cls-68 {
        fill: url(#_Áåçûìÿííûé_ãðàäèåíò_1011-2);
      }

      .cls-111 {
        fill: url(#linear-gradient-4);
      }

      .cls-56 {
        fill: url(#_Áåçûìÿííûé_ãðàäèåíò_2716-2);
      }

      .cls-58 {
        fill: url(#_Áåçûìÿííûé_ãðàäèåíò_162-9);
      }

      .cls-112 {
        fill: url(#_Áåçûìÿííûé_ãðàäèåíò_248-2);
      }

      .cls-113 {
        fill: url(#_Áåçûìÿííûé_ãðàäèåíò_136);
      }

      .cls-114 {
        fill: url(#_Áåçûìÿííûé_ãðàäèåíò_248);
      }

      .cls-115 {
        fill: url(#linear-gradient-8);
      }

      .cls-59 {
        fill: url(#_Áåçûìÿííûé_ãðàäèåíò_2716-5);
      }

      .cls-60 {
        fill: url(#_Áåçûìÿííûé_ãðàäèåíò_162);
      }

      .cls-116 {
        fill: url(#_2);
      }

      .cls-61 {
        fill: url(#_Áåçûìÿííûé_ãðàäèåíò_3649-4);
      }

      .cls-62 {
        fill: url(#_Áåçûìÿííûé_ãðàäèåíò_401-8);
      }

      .cls-117 {
        fill: url(#linear-gradient-13);
      }
    </style>
    <linearGradient id="_Áåçûìÿííûé_ãðàäèåíò_241" data-name="Áåçûìÿííûé ãðàäèåíò 241" x1="47.84" y1="460.77" x2="49.7" y2="451.76" gradientUnits="userSpaceOnUse">
      <stop offset="0" stop-color="#2e64d1"/>
      <stop offset=".15" stop-color="#3355c0"/>
      <stop offset=".51" stop-color="#3e359c"/>
      <stop offset=".81" stop-color="#452286"/>
      <stop offset="1" stop-color="#481b7f"/>
    </linearGradient>
    <linearGradient id="_Áåçûìÿííûé_ãðàäèåíò_401" data-name="Áåçûìÿííûé ãðàäèåíò 401" x1="54.78" y1="430.92" x2="54.03" y2="464.6" gradientUnits="userSpaceOnUse">
      <stop offset="0" stop-color="#a4007e"/>
      <stop offset="1" stop-color="#fff"/>
    </linearGradient>
    <linearGradient id="_Áåçûìÿííûé_ãðàäèåíò_241-2" data-name="Áåçûìÿííûé ãðàäèåíò 241" x1="105.9" y1="463.74" x2="106.98" y2="455.28" xlink:href="#_Áåçûìÿííûé_ãðàäèåíò_241"/>
    <linearGradient id="_Áåçûìÿííûé_ãðàäèåíò_401-2" data-name="Áåçûìÿííûé ãðàäèåíò 401" x1="109.45" y1="441.46" x2="107.53" y2="461.89" xlink:href="#_Áåçûìÿííûé_ãðàäèåíò_401"/>
    <linearGradient id="linear-gradient" x1="52.06" y1="210.02" x2="126.49" y2="210.02" gradientUnits="userSpaceOnUse">
      <stop offset="0" stop-color="#b5a9bb"/>
      <stop offset="1" stop-color="#c4bbca"/>
    </linearGradient>
    <linearGradient id="_Áåçûìÿííûé_ãðàäèåíò_401-3" data-name="Áåçûìÿííûé ãðàäèåíò 401" x1="140.81" y1="420.77" x2="141.45" y2="465.47" xlink:href="#_Áåçûìÿííûé_ãðàäèåíò_401"/>
    <linearGradient id="_Áåçûìÿííûé_ãðàäèåíò_401-4" data-name="Áåçûìÿííûé ãðàäèåíò 401" x1="99.11" y1="424.91" x2="126.64" y2="424.91" xlink:href="#_Áåçûìÿííûé_ãðàäèåíò_401"/>
    <linearGradient id="_Áåçûìÿííûé_ãðàäèåíò_401-5" data-name="Áåçûìÿííûé ãðàäèåíò 401" x1="130.77" y1="429.56" x2="150.48" y2="429.56" xlink:href="#_Áåçûìÿííûé_ãðàäèåíò_401"/>
    <linearGradient id="_Áåçûìÿííûé_ãðàäèåíò_401-6" data-name="Áåçûìÿííûé ãðàäèåíò 401" x1="52.86" y1="425.47" x2="60.02" y2="466.32" xlink:href="#_Áåçûìÿííûé_ãðàäèåíò_401"/>
    <linearGradient id="_Áåçûìÿííûé_ãðàäèåíò_401-7" data-name="Áåçûìÿííûé ãðàäèåíò 401" x1="82.37" y1="235.29" x2="104.26" y2="181.4" xlink:href="#_Áåçûìÿííûé_ãðàäèåíò_401"/>
    <linearGradient id="_Áåçûìÿííûé_ãðàäèåíò_669" data-name="Áåçûìÿííûé ãðàäèåíò 669" x1="35.53" y1="435.46" x2="137.81" y2="183.73" gradientUnits="userSpaceOnUse">
      <stop offset="0" stop-color="#935eb9"/>
      <stop offset="1" stop-color="#ffdec7"/>
    </linearGradient>
    <linearGradient id="linear-gradient-2" x1="22.6" y1="156.17" x2="56.86" y2="156.17" xlink:href="#linear-gradient"/>
    <linearGradient id="_Áåçûìÿííûé_ãðàäèåíò_192" data-name="Áåçûìÿííûé ãðàäèåíò 192" x1="82.43" y1="198.59" x2="25.59" y2="135.5" gradientTransform="translate(-27.07 3.33) rotate(-8.08)" gradientUnits="userSpaceOnUse">
      <stop offset=".39" stop-color="#ffaa79"/>
      <stop offset=".69" stop-color="#ffa27a"/>
      <stop offset="1" stop-color="#ff957c"/>
    </linearGradient>
    <linearGradient id="_Áåçûìÿííûé_ãðàäèåíò_281" data-name="Áåçûìÿííûé ãðàäèåíò 281" x1="20.72" y1="177.73" x2="60.52" y2="149.34" gradientTransform="translate(-27.07 3.33) rotate(-8.08)" gradientUnits="userSpaceOnUse">
      <stop offset="0" stop-color="#fff"/>
      <stop offset=".17" stop-color="#fdf7fa"/>
      <stop offset=".42" stop-color="#f8e3ec"/>
      <stop offset=".73" stop-color="#f0c2d7"/>
      <stop offset=".99" stop-color="#e89fc0"/>
    </linearGradient>
    <linearGradient id="_Áåçûìÿííûé_ãðàäèåíò_248" data-name="Áåçûìÿííûé ãðàäèåíò 248" x1="20.23" y1="52.88" x2="-22.64" y2="58.65" gradientUnits="userSpaceOnUse">
      <stop offset=".01" stop-color="#772438"/>
      <stop offset=".99" stop-color="#994540"/>
    </linearGradient>
    <linearGradient id="_32" data-name="  32" x1="81.16" y1="102.44" x2="79.53" y2="63.38" gradientUnits="userSpaceOnUse">
      <stop offset=".03" stop-color="#ff9b75"/>
      <stop offset=".95" stop-color="#ff7c61"/>
    </linearGradient>
    <linearGradient id="_Áåçûìÿííûé_ãðàäèåíò_281-2" data-name="Áåçûìÿííûé ãðàäèåíò 281" x1="80.71" y1="100.94" x2="82.23" y2="69.51" gradientTransform="matrix(1, 0, 0, 1, 0, 0)" xlink:href="#_Áåçûìÿííûé_ãðàäèåíò_281"/>
    <linearGradient id="_Áåçûìÿííûé_ãðàäèåíò_192-2" data-name="Áåçûìÿííûé ãðàäèåíò 192" x1="113.24" y1="85.39" x2="113.24" y2="21.05" gradientTransform="matrix(1, 0, 0, 1, 0, 0)" xlink:href="#_Áåçûìÿííûé_ãðàäèåíò_192"/>
    <linearGradient id="_Áåçûìÿííûé_ãðàäèåíò_162" data-name="Áåçûìÿííûé ãðàäèåíò 162" x1="113.24" y1="85.39" x2="113.24" y2="21.05" gradientUnits="userSpaceOnUse">
      <stop offset="0" stop-color="#fff"/>
      <stop offset=".99" stop-color="#ca00a4"/>
    </linearGradient>
    <linearGradient id="_Áåçûìÿííûé_ãðàäèåíò_162-2" data-name="Áåçûìÿííûé ãðàäèåíò 162" x1="114.07" y1="58.02" x2="112.2" y2="48.78" xlink:href="#_Áåçûìÿííûé_ãðàäèåíò_162"/>
    <linearGradient id="_Áåçûìÿííûé_ãðàäèåíò_186" data-name="Áåçûìÿííûé ãðàäèåíò 186" x1="86.9" y1="85.39" x2="86.9" y2="21.05" gradientUnits="userSpaceOnUse">
      <stop offset="0" stop-color="#c87e66"/>
      <stop offset=".39" stop-color="#ffaa79"/>
      <stop offset=".69" stop-color="#ffa27a"/>
      <stop offset="1" stop-color="#ff957c"/>
    </linearGradient>
    <linearGradient id="_Áåçûìÿííûé_ãðàäèåíò_162-3" data-name="Áåçûìÿííûé ãðàäèåíò 162" x1="99.46" y1="101.97" x2="82.13" y2="16.64" xlink:href="#_Áåçûìÿííûé_ãðàäèåíò_162"/>
    <linearGradient id="_Áåçûìÿííûé_ãðàäèåíò_162-4" data-name="Áåçûìÿííûé ãðàäèåíò 162" x1="90.58" y1="39.85" x2="85.06" y2="47.43" xlink:href="#_Áåçûìÿííûé_ãðàäèåíò_162"/>
    <linearGradient id="_Áåçûìÿííûé_ãðàäèåíò_162-5" data-name="Áåçûìÿííûé ãðàäèåíò 162" x1="100.46" y1="59.46" x2="112.25" y2="32.75" xlink:href="#_Áåçûìÿííûé_ãðàäèåíò_162"/>
    <linearGradient id="_Áåçûìÿííûé_ãðàäèåíò_162-6" data-name="Áåçûìÿííûé ãðàäèåíò 162" x1="112.68" y1="37.87" x2="106.97" y2="45.72" xlink:href="#_Áåçûìÿííûé_ãðàäèåíò_162"/>
    <linearGradient id="_Áåçûìÿííûé_ãðàäèåíò_853" data-name="Áåçûìÿííûé ãðàäèåíò 853" x1="104.63" y1="49.81" x2="99.56" y2="56.78" gradientUnits="userSpaceOnUse">
      <stop offset="0" stop-color="#e1dbfb"/>
      <stop offset="1" stop-color="#fff"/>
    </linearGradient>
    <linearGradient id="_Áåçûìÿííûé_ãðàäèåíò_192-3" data-name="Áåçûìÿííûé ãðàäèåíò 192" x1="61.34" y1="85.39" x2="61.34" y2="21.05" gradientTransform="matrix(1, 0, 0, 1, 0, 0)" xlink:href="#_Áåçûìÿííûé_ãðàäèåíò_192"/>
    <linearGradient id="_Áåçûìÿííûé_ãðàäèåíò_162-7" data-name="Áåçûìÿííûé ãðàäèåíò 162" x1="64.41" y1="82.1" x2="64.41" y2="24.53" xlink:href="#_Áåçûìÿííûé_ãðàäèåíò_162"/>
    <linearGradient id="_Áåçûìÿííûé_ãðàäèåíò_853-2" data-name="Áåçûìÿííûé ãðàäèåíò 853" x1="90.43" y1="40.85" x2="85.27" y2="47.93" xlink:href="#_Áåçûìÿííûé_ãðàäèåíò_853"/>
    <linearGradient id="_Áåçûìÿííûé_ãðàäèåíò_634" data-name="Áåçûìÿííûé ãðàäèåíò 634" x1="94.62" y1="26.06" x2="86.17" y2="37.66" gradientUnits="userSpaceOnUse">
      <stop offset="0" stop-color="#9d3e3e"/>
      <stop offset="1" stop-color="#68283a"/>
    </linearGradient>
    <linearGradient id="_Áåçûìÿííûé_ãðàäèåíò_634-2" data-name="Áåçûìÿííûé ãðàäèåíò 634" x1="113.04" y1="29.09" x2="107.6" y2="36.57" xlink:href="#_Áåçûìÿííûé_ãðàäèåíò_634"/>
    <linearGradient id="_Áåçûìÿííûé_ãðàäèåíò_162-8" data-name="Áåçûìÿííûé ãðàäèåíò 162" x1="97.55" y1="72.59" x2="97.59" y2="67.73" xlink:href="#_Áåçûìÿííûé_ãðàäèåíò_162"/>
    <linearGradient id="_Áåçûìÿííûé_ãðàäèåíò_162-9" data-name="Áåçûìÿííûé ãðàäèåíò 162" x1="98.39" y1="71.48" x2="98.46" y2="76.63" xlink:href="#_Áåçûìÿííûé_ãðàäèåíò_162"/>
    <linearGradient id="_Áåçûìÿííûé_ãðàäèåíò_162-10" data-name="Áåçûìÿííûé ãðàäèåíò 162" x1="97.79" y1="65.14" x2="97.41" y2="76.72" xlink:href="#_Áåçûìÿííûé_ãðàäèåíò_162"/>
    <linearGradient id="_Áåçûìÿííûé_ãðàäèåíò_634-3" data-name="Áåçûìÿííûé ãðàäèåíò 634" x1="90.44" y1="38.24" x2="84.73" y2="46.09" xlink:href="#_Áåçûìÿííûé_ãðàäèåíò_634"/>
    <linearGradient id="_Áåçûìÿííûé_ãðàäèåíò_634-4" data-name="Áåçûìÿííûé ãðàäèåíò 634" x1="111.45" y1="38.07" x2="106.33" y2="45.1" xlink:href="#_Áåçûìÿííûé_ãðàäèåíò_634"/>
    <linearGradient id="_Áåçûìÿííûé_ãðàäèåíò_162-11" data-name="Áåçûìÿííûé ãðàäèåíò 162" x1="63.37" y1="61.96" x2="60.73" y2="48.95" xlink:href="#_Áåçûìÿííûé_ãðàäèåíò_162"/>
    <linearGradient id="_Áåçûìÿííûé_ãðàäèåíò_194" data-name="Áåçûìÿííûé ãðàäèåíò 194" x1="3650.83" y1="252.8" x2="3650.83" y2="310.11" gradientTransform="translate(3802.78 246.72) rotate(-176.19) scale(1 -1)" gradientUnits="userSpaceOnUse">
      <stop offset="0" stop-color="#ffaa79"/>
      <stop offset=".49" stop-color="#ffa27a"/>
      <stop offset="1" stop-color="#ff957c"/>
    </linearGradient>
    <linearGradient id="linear-gradient-3" x1="3655.84" y1="310.11" x2="3655.84" y2="170.92" gradientTransform="translate(3802.78 246.72) rotate(-176.19) scale(1 -1)" gradientUnits="userSpaceOnUse">
      <stop offset="0" stop-color="#d8659f"/>
      <stop offset=".27" stop-color="#db799b"/>
      <stop offset=".83" stop-color="#e4ae93"/>
      <stop offset="1" stop-color="#e7bf91"/>
    </linearGradient>
    <linearGradient id="linear-gradient-4" x1="120.07" y1="168.69" x2="149.05" y2="168.69" xlink:href="#linear-gradient"/>
    <linearGradient id="_Áåçûìÿííûé_ãðàäèåíò_194-2" data-name="Áåçûìÿííûé ãðàäèåíò 194" x1="166.61" y1="275.29" x2="132.3" y2="181.15" gradientTransform="matrix(1, 0, 0, 1, 0, 0)" xlink:href="#_Áåçûìÿííûé_ãðàäèåíò_194"/>
    <linearGradient id="_Áåçûìÿííûé_ãðàäèåíò_281-3" data-name="Áåçûìÿííûé ãðàäèåíò 281" x1="109.77" y1="183.37" x2="144.83" y2="183.37" gradientTransform="matrix(1, 0, 0, 1, 0, 0)" xlink:href="#_Áåçûìÿííûé_ãðàäèåíò_281"/>
    <linearGradient id="linear-gradient-5" x1="129.51" y1="168.08" x2="129.3" y2="184.26" gradientTransform="translate(29.89 -17.66) rotate(7.78)" gradientUnits="userSpaceOnUse">
      <stop offset="0" stop-color="#f4e8fa"/>
      <stop offset="1" stop-color="#fffaff"/>
    </linearGradient>
    <linearGradient id="_2" data-name="  2" x1="129.63" y1="194.78" x2="133.39" y2="103.83" gradientUnits="userSpaceOnUse">
      <stop offset="0" stop-color="#ffddbf"/>
      <stop offset="1" stop-color="#ffcca9"/>
    </linearGradient>
    <linearGradient id="linear-gradient-6" x1="149.19" y1="95.27" x2="116.94" y2="176.41" gradientUnits="userSpaceOnUse">
      <stop offset="0" stop-color="#dbcfe1"/>
      <stop offset="1" stop-color="#eae1f0"/>
    </linearGradient>
    <linearGradient id="_Áåçûìÿííûé_ãðàäèåíò_3649" data-name="Áåçûìÿííûé ãðàäèåíò 3649" x1="112.78" y1="140.17" x2="138.66" y2="140.17" gradientUnits="userSpaceOnUse">
      <stop offset="0" stop-color="#a097d0"/>
      <stop offset=".98" stop-color="#fff"/>
    </linearGradient>
    <linearGradient id="linear-gradient-7" x1="92.18" y1="239.89" x2="91.28" y2="231.52" gradientTransform="matrix(1, 0, 0, 1, 0, 0)" xlink:href="#linear-gradient-5"/>
    <linearGradient id="linear-gradient-8" x1="80.41" y1="190.98" x2="84.1" y2="101.63" xlink:href="#linear-gradient-6"/>
    <linearGradient id="linear-gradient-9" x1="108.21" y1="214.06" x2="90.38" y2="160.88" gradientUnits="userSpaceOnUse">
      <stop offset="0" stop-color="#8077b0"/>
      <stop offset=".98" stop-color="#dfdfdf"/>
    </linearGradient>
    <linearGradient id="linear-gradient-10" x1="90.68" y1="196.91" x2="87.95" y2="128.9" gradientUnits="userSpaceOnUse">
      <stop offset="0" stop-color="#6b629b"/>
      <stop offset=".98" stop-color="#cacaca"/>
    </linearGradient>
    <linearGradient id="_Áåçûìÿííûé_ãðàäèåíò_266" data-name="Áåçûìÿííûé ãðàäèåíò 266" x1="108.89" y1="237.17" x2="72.64" y2="178.61" gradientUnits="userSpaceOnUse">
      <stop offset="0" stop-color="#ffeadb"/>
      <stop offset="1" stop-color="#eb657c"/>
    </linearGradient>
    <linearGradient id="_Áåçûìÿííûé_ãðàäèåíò_3649-2" data-name="Áåçûìÿííûé ãðàäèåíò 3649" x1="87.29" y1="81.75" x2="87.29" y2="114.72" xlink:href="#_Áåçûìÿííûé_ãðàäèåíò_3649"/>
    <linearGradient id="linear-gradient-11" x1="79.26" y1="113.51" x2="80.93" y2="107.37" gradientUnits="userSpaceOnUse">
      <stop offset="0" stop-color="#a097d0"/>
      <stop offset=".68" stop-color="#a9a1d5"/>
    </linearGradient>
    <linearGradient id="linear-gradient-12" x1="80.38" y1="88.22" x2="79.76" y2="102.45" xlink:href="#linear-gradient-11"/>
    <linearGradient id="_Áåçûìÿííûé_ãðàäèåíò_248-2" data-name="Áåçûìÿííûé ãðàäèåíò 248" x1="82.63" y1="62.43" x2="78.27" y2="11.66" xlink:href="#_Áåçûìÿííûé_ãðàäèåíò_248"/>
    <linearGradient id="_Áåçûìÿííûé_ãðàäèåíò_2716" data-name="Áåçûìÿííûé ãðàäèåíò 2716" x1="65.54" y1="16.83" x2="69.81" y2="25.06" gradientUnits="userSpaceOnUse">
      <stop offset="0" stop-color="#ffeadb"/>
      <stop offset=".99" stop-color="#b060f4"/>
    </linearGradient>
    <linearGradient id="_Áåçûìÿííûé_ãðàäèåíò_2716-2" data-name="Áåçûìÿííûé ãðàäèåíò 2716" x1="72.19" y1="13.38" x2="76.46" y2="21.6" xlink:href="#_Áåçûìÿííûé_ãðàäèåíò_2716"/>
    <linearGradient id="_Áåçûìÿííûé_ãðàäèåíò_2716-3" data-name="Áåçûìÿííûé ãðàäèåíò 2716" x1="92.41" y1="2.87" x2="96.68" y2="11.1" xlink:href="#_Áåçûìÿííûé_ãðàäèåíò_2716"/>
    <linearGradient id="_Áåçûìÿííûé_ãðàäèåíò_2716-4" data-name="Áåçûìÿííûé ãðàäèåíò 2716" x1="65.54" y1="57.01" x2="61.04" y2="21.06" xlink:href="#_Áåçûìÿííûé_ãðàäèåíò_2716"/>
    <linearGradient id="_Áåçûìÿííûé_ãðàäèåíò_2716-5" data-name="Áåçûìÿííûé ãðàäèåíò 2716" x1="93.9" y1="52.88" x2="89.82" y2="20.36" xlink:href="#_Áåçûìÿííûé_ãðàäèåíò_2716"/>
    <linearGradient id="_Áåçûìÿííûé_ãðàäèåíò_2716-6" data-name="Áåçûìÿííûé ãðàäèåíò 2716" x1="69.95" y1="9.3" x2="92.45" y2="11.2" xlink:href="#_Áåçûìÿííûé_ãðàäèåíò_2716"/>
    <linearGradient id="_Áåçûìÿííûé_ãðàäèåíò_162-12" data-name="Áåçûìÿííûé ãðàäèåíò 162" x1="84.57" y1="90.24" x2="92.03" y2="90.24" xlink:href="#_Áåçûìÿííûé_ãðàäèåíò_162"/>
    <linearGradient id="_Áåçûìÿííûé_ãðàäèåíò_248-3" data-name="Áåçûìÿííûé ãðàäèåíò 248" x1="109.93" y1="60.08" x2="105.57" y2="9.32" xlink:href="#_Áåçûìÿííûé_ãðàäèåíò_248"/>
    <linearGradient id="_Áåçûìÿííûé_ãðàäèåíò_192-4" data-name="Áåçûìÿííûé ãðàäèåíò 192" x1="98.13" y1="87.95" x2="98.13" y2="16.15" gradientTransform="matrix(1, 0, 0, 1, 0, 0)" xlink:href="#_Áåçûìÿííûé_ãðàäèåíò_192"/>
    <radialGradient id="_Áåçûìÿííûé_ãðàäèåíò_183" data-name="Áåçûìÿííûé ãðàäèåíò 183" cx="97.41" cy="59.67" fx="97.41" fy="59.67" r="12.01" gradientUnits="userSpaceOnUse">
      <stop offset="0" stop-color="#e5658e"/>
      <stop offset="1" stop-color="#fff"/>
    </radialGradient>
    <linearGradient id="_Áåçûìÿííûé_ãðàäèåíò_2716-7" data-name="Áåçûìÿííûé ãðàäèåíò 2716" x1="98.13" y1="65.24" x2="98.13" y2="53.1" xlink:href="#_Áåçûìÿííûé_ãðàäèåíò_2716"/>
    <linearGradient id="_Áåçûìÿííûé_ãðàäèåíò_162-13" data-name="Áåçûìÿííûé ãðàäèåíò 162" x1="98.25" y1="70.69" x2="98.16" y2="60.96" xlink:href="#_Áåçûìÿííûé_ãðàäèåíò_162"/>
    <linearGradient id="linear-gradient-13" x1="72.39" y1="127.72" x2="61.93" y2="142.45" gradientTransform="translate(-27.07 3.33) rotate(-8.08)" xlink:href="#linear-gradient-5"/>
    <linearGradient id="linear-gradient-14" x1="43.78" y1="186.39" x2="47.35" y2="100.1" xlink:href="#linear-gradient-6"/>
    <linearGradient id="_Áåçûìÿííûé_ãðàäèåíò_3649-3" data-name="Áåçûìÿííûé ãðàäèåíò 3649" x1="65.68" y1="139.32" x2="65.03" y2="187.28" gradientTransform="translate(-27.07 3.33) rotate(-8.08)" xlink:href="#_Áåçûìÿííûé_ãðàäèåíò_3649"/>
    <linearGradient id="_Áåçûìÿííûé_ãðàäèåíò_401-8" data-name="Áåçûìÿííûé ãðàäèåíò 401" x1="61.08" y1="417.69" x2="65.74" y2="406.23" xlink:href="#_Áåçûìÿííûé_ãðàäèåíò_401"/>
    <linearGradient id="_Áåçûìÿííûé_ãðàäèåíò_401-9" data-name="Áåçûìÿííûé ãðàäèåíò 401" x1="56.44" y1="410.02" x2="61.05" y2="398.65" xlink:href="#_Áåçûìÿííûé_ãðàäèåíò_401"/>
    <linearGradient id="_Áåçûìÿííûé_ãðàäèåíò_401-10" data-name="Áåçûìÿííûé ãðàäèåíò 401" x1="113.21" y1="417.24" x2="118.69" y2="403.76" xlink:href="#_Áåçûìÿííûé_ãðàäèåíò_401"/>
    <linearGradient id="_Áåçûìÿííûé_ãðàäèåíò_401-11" data-name="Áåçûìÿííûé ãðàäèåíò 401" x1="117.21" y1="410.15" x2="120.29" y2="402.58" xlink:href="#_Áåçûìÿííûé_ãðàäèåíò_401"/>
    <clipPath id="clippath">
      <path class="cls-96" d="M88.45,51.81s.17-8.97-6.28-5.93c-2.35,1.11-3.91,3.3-4.72,4.72,.9,2.34,7.2,5.45,11,1.22Z"/>
    </clipPath>
    <linearGradient id="_Áåçûìÿííûé_ãðàäèåíò_938" data-name="Áåçûìÿííûé ãðàäèåíò 938" x1="82.14" y1="46.17" x2="82.29" y2="49.8" gradientUnits="userSpaceOnUse">
      <stop offset="0" stop-color="#5454a2"/>
      <stop offset=".98" stop-color="#6b6bc2"/>
    </linearGradient>
    <linearGradient id="_Áåçûìÿííûé_ãðàäèåíò_2716-8" data-name="Áåçûìÿííûé ãðàäèåíò 2716" x1="82.71" y1="52.36" x2="82.24" y2="48.82" xlink:href="#_Áåçûìÿííûé_ãðàäèåíò_2716"/>
    <clipPath id="clippath-1">
      <path class="cls-96" d="M101.19,50.78c-.12-.26,1.58-7.34,4.69-6.64s2.93,6.69,1.86,7.55-2.96,1.82-6.55-.9Z"/>
    </clipPath>
    <linearGradient id="_Áåçûìÿííûé_ãðàäèåíò_938-2" data-name="Áåçûìÿííûé ãðàäèåíò 938" x1="103.24" y1="40.95" x2="104.31" y2="49.57" xlink:href="#_Áåçûìÿííûé_ãðàäèåíò_938"/>
    <linearGradient id="_Áåçûìÿííûé_ãðàäèåíò_2716-9" data-name="Áåçûìÿííûé ãðàäèåíò 2716" x1="104.56" y1="50.9" x2="104.08" y2="47.28" xlink:href="#_Áåçûìÿííûé_ãðàäèåíò_2716"/>
    <linearGradient id="_Áåçûìÿííûé_ãðàäèåíò_2716-10" data-name="Áåçûìÿííûé ãðàäèåíò 2716" x1="35.53" y1="44.99" x2="75.82" y2="23.79" xlink:href="#_Áåçûìÿííûé_ãðàäèåíò_2716"/>
    <linearGradient id="_Áåçûìÿííûé_ãðàäèåíò_162-14" data-name="Áåçûìÿííûé ãðàäèåíò 162" x1="104.99" y1="50.39" x2="104.37" y2="45.76" xlink:href="#_Áåçûìÿííûé_ãðàäèåíò_162"/>
    <linearGradient id="_Áåçûìÿííûé_ãðàäèåíò_162-15" data-name="Áåçûìÿííûé ãðàäèåíò 162" x1="83.22" y1="52.63" x2="82.52" y2="47.28" xlink:href="#_Áåçûìÿííûé_ãðàäèåíò_162"/>
    <linearGradient id="_Áåçûìÿííûé_ãðàäèåíò_401-12" data-name="Áåçûìÿííûé ãðàäèåíò 401" x1="67.94" y1="432.07" x2="67.3" y2="452.17" xlink:href="#_Áåçûìÿííûé_ãðàäèåíò_401"/>
    <linearGradient id="_Áåçûìÿííûé_ãðàäèåíò_192-5" data-name="Áåçûìÿííûé ãðàäèåíò 192" x1="142.19" y1="157.58" x2="83.95" y2="92.93" gradientTransform="translate(45.87 -.27) rotate(31.78) scale(1 1.13)" xlink:href="#_Áåçûìÿííûé_ãðàäèåíò_192"/>
    <linearGradient id="_Áåçûìÿííûé_ãðàäèåíò_281-4" data-name="Áåçûìÿííûé ãðàäèåíò 281" x1="180.6" y1="163.63" x2="168.4" y2="143.99" gradientTransform="translate(45.87 -.27) rotate(31.78) scale(1 1.13)" xlink:href="#_Áåçûìÿííûé_ãðàäèåíò_281"/>
    <linearGradient id="_Áåçûìÿííûé_ãðàäèåíò_281-5" data-name="Áåçûìÿííûé ãðàäèåíò 281" x1="187.53" y1="150.77" x2="181.5" y2="141.05" gradientTransform="translate(45.87 -.27) rotate(31.78) scale(1 1.13)" xlink:href="#_Áåçûìÿííûé_ãðàäèåíò_281"/>
    <linearGradient id="_Áåçûìÿííûé_ãðàäèåíò_281-6" data-name="Áåçûìÿííûé ãðàäèåíò 281" x1="186" y1="153.89" x2="180.41" y2="144.89" gradientTransform="translate(45.87 -.27) rotate(31.78) scale(1 1.13)" xlink:href="#_Áåçûìÿííûé_ãðàäèåíò_281"/>
    <linearGradient id="_Áåçûìÿííûé_ãðàäèåíò_281-7" data-name="Áåçûìÿííûé ãðàäèåíò 281" x1="184.32" y1="157.84" x2="178.88" y2="149.08" gradientTransform="translate(45.87 -.27) rotate(31.78) scale(1 1.13)" xlink:href="#_Áåçûìÿííûé_ãðàäèåíò_281"/>
    <linearGradient id="_Áåçûìÿííûé_ãðàäèåíò_281-8" data-name="Áåçûìÿííûé ãðàäèåíò 281" x1="167.14" y1="164.26" x2="175.39" y2="154.63" gradientTransform="translate(45.87 -.27) rotate(31.78) scale(1 1.13)" xlink:href="#_Áåçûìÿííûé_ãðàäèåíò_281"/>
    <linearGradient id="linear-gradient-15" x1="50.55" y1="57.22" x2="56.82" y2="31.31" gradientTransform="translate(149.07 -21.8) rotate(-171.19) scale(1.08 -1.01) skewX(5.68)" xlink:href="#linear-gradient-6"/>
    <linearGradient id="_Áåçûìÿííûé_ãðàäèåíò_3649-4" data-name="Áåçûìÿííûé ãðàäèåíò 3649" x1="50.68" y1="60" x2="53" y2="49.15" gradientTransform="translate(146.11 -29.22) rotate(-175.6) scale(1.09 -1.01) skewX(5.01)" xlink:href="#_Áåçûìÿííûé_ãðàäèåíò_3649"/>
    <linearGradient id="_Áåçûìÿííûé_ãðàäèåíò_3649-5" data-name="Áåçûìÿííûé ãðàäèåíò 3649" x1="39.06" y1="54.47" x2="40.12" y2="40.99" gradientTransform="translate(146.11 -29.22) rotate(-175.6) scale(1.09 -1.01) skewX(5.01)" xlink:href="#_Áåçûìÿííûé_ãðàäèåíò_3649"/>
    <linearGradient id="_Áåçûìÿííûé_ãðàäèåíò_3649-6" data-name="Áåçûìÿííûé ãðàäèåíò 3649" x1="51.33" y1="58.74" x2="52.55" y2="43.19" gradientTransform="translate(146.11 -29.22) rotate(-175.6) scale(1.09 -1.01) skewX(5.01)" xlink:href="#_Áåçûìÿííûé_ãðàäèåíò_3649"/>
    <linearGradient id="_Áåçûìÿííûé_ãðàäèåíò_815" data-name="Áåçûìÿííûé ãðàäèåíò 815" x1="56.71" y1="37.48" x2="56.74" y2="37.13" gradientTransform="translate(146.11 -29.22) rotate(-175.6) scale(1.09 -1.01) skewX(5.01)" gradientUnits="userSpaceOnUse">
      <stop offset=".01" stop-color="#fff"/>
      <stop offset="1" stop-color="#9e93b7"/>
    </linearGradient>
    <linearGradient id="_Áåçûìÿííûé_ãðàäèåíò_3649-7" data-name="Áåçûìÿííûé ãðàäèåíò 3649" x1="70.3" y1="62.49" x2="71.64" y2="45.48" gradientTransform="translate(146.11 -29.22) rotate(-175.6) scale(1.09 -1.01) skewX(5.01)" xlink:href="#_Áåçûìÿííûé_ãðàäèåíò_3649"/>
    <linearGradient id="_Áåçûìÿííûé_ãðàäèåíò_136" data-name="Áåçûìÿííûé ãðàäèåíò 136" x1="68.51" y1="68.16" x2="75.28" y2="74.48" gradientTransform="translate(146.11 -29.22) rotate(-175.6) scale(1.09 -1.01) skewX(5.01)" gradientUnits="userSpaceOnUse">
      <stop offset="0" stop-color="#791d36"/>
      <stop offset=".98" stop-color="#a63321"/>
    </linearGradient>
    <linearGradient id="_Áåçûìÿííûé_ãðàäèåíò_1011" data-name="Áåçûìÿííûé ãðàäèåíò 1011" x1="26.36" y1="26.81" x2="34.12" y2="35.3" gradientTransform="translate(146.11 -29.22) rotate(-175.6) scale(1.09 -1.01) skewX(5.01)" gradientUnits="userSpaceOnUse">
      <stop offset=".01" stop-color="#5c86bd"/>
      <stop offset="1" stop-color="#000"/>
    </linearGradient>
    <linearGradient id="_Áåçûìÿííûé_ãðàäèåíò_1011-2" data-name="Áåçûìÿííûé ãðàäèåíò 1011" x1="46.22" y1="68.17" x2="56.55" y2="52.29" xlink:href="#_Áåçûìÿííûé_ãðàäèåíò_1011"/>
    <linearGradient id="_Áåçûìÿííûé_ãðàäèåíò_1011-3" data-name="Áåçûìÿííûé ãðàäèåíò 1011" x1="56.99" y1="33.23" x2="57.21" y2="35.38" xlink:href="#_Áåçûìÿííûé_ãðàäèåíò_1011"/>
    <linearGradient id="linear-gradient-16" x1="94.83" y1="133.47" x2="101.98" y2="133.47" xlink:href="#linear-gradient-11"/>
  </defs>
  <g class="cls-81">
    <g id="Capa_2" data-name="Capa 2">
      <g id="_0" data-name="0">
        <g>
          <path class="cls-90" d="M58.93,51.89c.89,13.17-15.63,16.57-20.96,31.73-1.59,4.52-2.64,11.4,.56,21.08-2.95-1.55-5.89-3.1-8.84-4.65-.47,2.11-.94,4.22-1.41,6.32-2.82-7.67-2.36-13.24-1.67-16.56,3.98-19.18,28.04-23.52,27.18-39.92-.17-3.15-1.25-6.79,.41-12,1.72-5.38,5.34-9.19,8.18-11.59,.52,.76,1.04,1.53,1.55,2.29-1.95,2.33-4.38,5.9-5.47,10.65-1.3,5.66,.23,8.97,.47,12.64Z"/>
          <path class="cls-89" d="M51.64,45.9c-4.42,11.25-21.83,10.04-33.09,21.44-3.36,3.4-7.14,8.91-7.92,17.8-2.24-2.02-4.48-4.05-6.72-6.07-1.3,1.65-2.61,3.3-3.91,4.95,.34-7.12,3.02-11.68,5.02-14.29,11.56-15.09,36.67-12.82,42.42-26.77,1.1-2.68,1.51-6,5.22-9.96,3.83-4.09,8.87-6.39,12.6-7.71,.2,.77,.39,1.53,.59,2.3-2.83,1.47-6.62,3.87-9.59,7.58-3.53,4.42-3.38,7.57-4.61,10.71Z"/>
          <path class="cls-92" d="M38.43,433.89s5.41-2.36,12.2-4.4c6.79-2.03,20.66-8.88,20.66-8.88,0,0-8.43-6.82-16.08-6.5-7.65,.32-17,14.27-16.78,19.78Z"/>
          <path class="cls-28" d="M38.43,433.89s5.41-2.36,12.2-4.4c6.79-2.03,20.66-8.88,20.66-8.88,0,0-8.43-6.82-16.08-6.5-7.65,.32-17,14.27-16.78,19.78Z"/>
          <path class="cls-64" d="M95.05,426.16s6.61-1.56,15.99-3.49c9.38-1.93,16.83-8.49,16.83-8.49,0,0-12.21-3.92-19.81-3.23-7.6,.69-13.01,15.21-13.01,15.21Z"/>
          <path class="cls-2" d="M95.05,426.16s6.61-1.56,15.99-3.49c9.38-1.93,16.83-8.49,16.83-8.49,0,0-12.21-3.92-19.81-3.23-7.6,.69-13.01,15.21-13.01,15.21Z"/>
          <path class="cls-107" d="M126.49,213.98c-.22,.44-40.82,5.93-57.04,4.59-16.22-1.34-17.39-6.73-17.39-6.73,0,0,35.32-11.93,50.92-10.47,15.61,1.46,23.5,12.6,23.5,12.6Z"/>
          <path class="cls-97" d="M40.08,417.17l2.57,24.81s15.4,1.71,17.54,1.71c13.69,.86,33.26-2.99,33.26-2.99,0,0-1.82-8.98-7.38-8.98s-14.76-1.92-18.61-6.42c-3.85-4.49-6.84-21.82-6.84-21.82l-20.53,13.69Z"/>
          <path class="cls-86" d="M93.45,440.69s-19.57,3.85-33.26,2.99c-2.14,0-17.54-1.71-17.54-1.71l-.18-1.78c7.29,.48,17.92,1.14,20.18,1.14,5.78-.15,12.2-.65,19.11-1.74,3.84-.6,7.47-1.33,10.87-2.12,.27,1.07,.55,2.14,.82,3.22Z"/>
          <path class="cls-97" d="M99.11,416.74l.86,24.38s44.06,.43,51.76,0c7.7-.43,30.58-3.64,30.58-3.64,0,0-2.57-8.13-6.42-8.13s-29.73,.21-35.29-1.5c-5.56-1.71-23.95-19.25-23.95-19.25l-17.54,8.13Z"/>
          <path class="cls-86" d="M182.31,437.49s-22.89,3.21-30.58,3.63c-7.7,.43-51.76,0-51.76,0l-.15-4.17c7.71,.51,41.69,2.7,51.05,2.14,10.58-.64,17.64-1.92,17.64-1.92,4.18-.92,8.36-1.84,12.54-2.77,.42,1.03,.84,2.06,1.26,3.09Z"/>
          <path class="cls-3" d="M182.31,437.49s-22.89,3.21-30.58,3.63c-7.7,.43-51.76,0-51.76,0l-.2-5.69c11.42,1.75,21.15,2.51,28.52,2.85,27.38,1.28,38.38-2.4,44.82-5.29,2.22-.99,3.99-1.94,5.16-2.59l4.04,7.09Z"/>
          <path class="cls-47" d="M126.64,417.67c-5.33-4.63-9.99-9.06-9.99-9.06l-17.54,8.13,.86,24.38s4.44,.04,10.75,.09c2-9.47,7.92-18.23,15.92-23.53Z"/>
          <path class="cls-45" d="M133.12,431.82c5.35,3.52,11.21,.7,17.36-2.86-4.41-.22-8.14-.57-9.88-1.11-.97-.3-2.34-1.09-3.93-2.18-3.98,.25-8.9,2.62-3.55,6.14Z"/>
          <path class="cls-4" d="M65.19,421.09c-2.69-6.75-4.57-17.62-4.57-17.62l-20.53,13.69,2.57,24.81s1.56,.17,3.75,.41c3.01-9.48,9.1-17.44,18.79-21.29Z"/>
          <path class="cls-89" d="M125.78,408.54c-.22-1.27-1.5-1.07-3.83-1.35-.06-.26-1.29-2-1.4-2.55-1.75-8.44-8.29-47.62-5.6-61.05,0-1.51,2.57-9.09,2.57-9.09l7.27-8.02s-3.42-14.12-2.99-29.94c.43-15.83,.86-101.8,.86-101.8l-36.36-.21-26.09,1.5s-11.34,35.72-11.34,39.99-5.35,64.8-8.77,75.07c-3.42,10.27-13.14,33.64-14.33,39.14-1.28,5.92,9.15,78.7,12.68,83.67,1.34-1.71,5.22-8.9,14.39-12.03,9.18-3.13,18.47-1.25,18.47-1.25,0,0-3.16-3.34-3.68-6.43-.2-1.2,.91-3.37,.91-4.09,0-1.75-2.93-3.96-5.08-4.78-4.05-18.53-6.25-45.96-6.25-52.32,0-9.41,2.99-18.39,2.99-18.39l5.99-5.99s12.76-44.9,20.72-70.41c1.42,26.5,3.39,63.05,3.66,66.56,.43,5.56-6.42,12.4-7.7,19.68-1.28,7.27,12.19,81.72,12.19,81.72,2.35-2.19,13.35-8.86,21.22-10.46,3.66-.74,7.98-1.86,11.6-1.52l-3.37-1.85s1.51-2.53,1.28-3.8Z"/>
          <path class="cls-33" d="M122.64,194.74s-.08,16.17-.2,35.78c-5.63-3.88-12.94-6.95-22.25-7.65-18.48-1.41-36.73-1.05-48.01-.43,1.29-4.51,2.78-9.47,4.12-13.86,2.14-6.99,3.9-12.55,3.9-12.55l26.09-1.5,36.36,.21Z"/>
          <path class="cls-26" d="M124.78,326.48l-7.27,8.02s0,0,0,.02c-.63,.71-17.63,20.11-17,33.03,.42,8.5,8.61,32.55,14.35,48.49-7.71,2.03-17.58,8.05-19.8,10.12,0,0-13.47-74.44-12.19-81.71,1.28-7.28,8.12-14.12,7.69-19.68-.26-3.51-2.24-40.07-3.66-66.57,0,0-16.54-9.36-19.76-1.66-3.21,7.7-13.79,63.2-11.23,68.01,2.57,4.81,10.27,4.06,10.27,4.06l-5.98,5.99s-1.13,3.37-2,8.16c-6.12,.65-18.96,2.78-18.96,9.37,0,7.33,8.5,54.4,11.7,70.45-7.82,3.4-11.26,9.71-12.49,11.3-3.53-4.97-13.96-77.76-12.68-83.67,1.19-5.5,10.91-28.87,14.33-39.14,3.42-10.27,8.77-70.79,8.77-75.08,0-2.58,4.16-16.71,7.43-27.44,18.72,.28,65.39-4,65.39-4l.32,36.25-19.57-8.02s6.42,68.98,8.02,83.09c1.6,14.11,14.33,10.59,14.33,10.59Z"/>
          <path class="cls-63" d="M22.6,159.45s3.76,2.6,15.52,5.92c11.76,3.32,18,4.23,18,4.23,0,0,3.08-18.48-3.32-23.55-15.48-12.26-30.2,13.38-30.19,13.4Z"/>
          <path class="cls-88" d="M48.6,109.75c-.21,.05-.41,.11-.62,.16-3.08,.83-7.51,1.94-9.7,4.46-.94,1.08-1.26,3.22-1.7,4.59-.53,1.65-1.03,3.31-1.51,4.97-2.51,8.6-4.31,17.37-6.74,25.99-2.15,7.65-9.05,42.76-5.49,46.57s18.51,4.07,19.66,1.53c1.15-2.54,29.38-76.1,29.38-76.1-1.99-1.71-3.98-3.43-5.97-5.14-1.73-1.49-3.4-3.18-5.19-4.57-1.66-1.29-4.14-2.06-6.15-2.58-.74-.19-1.5-.35-2.27-.39-1.25-.06-2.49,.18-3.71,.49Z"/>
          <path class="cls-32" d="M60.85,150.65c-3.3,8.55-6.85,17.78-9.95,25.8l-6.34,4.8c.2-.31,3.67-5.88,1.99-12.1-1.19-4.44-13.97-3.96-21.65-3.26,1.29-7.04,2.66-13.25,3.43-15.98,.74-2.65,2.4-10.02,4.62-18.37,10.92-.11,24.58-.21,25.27-.02,.71,.18,1.82,10.64,2.62,19.11Z"/>
          <path class="cls-114" d="M107.43,15.32s-11.42,.77-11.42,1.74c0,.4-36.82,27.9-36.82,27.9,0,0,11.68,24.82,11.66,27.21l17.14-3.14s20.69-19.17,20.69-18.93c0,.64,2.3-6.9,3.9-15.56,1.6-8.66-5.15-18.42-5.15-19.22Z"/>
          <path class="cls-98" d="M69.87,58.38s2.33,24.35,.64,30.7c-12.03,8.95-27.95,18.85-27.95,18.85,0,0,22.23,11.65,51.24,8.47,3.43-.38,6.84-.89,10.21-1.64,3.95-.88,7.92-2.06,11.5-4,1.16-.63,2.28-1.34,3.3-2.17,.55-.45,1.12-.83,1.24-1.55,.25-1.5,0-3.07-.67-4.42-.33-.68-.72-1.4-1.43-1.69-.56-.23-1.13-.47-1.69-.7-4.26-1.76-8.51-3.54-12.74-5.36-1.71-.74-3.42-1.48-5.11-2.26-.64-.29-1.82-.62-2.28-1.19-2.12-2.62-3.96-20.36-3.96-20.36l-22.3-12.67Z"/>
          <path class="cls-23" d="M94.34,85.87c-1.27-6.12-2.17-14.82-2.17-14.82l-22.3-12.67s1.58,16.53,1.19,25.91c7.75-5.65,15.6-1.65,23.28,1.59Z"/>
          <path class="cls-41" d="M122.4,103.51c-.04,.2-.1,.42-.2,.68h0c-.12,.34-.29,.73-.54,1.15-.42,.75-1.07,1.62-2.04,2.53-.19,.18-.39,.36-.61,.55-.04,.03-.08,.06-.12,.09h0s0,.02-.02,.02c-.02,.02-.05,.04-.07,.06-.24,.19-.48,.38-.72,.56-.13,.09-.26,.19-.4,.28-.06,.04-.12,.09-.19,.13-.09,.07-.19,.13-.29,.19-.52,.34-1.08,.68-1.7,1.01-.45,.24-.9,.47-1.36,.69-.36,.18-.73,.35-1.1,.5-.01,.01-.03,.01-.04,.02-.2,.08-.4,.17-.61,.25-.88,.37-1.85,.72-2.89,1.06-.53,.17-1.07,.34-1.64,.5-1.88,.55-4,1.05-6.39,1.5-.35,.07-.7,.13-1.06,.19-.89,.16-1.81,.3-2.77,.44-.42,.06-.84,.12-1.26,.18-.83,.11-1.69,.21-2.58,.31-29.01,3.17-51.25-8.47-51.25-8.47,0,0,4.84-3.01,11.19-7.2,.85-.57,1.73-1.15,2.63-1.75,.63-.42,1.27-.85,1.92-1.29,.52-.36,1.05-.71,1.58-1.07,.4-.27,.79-.54,1.19-.82,.57-.39,1.14-.78,1.71-1.18,.75-.52,1.5-1.05,2.25-1.58s1.5-1.06,2.24-1.59c.37-.27,.74-.53,1.1-.8h0c2.38,4.16,6.16,7.36,10.28,9.45,10.02,5.08,22.03,3.56,20.64-6.77h0c0-.12-.03-.24-.05-.36,0-.02-.01-.04-.01-.06,5.24,2.29,13.93,5.95,19.08,8.12,.37,.15,.71,.3,1.04,.44,.53,.22,1.01,.42,1.42,.59,0,0,0,.01,.02,.01,.48,.42,1.03,.9,1.62,1.44Z"/>
          <path class="cls-91" d="M107.76,50.1c.25-.62,7.73-5.74,10.48-5.36,2.74,.37,.87,10.73-1.87,13.22-2.74,2.49-9.48,2.74-9.48,2.74l.87-10.6Z"/>
          <path class="cls-60" d="M107.76,50.1c.25-.62,7.73-5.74,10.48-5.36,2.74,.37,.87,10.73-1.87,13.22-2.74,2.49-9.48,2.74-9.48,2.74l.87-10.6Z"/>
          <path class="cls-19" d="M108.25,53.35s5.73-6.84,7.94-5.87c2.21,.97-.21,6.49-.21,6.49,0,0,1.24-5.25-.76-4.7-2,.55-3.94,3.59-3.94,3.59,0,0,2.9-2.63,3.11-.35,.21,2.28-3.66,4.21-3.66,4.21,0,0-.48-3.73-2.49-3.39Z"/>
          <path class="cls-108" d="M70.71,62.5c4.38,7.84,13.01,18.75,19.76,20.57,4.52,1.22,15.91,.59,16.53-1.91,.62-2.49,4.49-23.13,4.72-24.96s-1.85-4.35-2.1-8.22c-.25-3.87,2.37-10.48,2-10.48-.16,0-1.28-3.95-2.22-8.17-1.21-5.42-2.58-11.68-6.01-14.91-6.11-5.74-34.18-10.48-40.29,12.47-1.51,5.67-1.21,11.03-.28,15.47,1.47,7.01,5.27,15.43,7.89,20.13Z"/>
          <path class="cls-48" d="M109.68,67.57c-1.12,5.97-2.34,12.28-2.67,13.59-.62,2.5-12.01,3.13-16.53,1.9-6.75-1.82-15.39-12.72-19.77-20.56-2.62-4.7-6.42-13.12-7.89-20.13-.93-4.44-1.23-9.8,.28-15.47,6.11-22.95,34.17-18.21,40.29-12.48,2.45,2.3,3.85,6.15,4.88,10.13-1.4-4.95-5.7-7.87-10.36-9.05-.62-.16-2.59,2.26-2.59,2.26,0,0-3.03-1.79-4.5-1.54-12.72,2.23-17.27,13.6-17.27,13.6,1.68,3.45,3.26,10.58,2.73,10.34,4.17-3.05,14.99-.43,14.99-.43,0,0,.89,7.51-.55,12.88-1.44,5.37-14.2,1.51-14.52,3.67-.17,1.12,.49,4.93,3.85,11.31,3.14,5.95,10.17,13.8,10.91,13.96,1.53,.32,3.61-4.74,7.86-5.13,4.24-.4,5.61,3.85,7.14,3.77,1.52-.08,4.73-18,3.72-12.61Z"/>
          <path class="cls-43" d="M77.46,50.73s1.67,3.76,7.1,3.65c3.04-.06,3.89-2.57,3.89-2.57,0,0-1.18-8.13-5.32-8.21-4.14-.08-5.78,7.19-5.67,7.13Z"/>
          <path class="cls-11" d="M111.61,54.93h0c-1.71,2.49-9.53,.13-11.34-3.79-1.85-4.01-.48-11.23-.24-11.39l11.09-.07c-.65,2.27-1.64,5.84-1.49,8.29,.2,3.05,1.53,5.26,1.97,6.95Z"/>
          <path class="cls-42" d="M101.44,51.08s1.44,2.75,4.09,2.22,2.89-2.3,2.97-2.65c.08-.35-.86-9.62-3.45-9.14-2.59,.48-3.61,9.57-3.61,9.57Z"/>
          <path class="cls-109" d="M101.19,50.78c-.12-.26,1.58-7.34,4.69-6.64s2.93,6.69,1.86,7.55-2.96,1.82-6.55-.9Z"/>
          <path class="cls-84" d="M66.47,50.72c-.37,0-12.97-8.36-13.47-2.37-.5,5.99,8.73,13.72,10.48,13.97,1.75,.25,6.24-1.75,6.24-1.75l-3.24-9.86Z"/>
          <path class="cls-29" d="M66.47,50.72c-.2,0-3.9-2.39-7.37-3.7,3.83,2.1,6.27,5.49,7.97,8.89,.44,1.75,.67,3.69,.36,5.56,1.26-.45,2.28-.9,2.28-.9l-3.24-9.86Z"/>
          <path class="cls-101" d="M88.45,51.81s.17-8.97-6.28-5.93c-2.35,1.11-3.91,3.3-4.72,4.72,.9,2.34,7.2,5.45,11,1.22Z"/>
          <path class="cls-69" d="M91.5,40.79s-.64-4.17-1.76-5.29-.24,3.61-.24,3.61c0,0-2.33-3.53-3.21-3.61-.88-.08,.64,2.65,.64,2.65,0,0-4.81-2.49-7.3-1.04-2.49,1.44-5.21,6.9-4.97,6.9,.12,0,3.26-1.94,7.38-2.73,4.24-.81,9.46-.48,9.46-.48Z"/>
          <path class="cls-104" d="M99.7,40.32s.32-3.13,1.6-4.25c1.28-1.12,.16,3.05,.16,3.05,0,0,.24-1.92,1.68-2.73,1.44-.8-.24,2.33-.24,2.33,0,0,4.09-3.93,6.34-3.61,2.25,.32,3.29,3.37,3.29,3.37l-1.52,2.65c-2.94-1.14-6.52-1.14-11.31-.8Z"/>
          <g>
            <path class="cls-18" d="M91.32,66.94s5.31-1.78,6.75-1.82c1.44-.04,5.82,.9,5.82,.9,0,0-1.41,.99-4.97,1.38-5.11,.5-7.6-.46-7.6-.46Z"/>
            <path class="cls-103" d="M90.45,66.78c.71-.02,.89,.25,2.12,.39,1.18,.14,2.24,.28,3.47,.32,1.06,.04,2.33-.02,2.87-.08,1.16-.14,2.55-.46,3.79-.85,.98-.31,1.34-.75,1.51-.65,.17,.1,0,.75-.63,.63-.63-.13-3.25,.98-4.72,1.13s-5.45-.4-6.85-.25c-1.39,.15-2.28-.6-1.58-.62Z"/>
            <path class="cls-58" d="M98.33,71.98c-.84,.17-3.21,3.84-2.55,4.09,.67,.25,5.13-.08,5.43-.79,.29-.71-2.67-3.34-2.88-3.3Z"/>
            <path class="cls-30" d="M92.28,67.1s3.16,4.23,6.02,4.14,4.89-4.8,4.89-4.8c-3.14,.97-7.25,1.51-10.92,.66Z"/>
          </g>
          <path class="cls-76" d="M77.35,50.69s2.92-4.62,6.66-5.04c3.74-.42,3.88,2.59,3.88,2.59l.71-2.55c-.74-.59-2.32-1.55-4.49-1.5-4.64,.12-6.75,6.5-6.75,6.5Z"/>
          <path class="cls-83" d="M101.13,50.24s1.57-5.63,4.06-6.09,3.15,3.32,3.15,3.32l1.15-2.33s-1.31-2.83-4.06-2.09c-4.29,1.16-4.29,7.2-4.29,7.2Z"/>
          <path class="cls-37" d="M66.86,56.53s-8.5-8.98-10.02-7.74c-1.52,1.24,1.59,6.91,1.59,6.91,0,0-1.38-3.52,.21-3.94,1.59-.41,4.97,3.45,4.97,3.45,0,0-2.69-1.31-2.76,1.04-.07,2.35,4.77,2.49,4.77,2.49,0,0-3.18-1.59,1.24-2.21Z"/>
          <g>
            <path class="cls-94" d="M151.09,277.38s.67,16.63-.22,19.43c-.85,2.67-7.27,9.24-9.48,14.33-.1,.23-.19,.46-.27,.68-1.89,5.17-2.2-15.69,.34-20.92,1.23-2.52-2.06-6.1-2.06-6.1l-2.87-3.53,.46-6.84s4.67-2.37,5.52-2.32c.84,.06,8.59,5.28,8.59,5.28Z"/>
            <path class="cls-82" d="M144.04,256.5c.19-.04,.38-.05,.56-.05,.5-.02,1.01-.03,1.51-.05,.33-.01,.68-.02,.98,.13,1.14,.54,1.44,2.14,1.77,3.37,.45,1.68,.89,3.36,1.31,5.05,.47,1.92,1.14,4.03,1.2,6.07,.16,6.05-1.55,17.56-2.52,20.85-.97,3.29-5.98,13.46-8.21,21.59l-.93-.67c-.62-.45-1.01-1.22-1.06-2.08-.12-2.29-.16-6.9,1.13-9.83,1.77-4.02,5.03-6.26,6.15-13.23,1.12-6.97-5.75-12.37-7.05-9.97-3.2,5.92,6.13,9.6-2.07,17.55l-1.19-1.34s2-6.13,.61-9.13c-1.39-3-4.56-9.02-3.36-11.63,1.11-2.4,3.6-4.23,5.26-6.05,1.06-1.17,2.13-2.37,3-3.74,.34-.53,.74-1.13,.94-1.76,.29-.95,.17-2.01,.42-3.01,.21-.86,.63-1.75,1.35-2.02,.06-.02,.12-.04,.18-.05Z"/>
            <path class="cls-27" d="M138.69,282.93c.89,2.59,2.46,5.16,.94,8.51,0-.18,.17-5.12-2.14-7.04-1.66-1.38-.59,.27-.78,2.6-.04-.82-.18-1.6-.47-2.23-1.17-2.52-3.56-7.14-3.59-10.11,.2,.77,1.85,6.66,6.05,8.27Z"/>
          </g>
          <path class="cls-111" d="M120.07,176.73s7.9,.65,16.65-1.83c8.76-2.47,12.33-6.52,12.33-6.52,0,0-11.78-11.75-18.76-6.45-6.98,5.31-10.22,14.79-10.22,14.79Z"/>
          <path class="cls-71" d="M153.9,213.51c-1.12,11.19-4.47,44.47-4.77,47.41,0,.14-.02,.21-.02,.21l-8.61,3.39-.19,.08s-.01-.02-.01-.03v-.02h-.01c-.49-1.84-13.02-49.09-12.08-57.35,.11-.99,.2-1.94,.28-2.84,.64-7.86-.07-12.51-.07-12.51,0,0-.77-1.85-2-4.83-.28-.68-.58-1.42-.92-2.22h0c-.21-.54-.44-1.09-.68-1.66-.59-1.43-1.23-2.99-1.9-4.63-.23-.56-.46-1.13-.7-1.71-.17-.42-.35-.85-.52-1.28-.03-.07-.06-.14-.09-.22h0c-.16-.39-.32-.78-.48-1.17-.14-.35-.29-.71-.44-1.07-.68-1.67-1.37-3.37-2.06-5.07-1.25-3.11-2.49-6.2-3.63-9.08-.64-1.59-1.23-3.11-1.79-4.53h0c-.07-.19-.14-.37-.21-.54-.08-.2-.15-.4-.23-.59-.36-.94-.7-1.83-1.01-2.64-.66-1.74-1.19-3.18-1.53-4.22,0,0-.01,0-.01,0-.31-.91-.47-1.51-.46-1.69v-.02c.04-.24,.26-1.2,.63-2.69,.05-.21,.11-.44,.16-.67,.05-.19,.1-.38,.14-.58,.1-.4,.21-.83,.32-1.27,.09-.35,.18-.71,.27-1.08,.03-.11,.05-.22,.08-.33,.12-.49,.25-1,.38-1.52,.14-.53,.27-1.08,.41-1.63,.21-.84,.43-1.72,.66-2.62,.08-.3,.16-.6,.23-.9,.25-.99,.51-2.01,.77-3.04,.06-.24,.12-.48,.19-.72,.16-.64,.33-1.29,.49-1.94,.35-1.37,.71-2.75,1.06-4.13,.43-1.69,.85-3.36,1.27-4.97,.46-1.8,.9-3.52,1.31-5.11,.26-1.03,.51-2.01,.75-2.91,1-3.88,1.66-6.45,1.66-6.45,0,0,2.44,2.82,5.68,7.93,1.54,2.42,3.25,5.36,4.96,8.76,.94,1.84,1.87,3.82,2.78,5.93,1.2,2.8,2.35,5.81,3.39,9.03,.6,1.84,1.16,3.75,1.66,5.72,.77,2.97,1.42,6.08,1.92,9.32,.12,.77,.23,1.55,.33,2.33,.12,.96,.25,1.9,.37,2.81,.05,.4,.1,.8,.16,1.19,.11,.86,.22,1.69,.34,2.5,.12,.82,.23,1.61,.34,2.39,.15,1,.29,1.97,.43,2.9,.03,.15,.05,.31,.07,.46,.02,.08,.03,.15,.04,.23l.18,1.17c.1,.59,.19,1.18,.28,1.75,.06,.33,.11,.66,.17,.98,.02,.16,.05,.32,.08,.47,.01,.09,.03,.18,.04,.26,.17,.98,.33,1.92,.49,2.82,.05,.25,.09,.49,.13,.74,.06,.31,.12,.61,.17,.91,.1,.51,.19,1,.28,1.47,2.03,10.56,3.45,13.74,3.45,13.74,0,0,6.78,13.88,5.62,25.59Z"/>
          <path class="cls-7" d="M140.5,264.52s0,.08,0,.11l-.2-.02h0s-.01-.03-.01-.04c0,0,0-.01-.01-.02-.49-1.84-13.02-49.09-12.08-57.35,.11-.99,.2-1.94,.28-2.84,.64-7.86-.08-12.51-.08-12.51,0,0-.77-1.85-1.99-4.83-.29-.68-.59-1.43-.92-2.22h0c-.21-.54-.44-1.09-.68-1.66-.59-1.43-1.23-2.99-1.9-4.63-.23-.56-.46-1.13-.7-1.71-.17-.42-.35-.85-.52-1.28-.03-.07-.06-.14-.09-.22h0c-.16-.39-.32-.78-.48-1.17-.14-.35-.29-.71-.44-1.07-.68-1.67-1.37-3.37-2.06-5.07-1.25-3.11-2.49-6.2-3.63-9.08-.64-1.59-1.23-3.11-1.79-4.53h0c-.07-.19-.14-.37-.2-.54-.08-.2-.16-.4-.24-.59-.36-.94-.7-1.83-1.01-2.64-.66-1.74-1.18-3.19-1.53-4.22,0,0-.01,0-.01,0-.3-.92-.46-1.51-.45-1.69v-.02c.03-.27,.32-1.49,.78-3.36,.05-.19,.1-.38,.14-.58,.1-.4,.21-.83,.32-1.27,.09-.35,.18-.71,.27-1.08,.03-.11,.05-.22,.08-.33,.12-.49,.25-1,.38-1.52,.14-.53,.27-1.08,.41-1.63,.22-.84,.44-1.72,.66-2.62,.08-.3,.16-.6,.23-.9,.26-.99,.51-2.01,.78-3.04,.06-.24,.12-.48,.18-.72,.16-.64,.33-1.29,.49-1.94,.35-1.37,.71-2.75,1.06-4.13,.43-1.69,.85-3.36,1.27-4.97,.46-1.8,.9-3.52,1.31-5.11,.26-1.03,.51-2.01,.75-2.91,1-3.88,1.66-6.45,1.66-6.45,0,0,2.44,2.82,5.68,7.93,1.54,2.42,3.25,5.36,4.96,8.76,.94,1.84,1.87,3.82,2.78,5.93,1.2,2.8,2.35,5.81,3.39,9.03,.6,1.84,1.16,3.75,1.66,5.72,.77,2.97,1.42,6.08,1.92,9.32,.12,.77,.23,1.55,.33,2.33,.12,.96,.25,1.9,.37,2.81,.05,.4,.1,.8,.16,1.19,.11,.86,.22,1.69,.34,2.5,.12,.82,.23,1.61,.34,2.39,.15,1,.29,1.97,.43,2.9,.03,.15,.05,.31,.07,.46,.02,.08,.03,.15,.04,.23l.18,1.17c.1,.59,.19,1.18,.28,1.75,.06,.33,.11,.66,.16,.98h0c.02,.16,.05,.31,.07,.47,.02,.09,.03,.17,.05,.26,.17,.98,.33,1.92,.49,2.82,.04,.25,.09,.5,.14,.74,.05,.31,.11,.62,.16,.91,.1,.51,.19,1,.28,1.47-4.9,.73-12.3,2.22-11.98,5.37,.45,4.6,2.82,12.47,3.13,13.38,.28,.78,3.65,57.02,4.51,71.37,0,.08,.01,.15,.01,.22Z"/>
          <path class="cls-93" d="M120.07,176.73s1.14-13.45,9.61-15.02c8.47-1.57,19.38,6.67,19.38,6.67-.82,.84-1.64,1.5-2.47,2.04l1.35-1.79s-4.48-1.64-13.06,.19c-8.58,1.83-14.2,7.66-14.2,7.66l1.42,.31-2.02-.06Z"/>
          <path class="cls-116" d="M149.05,168.38c-1.85-.45-3.65-.74-5.41-.87h0c-1.7-.14-3.35-.13-4.97,.03-.86,.07-1.71,.19-2.54,.35-.83,.15-1.66,.34-2.47,.59-.41,.1-.81,.23-1.21,.37-.8,.26-1.6,.57-2.38,.92h-.01c-.39,.18-.78,.36-1.17,.56-.28,.14-.56,.28-.84,.44-.28,.15-.57,.31-.87,.48-1.61,.93-3.19,2.04-4.72,3.32-.27,.22-.53,.45-.8,.69-.02,0-.03,.02-.04,.03h0c-.26,.23-.52,.47-.78,.71-.26,.23-.52,.48-.77,.73l-3.44-8.42-3.7-9.07-.14-.34,.43-4.52h0s.05-.58,.05-.58l.94-9.78,.59-6.18,.94-9.8,.63-6.62,.46-4.84,.47-4.97,.2-2.05,.57-5.95,.24-2.49v-.09l.11-1.06v-.04s.01,.03,.02,.05c0,0,0,.01,0,.01,.14,.28,1.02,.96,2.32,2.07,0,0,0,.01,.02,.01,.48,.42,1.03,.9,1.62,1.44,.12,.12,.25,.24,.38,.36,1.58,1.5,3.43,3.42,5.25,5.83,1.82,2.41,3.62,5.31,5.1,8.72,.3,.69,.59,1.41,.86,2.14,.43,1.16,.89,2.46,1.39,3.88,.93,2.69,1.95,5.8,3.02,9.1,.59,1.85,1.2,3.75,1.8,5.68,.96,3.05,1.92,6.15,2.83,9.13,.53,1.7,1.03,3.36,1.51,4.95,1.06,3.48,2.01,6.63,2.75,9.14,1.09,3.64,1.76,5.94,1.76,5.94Z"/>
          <path class="cls-80" d="M149.05,168.38c-1.85-.45-3.65-.74-5.41-.87h0c-1.7-.14-3.35-.13-4.97,.03-.86,.07-1.71,.19-2.54,.35-.83,.15-1.66,.34-2.47,.59-.41,.1-.81,.23-1.21,.37-.8,.26-1.6,.57-2.38,.92h-.01c-.39,.18-.78,.36-1.17,.56-.28,.14-.56,.28-.84,.44-.28,.15-.57,.31-.87,.48-1.61,.93-3.19,2.04-4.72,3.32-.27,.22-.53,.45-.8,.69-.02,0-.03,.02-.04,.03h0c-.26,.23-.52,.47-.78,.71-.26,.23-.52,.48-.77,.73l-3.44-8.42-3.7-9.07-.14-.34,.43-4.52h0s.05-.58,.05-.58l.94-9.78,.59-6.18,.94-9.8,.63-6.62,.46-4.84,.47-4.97,.2-2.05,.57-5.95,.24-2.49v-.09l.11-1.06v-.04s.01,.03,.02,.05c0,0,0,.01,0,.01,.14,.28,1.02,.96,2.32,2.07,0,0,0,.01,.02,.01,.48,.42,1.03,.9,1.62,1.44,.12,.12,.25,.24,.38,.36,1.58,1.5,3.43,3.42,5.25,5.83,1.82,2.41,3.62,5.31,5.1,8.72,.3,.69,.59,1.41,.86,2.14,.43,1.16,.89,2.46,1.39,3.88,.93,2.69,1.95,5.8,3.02,9.1,.59,1.85,1.2,3.75,1.8,5.68,.96,3.05,1.92,6.15,2.83,9.13,.53,1.7,1.03,3.36,1.51,4.95,1.06,3.48,2.01,6.63,2.75,9.14,1.09,3.64,1.76,5.94,1.76,5.94Z"/>
          <g>
            <path class="cls-78" d="M133.13,118.42c-.65,.13-1.3,.25-1.95,.38-3.38,.65-6.72,1.26-10.01,1.81-1.62,.29-3.22,.55-4.81,.81-.27,.04-.54,.09-.81,.13,.43-1.69,.85-3.36,1.27-4.97l.47-4.97h.01c.28-.05,.55-.09,.83-.14,.4-.07,.81-.14,1.22-.21,2.26-.38,4.55-.79,6.87-1.22,.6-.11,1.2-.23,1.81-.34,1.82,2.41,3.62,5.31,5.1,8.72Z"/>
            <path class="cls-78" d="M138.4,133.54c-.35,.08-.7,.15-1.05,.22-4.17,.86-8.28,1.65-12.31,2.37-3.47,.62-6.89,1.19-10.25,1.71-1.18,.19-2.35,.37-3.51,.54,.03-.11,.05-.22,.08-.33,.12-.49,.25-1,.38-1.52,.14-.53,.27-1.08,.41-1.63,.21-.84,.43-1.72,.66-2.62,.08-.3,.16-.6,.23-.9,.25-.99,.51-2.01,.77-3.04h0c.63-.09,1.27-.19,1.91-.3,2.26-.36,4.55-.75,6.87-1.16,3.63-.63,7.33-1.33,11.09-2.09,.09-.02,.18-.04,.27-.06,.48-.09,.95-.19,1.42-.29,.93,2.69,1.95,5.8,3.02,9.1Z"/>
            <path class="cls-78" d="M143.03,148.35c-.7,.15-1.4,.3-2.1,.45-.15,.03-.31,.07-.46,.1-3.48,.73-6.92,1.41-10.3,2.04-5.78,1.08-11.42,2.03-16.9,2.86h0c-.08,0-.17,.03-.25,.04h0c-.08-.2-.15-.4-.23-.59-.36-.94-.7-1.83-1.01-2.64-.66-1.74-1.19-3.18-1.53-4.22,0,0-.01,0-.01,0-.31-.91-.47-1.51-.46-1.69h0c1.46-.22,2.94-.44,4.43-.67,4.12-.64,8.33-1.35,12.63-2.14,2.59-.48,5.21-.98,7.86-1.51,1.45-.29,2.89-.59,4.32-.89,.4-.08,.79-.17,1.19-.26,.96,3.05,1.92,6.15,2.83,9.13Z"/>
            <path class="cls-78" d="M147.29,162.44c-1.43,.32-2.87,.64-4.32,.94-.08,.03-.16,.04-.24,.06-.54,.12-1.08,.23-1.62,.34-.21,.05-.43,.1-.64,.14-1.19,.25-2.38,.5-3.56,.74-3.88,.78-7.69,1.5-11.44,2.17-.88,.15-1.76,.31-2.63,.45-1.41,.25-2.82,.48-4.21,.71-.67,.11-1.34,.22-2.01,.32l-3.7-9.07c.69-.11,1.38-.21,2.08-.33,5.61-.87,11.39-1.88,17.32-3.05,.78-.15,1.58-.31,2.37-.47,2.34-.47,4.66-.95,6.94-1.45,.98-.21,1.95-.42,2.91-.64,1.06,3.48,2.01,6.63,2.75,9.14Z"/>
          </g>
          <path class="cls-44" d="M138.66,167.54c-.86,.08-1.7,.2-2.54,.35-.83,.16-1.66,.35-2.47,.59-.41,.11-.81,.24-1.21,.37-.81,.27-1.6,.58-2.38,.92h-.01c-.39,.18-.78,.37-1.17,.56-.28,.14-.56,.28-.84,.44-.29,.15-.58,.31-.87,.48-1.61,.93-3.19,2.04-4.72,3.32-.27,.22-.54,.45-.8,.69-.02,0-.03,.02-.04,.03h0c-.26,.23-.52,.46-.78,.71-.26,.23-.52,.48-.77,.73l-3.44-8.42-3.7-9.07-.14-.34,.43-4.52h0s.06-.58,.06-.58l.93-9.78,.59-6.18,.94-9.8,.63-6.62,.46-4.84,.48-4.97,.19-2.05,.57-5.95c.26,1.64,.54,3.3,.82,4.95,.15,.9,.31,1.8,.47,2.7,.56,3.11,1.16,6.23,1.82,9.35,.45,2.09,.92,4.18,1.43,6.27,.73,3.1,1.55,6.19,2.44,9.25,.56,1.93,1.16,3.85,1.79,5.75,1.01,3.07,2.12,6.1,3.34,9.06,.68,1.66,1.4,3.3,2.15,4.92,.73,1.59,1.5,3.16,2.32,4.7,.22,.44,.46,.88,.7,1.32,.5,.94,1.03,1.87,1.57,2.78,.56,.97,1.15,1.93,1.75,2.88Z"/>
          <path class="cls-99" d="M126.49,213.98s-4.12-14.28-28.34-13.15c-24.22,1.12-46.09,11.01-46.09,11.01,.88,1.52,2.37,2.82,4.33,3.96,0,0-2.73-2.09-2.57-3.15,.16-1.07,36.74-3.55,50.31-2.91,17.11,.8,21.49,3.69,21.49,3.98,0,.29-2.28,.85-2.28,.85,1.23-.18,2.69-.3,3.13-.58Z"/>
          <path class="cls-115" d="M132.48,132.71c-.05,.56-.12,1.19-.21,1.89-.35,2.57-.97,6-1.72,9.87-.58,2.96-1.23,6.19-1.9,9.5-.64,3.24-1.31,6.55-1.92,9.78-.54,2.83-1.04,5.6-1.46,8.2-.6,3.67-1.06,7.01-1.26,9.71-.04,.7-.08,1.35-.09,1.95-.05,2,0,4.19,.1,6.46,.15,3.14,.41,6.42,.71,9.51,.75,7.81,1.76,14.4,1.76,14.4-4.2-6.59-46.95-5.4-74.43-2.14-.25,.38,1.62-4.34,3.7-10.62,.97-2.92,1.99-6.18,2.86-9.43,.76-2.86,1.41-5.71,1.82-8.3,.54-3.46,.65-6.46,0-8.44-.12-.37-.24-.74-.36-1.12-.9-2.84-1.83-5.83-2.65-8.57-1.44-4.72-2.59-8.68-2.89-9.71-.05-.18-.08-.27-.08-.27l-3.02-6.75-4.34-9.71-3.4-7.58-4.38-9.8-3.48-7.77-1.76-3.94c2.1-1.81,4.43-3.62,6.92-5.4,9.08-6.49,20.26-12.54,29.61-16.09l-.12,.74s-2.83,.8-1.29,2.56c2.23,3.07,10.55,11.17,18.87,12.26,1.33,.17,2.66,.16,3.97-.07,.43-.08,.83-.17,1.22-.28,7.14-2.01,7.16-9.24,5.87-10.38-1.36-1.21-3.53-2.57-3.53-2.57v-.88c8.41,3.09,16.26,6.36,22.7,10.1,0,0,.27,.42,.74,1.18,1.05,1.68,3.06,4.98,5.21,8.94,1.4,2.55,2.85,5.37,4.14,8.19,1.44,3.17,2.69,6.35,3.42,9.16,.53,2.05,.79,3.91,.66,5.42Z"/>
          <g>
            <path class="cls-78" d="M124.26,109.94c-9.76,1.32-20.15,2.41-31.13,3.18-21.13,1.48-40.38,1.45-57.28,.65l-1.76-3.94c2.1-1.81,4.43-3.62,6.92-5.4,14.16,.54,29.95,.51,47.07-.53,.16-.01,.32-.02,.48-.03,1.58-.1,3.15-.2,4.71-.32,9.03-.64,17.64-1.52,25.78-2.55,1.05,1.68,3.06,4.98,5.21,8.94Z"/>
            <path class="cls-78" d="M131.82,127.29c-10.07,1.38-20.83,2.53-32.21,3.33-20.55,1.44-39.34,1.46-55.9,.72l-4.38-9.8c16.29,.91,35.02,1.12,55.71-.16,11.84-.73,22.99-1.86,33.36-3.25,1.44,3.17,2.69,6.35,3.42,9.16Z"/>
            <path class="cls-78" d="M132.27,134.6c-.35,2.57-.97,6-1.72,9.87-9.71,1.31-20.04,2.4-30.94,3.16-17.41,1.22-33.56,1.41-48.16,1l-4.34-9.71c14.39,.57,30.46,.54,47.93-.54,13.32-.82,25.77-2.15,37.23-3.78Z"/>
            <path class="cls-78" d="M128.65,153.97c-.64,3.24-1.31,6.55-1.92,9.78-8.65,.82-17.77,1.44-27.32,1.8-15.01,.58-29.06,.42-41.97-.19-1.44-4.72-2.59-8.68-2.89-9.71,12.43,.69,26.01,.96,40.58,.52,11.88-.36,23.08-1.14,33.52-2.2Z"/>
            <path class="cls-78" d="M125.27,171.95c-.6,3.67-1.06,7.01-1.26,9.71-8.61,.81-17.7,1.43-27.2,1.79-12.87,.49-25.03,.45-36.37,.04,.54-3.46,.65-6.46,0-8.44-.12-.37-.24-.74-.36-1.12,10.15,.39,20.99,.48,32.44,.14,11.59-.35,22.53-1.1,32.74-2.12Z"/>
            <path class="cls-78" d="M124.73,199.58c-8.65,.82-17.8,1.45-27.37,1.81-14.87,.57-28.79,.43-41.6-.17,.97-2.92,1.99-6.18,2.86-9.43,10.73,.46,22.25,.59,34.47,.22,10.91-.33,21.24-1.02,30.93-1.94,.15,3.14,.41,6.42,.71,9.51Z"/>
          </g>
          <g class="cls-57">
            <path class="cls-106" d="M63.67,169.58s28.68,25.66,41.93,19.12,17.61-18.28,17.61-18.28c0,0-3.86,36.06-20.3,36.06s-39.25-36.9-39.25-36.9Z"/>
          </g>
          <g class="cls-57">
            <path class="cls-87" d="M132.19,135.1c-27.44,10.09-61.09,7.45-88.1-2.9l10.37,23.18s3.15,10.91,5.99,19.68c2.83,8.77-9,37.69-8.39,36.79,27.48-3.26,70.23-4.45,74.43,2.14,0,0-2.83-18.61-2.57-30.37,.25-10.92,6.66-37.11,8.27-48.52Z"/>
          </g>
          <path class="cls-22" d="M64.61,138.19s-2.79,47.91-4.31,48.41c-.08,.03-.2-.08-.37-.29,.95-4.62,1.33-8.76,.52-11.26-2.83-8.77-5.98-19.68-5.98-19.68l-12.36-27.61c7.52-.69,22.1,5.02,22.5,10.42Z"/>
          <path class="cls-51" d="M122.78,103.87c-.19,.11-.39,.21-.58,.32h0c-.31,.17-.61,.34-.91,.5-.39,.21-.78,.42-1.16,.62-.16,.09-.32,.17-.47,.25-.4,.21-.79,.41-1.17,.6-.24,.12-.47,.24-.7,.35-6.88,3.39-12.69,4.93-24.25,5-17.41,.12-34.2-6.3-39.79-10.78-1.88-1.5-2.49-2.79-1.45-3.53,.05-.03,.1-.07,.16-.1,1.31-.75,2.62-1.48,3.94-2.18,.4-.22,.81-.43,1.22-.65,.4-.22,.81-.43,1.21-.63,.41-.21,.82-.41,1.22-.61,.41-.21,.81-.41,1.21-.6,.81-.4,1.61-.78,2.41-1.15,.39-.18,.79-.36,1.19-.54,1.97-.89,3.91-1.7,5.77-2.4l-.12,.74s-.01,0-.02,.01c-.17,.05-1.41,.44-1.67,1.24-.13,.36-.05,.79,.4,1.31,1.35,1.86,4.95,5.58,9.43,8.46,4.08,2.62,8.9,4.54,13.41,3.73,8.04-1.43,8.43-8.88,7.23-10.5h0c-.05-.07-.09-.12-.14-.16-.19-.17-.4-.35-.62-.52-1.13-.9-2.46-1.77-2.82-2-.06-.03-.09-.05-.09-.05v-.88c8.41,3.09,16.26,6.36,22.7,10.1t0,.02s.03,.05,.06,.09c0,0,0,0,.02,.03,0,0,0-.01,.01,0h0s.01,.01,.02,.02c0,0,0,.01,0,.01,.14,.28,1.02,.96,2.32,2.07,0,0,0,.01,.02,.01,.48,.42,1.03,.9,1.62,1.44,.12,.12,.25,.24,.38,.36Z"/>
          <path class="cls-89" d="M94.26,118.6c-2.04-1.26-4.17-2.49-6.39-3.68-14.8-7.94-29.43-11.86-42.14-13.7,4.64-4.27,11.39-9.11,20.4-11.78,1.54-.45,3.03-.81,4.48-1.1l-.12,.74s-1.62,.46-1.75,1.44c-.06,.47,.25,.88,.45,1.11,5.03,5.79,13.05,8.96,13.05,8.96,2.46,.97,5.77,2.16,9.78,3.24,2.32-1.38,3.81-2.97,4.71-4.14,.34-.45,3.65-4.82,2.38-6.52-.66-.88-2.12-.47-3.01-1.76-.4-.58-.5-1.22-.51-1.69,1.74,.37,3.6,.86,5.54,1.5,5.35,1.76,9.7,4.14,13.04,6.37-4.19,4.91-8.78,9.92-13.77,14.97-2.06,2.09-4.12,4.1-6.16,6.04Z"/>
          <path class="cls-49" d="M95.88,105.06c-.13,.11-.26,.23-.4,.34-.36,.3-.73,.59-1.18,.73-.53,.17-1.11,.1-1.66,0-1.42-.24-2.8-.64-4.17-1.09-1.92-.63-3.81-1.38-5.64-2.23-.88-.41-1.75-.98-2.66-1.29-.73-.25-1.32-.39-2-.81-2.96-1.81-5.64-4.12-7.88-6.77-.3-.35-3-3.35-2.51-3.93,.59-.68,.71-1.19,2.84-1.68l-.12,.74c-.39,.11-.8,.29-1.12,.54-.91,.69,.09,1.2,.71,1.79,1.4,1.35,2.85,2.65,4.34,3.9,1.51,1.27,3.08,2.5,4.84,3.42,1.28,.67,2.64,1.17,4,1.64,2.62,.91,5.26,1.75,7.93,2.51,.27,.08,.57,.16,.84,.06,.21-.08,.37-.25,.51-.42,1.63-1.83,3.27-3.66,4.9-5.49,.87-.97,2.61-3.04,1.27-4.21-.95-.83-2.05-1.54-3.11-2.21v-.88c.27,.04,.54,.13,.8,.23,2.59,1,5.03,3.51,5.25,6.35,.13,1.6-1.43,3.62-2.32,4.89-1,1.42-2.16,2.71-3.46,3.86Z"/>
          <path class="cls-40" d="M43.91,102.62c2.19-1.59,4.59-2.54,6.36-4.7,.13-.15,.25-.31,.43-.41,.26-.13,.57-.1,.85-.05,3.26,.56,6.2,2.16,9.01,3.82,2.73,1.62,5.57,2.96,8.49,4.18,6.04,2.53,12.3,4.63,18,7.89,1.64,.94,3.22,1.96,4.81,2.99,.28,.18,.6,.38,.94,.35,.32-.03,.59-.26,.83-.47,7.01-6.25,14.02-12.5,21.02-18.74,.37,.47,.75,.94,1.12,1.4l-20.47,24.03c-2.08-2.47-5.24-3.7-8.27-4.82-13.44-5-26.87-10-40.31-15-.9-.34-1.86-.68-2.81-.49Z"/>
          <path class="cls-112" d="M90.11,2.33c-6.38,.67-12.04,2.9-16.89,5.8-.55,.33-12.51,8.67-17.55,15.26-5.17,5.82-4.41,9.87-4.41,10.35,0,.09,.7-.71,1.84-2.06,1.3,5.67,6.56,14.13,7.85,16.14,0,0,2.93,1.3,3.25,1.81,.32,.51,5.42,11.35,5.42,11.35,.29-1.05,.83-3.63,2.89-4.51,0,0-2.08-5.64-2.71-12.48-1.27-1.32-6.19-8.16,3.65-14.58,3-5.53,9.3-11.92,16.6-14.03,.84-.24,5.28,2.37,5.28,2.37,0,0,1.87-2.41,2.59-2.26,7.29,1.54,9.54,5.96,9.54,5.96,0,0,3.35-21.29-17.34-19.13Z"/>
          <path class="cls-39" d="M58.61,20.07c-.24,.24-.48,.48-.71,.72,6.73-1.47,13.84-.22,18.18,4.65,.69-.88,1.46-1.76,2.27-2.6-6.09-4.26-13-4.46-19.74-2.78Z"/>
          <path class="cls-56" d="M66.21,13.34c-.86,.69-1.75,1.42-2.64,2.17,5.96-.8,11.92,.54,16.95,5.28,1.18-1.02,2.46-1.97,3.8-2.8-5.23-4.09-11.67-5.37-18.1-4.65Z"/>
          <path class="cls-55" d="M91.81,2.2c-.55,.02-1.11,.06-1.7,.12-.19,.02-.37,.05-.56,.08,3.79,3.56,6.64,8.35,8.02,13.16,.13-.06,.25-.09,.35-.07,.69,.15,1.31,.32,1.91,.51-.23-5.63-2.71-10.94-8.02-13.8Z"/>
          <path class="cls-46" d="M73.45,29.41c-9.84,6.41-4.92,13.26-3.65,14.57,.63,6.84,2.71,12.48,2.71,12.48-2.05,.87-2.59,3.46-2.88,4.51,0,0-5.1-10.84-5.42-11.35-.32-.5-3.25-1.81-3.25-1.81-1.28-2.01-6.55-10.47-7.85-16.13-1.14,1.35-1.85,2.15-1.85,2.05,0-.05,0-.16-.02-.3,1.66-2.37,4.09-7.16,8.83-7.45,9.36-.58,13.38,3.43,13.38,3.43Z"/>
          <path class="cls-59" d="M107.45,21.46s-2.24-4.42-9.53-5.96c-.72-.16-2.59,2.26-2.59,2.26,0,0-4.43-2.62-5.27-2.38-7.3,2.11-13.6,8.5-16.6,14.04,0,0,.18-6.12,4.54-11.05,4.35-4.93,11.54-6.68,11.54-6.68,2.03,0,3.93,1.42,5.59,5.37,.44-2.32,.99-4.56,0-7.33,0,0,6.97,2.32,9.58,5.08,2.61,2.76,2.76,6.65,2.76,6.65Z"/>
          <path class="cls-54" d="M95.33,17.76s-4.43-2.62-5.27-2.38c.24-1.15-1.27-16.8-16.18-7.63,2.35-1.35,4.88-2.54,7.59-3.48,8.85-1.87,13.87,13.48,13.87,13.48Z"/>
          <path class="cls-6" d="M84.57,90.39s2.56,2.42,4.94,1.23c2.38-1.19,2.51-3.11,2.51-3.11l-.96,.59c-1.58,2.06-4.08,2.83-5.99,1.23,0,0-.41-.09-.5,.05Z"/>
          <path class="cls-72" d="M107.38,21.87c.07-.22,7.03-7.39,3.99-12.97-3.04-5.58-12.68-5.8-12.68-5.8,0,0,9.09,2.57,9.89,7.5,.8,4.93-1.19,11.27-1.19,11.27Z"/>
          <g>
            <path class="cls-100" d="M90.76,59.07c.06,.82,1.2,1.16,4.2,1.16,.99,0,3.73,.46,4.71,.39,3.57-.28,5.58-3.77,5.82-3.95,.23-.19-4.75-5.01-5.26-6.09-1.81-3.8-3.45-12.53-3.93-13.15-2.23-2.87-5.61,20.53-5.53,21.65Z"/>
            <path class="cls-17" d="M90.76,59.07c.06,.82,1.2,1.16,4.2,1.16,.99,0,3.73,.46,4.71,.39,3.57-.28,5.58-3.77,5.82-3.95,.23-.19-4.75-5.01-5.26-6.09-1.81-3.8-3.45-12.53-3.93-13.15-2.23-2.87-5.61,20.53-5.53,21.65Z"/>
            <path class="cls-38" d="M95.23,57.72c-.44,.13-4.48,1.28-4.47,1.34,.06,.82,1.2,1.16,4.2,1.16,.99,0,3.73,.46,4.71,.39,3.57-.28,5.58-3.77,5.82-3.95,.09-.08-1.58,1.5-4.29,1.69-3.82,.27-5.7-.7-5.96-.63Z"/>
            <path class="cls-103" d="M95.47,60.28c-.18-.03-.36-.05-.51-.05-.65,0-1.21-.02-1.7-.05,.66-.58,1.82-1.4,2.92-1.46,1.11-.07,.1,.91-.72,1.55Z"/>
            <path class="cls-103" d="M91.14,56.43c-.14,.14-1.34,1.63-.68,2.57,.66,.94,1.78,1.03,1.78,1.03,0,0-1.13-.42-1.46-1.6-.33-1.17,.36-2.01,.36-2.01Z"/>
            <path class="cls-34" d="M95.23,57.72c-.44,.13-4.48,1.28-4.47,1.34,.06,.82,3.43,7.83,7.21,7.55,3.78-.27,7.28-9.78,7.51-9.96,.09-.08-1.58,1.5-4.29,1.69-3.82,.27-5.7-.7-5.96-.63Z"/>
          </g>
          <path class="cls-117" d="M24.03,159.53c.02-.23,6.58-3.97,16.15,.06,9.57,4.03,14.78,9.19,14.74,9.47-.05,.27-.91,.19-.91,.19,.74,.17,1.46,.31,2.11,.37,0,0,2.56-30.36-9.81-30-12.37,.35-23.71,19.85-23.71,19.85,.66,.42,1.58,.9,2.79,1.47,0,0-1.38-1.17-1.36-1.4Z"/>
          <path class="cls-79" d="M68.07,137.06c-.19,1.31-.41,2.59-.67,3.85-.39,1.97-.87,3.87-1.42,5.74-.93,3.2-2.06,6.27-3.33,9.29-.6,1.43-1.23,2.84-1.89,4.26-1.28,2.76-2.67,5.53-4.11,8.35-.17,.35-.35,.7-.53,1.05-7.18-9.86-24.74-16.22-33.52-10.15,0,0,.32-1.48,.86-3.93,.47-2.15,1.1-5.05,1.83-8.34,.37-1.66,.76-3.41,1.16-5.22,.6-2.66,1.22-5.44,1.85-8.2,.48-2.13,.96-4.25,1.44-6.29,.6-2.63,1.19-5.14,1.73-7.39,.54-2.27,1.03-4.28,1.45-5.88,.59-2.3,1.03-3.77,1.21-3.98,5.04-5.31,16.27,.52,24.45,8.71,2.33,2.34,4.42,4.87,6.04,7.38,2.49,3.85,3.89,7.67,3.45,10.75Z"/>
          <g>
            <path class="cls-78" d="M68.07,137.06c-.19,1.31-.41,2.59-.67,3.85l-.32,.83c-3.4-4.53-8.87-9.76-17.57-12.57-6.89-2.23-13.9-2.31-19.77-1.7,.6-2.63,1.19-5.14,1.73-7.39,.12-.27,.24-.54,.37-.8,7.12-1.13,16.69-1.48,25.55,2.53,2.8,1.27,5.2,2.82,7.23,4.5,2.49,3.85,3.89,7.67,3.45,10.75Z"/>
            <path class="cls-78" d="M58.58,118.93c-1.99-1.14-4.22-2.15-6.72-2.95-6.57-2.11-13.25-2.3-18.94-1.78,.59-2.3,1.03-3.77,1.21-3.98,5.04-5.31,16.27,.52,24.45,8.71Z"/>
            <path class="cls-78" d="M65.98,146.65c-.93,3.2-2.06,6.27-3.33,9.29-3.42-4.44-8.81-9.47-17.29-12.2-6.56-2.12-13.22-2.3-18.91-1.78,.6-2.66,1.22-5.44,1.85-8.2,7.04-1.06,16.34-1.28,24.94,2.62,5.89,2.66,9.94,6.56,12.74,10.27Z"/>
            <path class="cls-78" d="M60.76,160.2c-1.28,2.76-2.67,5.53-4.11,8.35-3.43-4.15-8.62-8.59-16.39-11.1-5.76-1.86-11.61-2.22-16.8-1.93,.47-2.15,1.1-5.05,1.83-8.34,6.73-.77,15.06-.61,22.84,2.91,5.81,2.62,9.83,6.45,12.63,10.11Z"/>
          </g>
          <path class="cls-53" d="M58.23,118.59c.78,15.6-.67,32.1-6.7,46.24,1.78,1.46,3.34,3.06,4.59,4.78,5.45-10.66,10.22-20.39,11.95-32.54,.74-5.19-3.77-12.5-9.84-18.47Z"/>
          <path class="cls-62" d="M67.61,414.18c.07,.4,.17,.81,.33,1.2-4.92,.93-11.76,.81-11.84,.02-.07-.71,7.05-4.68,11.58-7.14,.52,.61,.85,1.24,.85,1.83,0,.72-1.12,2.89-.91,4.09Z"/>
          <path class="cls-20" d="M63.45,405.32c-.65,.23-10.88,3.46-11.27,2.83-.39-.63,3.66-2.28,8.82-6.21,.54-.41,1.03-.92,1.47-1.48,.31,1.67,.64,3.29,.98,4.86Z"/>
          <path class="cls-36" d="M124.5,412.34c-2.29,.54-14.97,1.19-19.33,1.49,2.88-.38,9.32-1.38,12.96-2.11,2.7-.54,5.49-2.26,7.45-3.69,.1,.14,.17,.3,.2,.51,.22,1.26-1.28,3.8-1.28,3.8Z"/>
          <path class="cls-13" d="M121.95,407.19c-.58,.19-6.92,1.72-7.67,1.68-.61-.03,3.93-3.77,6.02-5.46,.09,.47,.17,.87,.24,1.22,.12,.55,1.35,2.29,1.41,2.55Z"/>
          <g class="cls-95">
            <g>
              <path class="cls-110" d="M82.03,46c-4.5,.43-3.98,8.04,.52,7.69s3.98-8.13-.52-7.69Z"/>
              <path class="cls-14" d="M82.21,47.38c-2.87,.28-2.54,5.14,.33,4.92,2.87-.22,2.54-5.19-.33-4.92Z"/>
            </g>
          </g>
          <g class="cls-85">
            <g>
              <path class="cls-102" d="M103.96,44.4c-3.42,.44-3.02,8.22,.39,7.86,3.42-.35,3.02-8.31-.39-7.86Z"/>
              <path class="cls-15" d="M104.09,45.81c-2.18,.28-1.93,5.25,.25,5.02,2.18-.23,1.93-5.31-.25-5.02Z"/>
            </g>
          </g>
          <path class="cls-21" d="M73.26,29.54c-2.7,1.8-4.24,3.62-5.05,5.34-3.96-1.72-9.11-2.72-14.11-.07-.43-1.1-.77-2.15-.99-3.13-1.14,1.35-1.85,2.15-1.85,2.05,0,0,.83-6.78,8.95-7.96,6.98-1.01,11.83,2.69,13.05,3.76Z"/>
          <path class="cls-70" d="M80.19,50.15c-1.26-.61-2.92,1.03-1.32,1.06,1.61,.03,2.25-.61,1.32-1.06Z"/>
          <path class="cls-70" d="M102.96,49.7c-.6-.68-2.28,.29-1.54,.71,.74,.42,2.06-.13,1.54-.71Z"/>
          <path class="cls-1" d="M101.19,50.78s2.19-4.67,4.73-4.38c2.54,.28,2.54,3.11,2.54,3.11,0,0,.45-6.76-2.92-5.74-4.05,1.22-4.35,7.02-4.35,7.02Z"/>
          <path class="cls-24" d="M77.44,50.59s3.73-6.74,7.59-5.51c3.86,1.22,3.41,6.73,3.41,6.73,0,0-1.16-5.7-5.11-4.66-3.95,1.04-5.89,3.44-5.89,3.44Z"/>
          <path class="cls-66" d="M101.87,56.46c-2.43,.13-6.01,.99-5.76,1.04,.25,.05,9.36-1.01,9.36-1.01,0,0,.22-.23-3.6-.03Z"/>
          <path class="cls-10" d="M93.45,440.69s-19.57,3.85-33.26,2.99c-2.14,0-17.54-1.71-17.54-1.71l-.61-5.95c3.09,2.82,11.45,4.66,20.93,4.26,19.89,.2,25.27-4.31,27.78-5.86,1.96,2.65,2.7,6.27,2.7,6.27Z"/>
          <g>
            <path class="cls-105" d="M21.84,194.09s9.11-12.27,32.33-1.01c23.22,11.26,24.65,18.71,36.49,25.19,6.91,3.65,29.77,8.46,29.77,8.46l-3.23,13.64-10.02,8.86s-11.42-7.7-19.02-12.35c-.92-.56-1.25-4.5-2.16-5.04-16.8-9.84-60.45-16.13-64.16-37.76Z"/>
            <path class="cls-5" d="M117.2,240.38l3.23-13.64c-4.46,6.14-10.55,9.44-15.65,13.94-6.54,2.44-15.72-3.44-18.76-8.81,.91,.56,1.25,4.46,2.15,5.02,7.6,4.64,19.02,12.35,19.02,12.35h0s0,0,0,0l10.02-8.86Z"/>
            <path class="cls-16" d="M116.36,231.28c-.13,.13-.26,.26-.4,.38-.02,3.37,.05,6.93-.72,10.44l.43-.38c.77-3.46,.79-6.95,.69-10.44Z"/>
            <path class="cls-12" d="M112.75,234.38c-.15,.12-.29,.24-.44,.35,.9,2.98,.75,6.27,.39,9.62l.41-.37c.32-3.45,.44-6.67-.36-9.61Z"/>
            <path class="cls-52" d="M108.55,237.61c-.11,.08-.21,.17-.32,.25,1.23,3.02,1.37,6.14,1.18,9.4l.25-.23c.19-3.34-.02-6.58-1.12-9.42Z"/>
            <path class="cls-8" d="M104.2,245.36c-.19-.12-8.19-7.02-9.52-4.45-.38-.57-.73-1.32-.99-1.93,2.86,1.58,6.04,2.52,8.93,2.2,.3,.74,1.74,4.28,1.57,4.18Z"/>
          </g>
          <g>
            <g>
              <path class="cls-77" d="M111.17,21.8s6.76-6.94,7.1-11.45c.33-4.48-29.12-12.45-45.78-8.34-18.48,4.56-33.45,17.9-29.99,22.82,3.4,4.85,5.05,2.68,11.32,5.06,6.07,2.31,8.87,2.52,8.87,2.52,0,0,31.36-2.06,37.15-2.53,17.05-1.92,11.33-8.08,11.33-8.08Z"/>
              <path class="cls-61" d="M42.06,23.74c.07,.4,.22,.77,.44,1.1,3.39,4.84,5.04,2.67,11.31,5.06,6.07,2.31,8.88,2.52,8.88,2.52,0,0,31.35-2.06,37.15-2.53,17.04-1.92,11.33-8.08,11.33-8.08,0,0,6.77-6.93,7.1-11.44,.03-.46-.22-.94-.71-1.44-5.96,2.55-19.21,7.83-34.47,11.42-14.8,3.48-30.93,3.7-41.03,3.4Z"/>
              <path class="cls-50" d="M104.86,25.26s4.38-11.86,3.74-12.82c-.29-.43-4.23-3.65-9.44-5.77-6.74-2.75-15.34-4.85-16.63-4.92-1.15-.07,7.14,1.48,13.5,4.01,6.23,2.49,11.7,5.76,12.35,6.87,.86,1.04-3.52,12.63-3.52,12.63Z"/>
              <path class="cls-35" d="M84.3,28.99s-4.72-4.9-6.77-7.45c-2.07-2.58,1.2-19.58,1.2-19.58l-.16,.05s-3.08,18.42-2.04,19.63c1.03,1.2,7.76,7.35,7.76,7.35Z"/>
              <path class="cls-9" d="M82.49,1.02s.07,.24-.18,.49c-.47,.47-1.65,1.1-3.64,1.14-3.11,.06-5.37-.81-4.77-.85,.59-.04,8.59-.78,8.59-.78Z"/>
              <path class="cls-25" d="M65.47,31.53c-.38-.17-17.2-4.58-18.64-7.55-.53-1.09,4.37-6.03,8.24-9.83,6.49-6.38,19.48-12.11,19.48-12.11,0,0-10.24,4.51-18.6,10.65-5.69,4.18-10.46,10.45-10.08,11.42,.94,2.46,19.6,7.43,19.6,7.43Z"/>
              <path class="cls-113" d="M60.43,31.14c1.53-.32,2.77,1.76,1.38,2.13-1.39,.37-3.09-1.78-1.38-2.13Z"/>
              <path class="cls-65" d="M84.73,1.05c.91-.53,29.01,3.5,30.61,6.72,1.59,3.2-5.67,4.68-6.16,3.91-.5-.77-25.36-10.11-24.45-10.64Z"/>
              <path class="cls-68" d="M108.2,12.37c.15,.18-24.48,7.83-31.01,8.94-6.8,1.15-34.41,2.56-34.47,1.82-.06-.73,16.87-18.01,30.3-21.04,1.2,3.85,9.36-.03,9.36-.03,0,0,20.02,3.31,25.82,10.32Z"/>
              <path class="cls-89" d="M78.82,2.18c2.02-.08,3.39-.52,3.65-.99,.1-.18,.08-.56-.19-.74-.45-.29-8.8,.51-8.77,.7,.04,.22,.09,.38,.14,.45,.31,.38,.98,.75,5.17,.58Z"/>
              <path class="cls-90" d="M78.68,1.74c2.21-.09,3.65-.6,3.69-1.12,.04-.45-1.67-.65-3.72-.62-3.93,.06-5.16,1.05-5.15,1.15,.31,.38,.98,.75,5.17,.59Z"/>
              <path class="cls-67" d="M81.77,.48c.72,.83-4.31,1.28-5.68,1.19-1.38-.08-2.92-.59-1.2-1.1,1.7-.5,6.16-.93,6.88-.09Z"/>
            </g>
            <path class="cls-89" d="M111.6,20.64c.64,1.5,1.2,3.59,.34,5.54-1.59,3.59-7,4.45-19.12,6.03-33.05,4.31-39.88,4.14-41.44,1.02-.53-1.05-.44-2.43,.6-4.23,14.05,0,29.98-1.09,45.67-4.56,5.28-1.17,9.92-2.47,13.94-3.8Z"/>
          </g>
          <path class="cls-74" d="M107.5,140.73c-.48,1.54-1.44,3.29-2.48,6.96-1.4,4.93-1.77,9.18-1.87,12.05-1.77-1-4.2-2.73-5.94-5.6-1.07-1.77-1.62-3.54-1.86-5.45-.41-3.15-.01-6.71,.16-11.36,.16-4.26,.14-10.32-.68-17.78v-.05s.03-.01,.04-.01c1.03-.42,2.06-.84,3.09-1.25,.02-.01,.03-.01,.05-.02l.02,.02c.58,.67,1.13,1.33,1.65,1.97,8.36,10.34,9.04,16.61,7.82,20.52Z"/>
          <path class="cls-31" d="M99.63,142.68c-1.1,2.07-2.71,4.17-4.28,6.01-.41-3.15-.01-6.71,.16-11.36,.16-4.26,.14-10.32-.68-17.78,0-.02,.02-.04,.04-.06,.19-.4,.39-.81,.6-1.22,.83,0,1.66-.02,2.49-.03h.07c.58,.67,1.13,1.33,1.65,1.97,1.84,5.26,4.1,14.62-.05,22.47Z"/>
          <path class="cls-75" d="M82.59,149.82c-.27,4.27-1.29,7.69-2.13,9.93,2.3-1.75,5.42-4.35,8.74-7.87,2.08-2.21,5.65-6,7.59-9.66,4.74-8.97,1.12-19.91-.7-24.45-1.16,.02-2.31,.03-3.47,.05-8.29,16.59-10.21,24.2-10.02,27.92,.02,.38,.12,1.95-.02,4.09Z"/>
          <path class="cls-73" d="M96.53,116.27l2.39,3.15s-4.62,2.15-7.62,1.31l.21-3.77,5.02-.69Z"/>
        </g>
      </g>
    </g>
  </g>
</svg>