<?xml version="1.0" encoding="UTF-8"?>
<svg xmlns="http://www.w3.org/2000/svg" xmlns:xlink="http://www.w3.org/1999/xlink" viewBox="0 0 169.22 467.2">
  <defs>
    <style>
      .cls-1 {
        fill: url(#_Áåçûìÿííûé_ãðàäèåíò_1544);
      }

      .cls-2 {
        fill: url(#_Áåçûìÿííûé_ãðàäèåíò_3649-18);
      }

      .cls-2, .cls-3, .cls-4, .cls-5, .cls-6, .cls-7, .cls-8, .cls-9, .cls-10, .cls-11, .cls-12, .cls-13, .cls-14, .cls-15, .cls-16, .cls-17, .cls-18, .cls-19, .cls-20, .cls-21, .cls-22, .cls-23, .cls-24, .cls-25, .cls-26, .cls-27, .cls-28, .cls-29, .cls-30, .cls-31, .cls-32, .cls-33, .cls-34, .cls-35, .cls-36, .cls-37, .cls-38, .cls-39, .cls-40, .cls-41, .cls-42, .cls-43, .cls-44, .cls-45, .cls-46, .cls-47, .cls-48, .cls-49, .cls-50, .cls-51, .cls-52, .cls-53, .cls-54, .cls-55, .cls-56, .cls-57, .cls-58, .cls-59, .cls-60, .cls-61, .cls-62, .cls-63, .cls-64, .cls-65, .cls-66, .cls-67, .cls-68, .cls-69, .cls-70, .cls-71, .cls-72, .cls-73, .cls-74, .cls-75, .cls-76, .cls-77 {
        mix-blend-mode: multiply;
      }

      .cls-78 {
        fill: url(#_Áåçûìÿííûé_ãðàäèåíò_672-4);
      }

      .cls-3 {
        fill: url(#_Áåçûìÿííûé_ãðàäèåíò_3649-15);
      }

      .cls-79, .cls-80 {
        fill: #fff;
      }

      .cls-4 {
        fill: url(#_Áåçûìÿííûé_ãðàäèåíò_3649-19);
      }

      .cls-5 {
        fill: url(#linear-gradient-13);
      }

      .cls-80 {
        mix-blend-mode: soft-light;
      }

      .cls-80, .cls-31 {
        opacity: .5;
      }

      .cls-81 {
        fill: url(#_Áåçûìÿííûé_ãðàäèåíò_536-2);
      }

      .cls-82 {
        fill: url(#_Áåçûìÿííûé_ãðàäèåíò_672-9);
      }

      .cls-6 {
        fill: url(#_Áåçûìÿííûé_ãðàäèåíò_151-9);
      }

      .cls-6, .cls-18, .cls-20, .cls-21, .cls-30, .cls-32, .cls-33, .cls-34, .cls-51, .cls-52, .cls-61, .cls-70, .cls-74, .cls-76 {
        opacity: .58;
      }

      .cls-7 {
        fill: url(#_Áåçûìÿííûé_ãðàäèåíò_281-4);
      }

      .cls-8 {
        fill: url(#linear-gradient-11);
      }

      .cls-9 {
        fill: url(#linear-gradient-10);
      }

      .cls-10 {
        fill: url(#_Áåçûìÿííûé_ãðàäèåíò_3649-17);
      }

      .cls-11 {
        fill: url(#linear-gradient-2);
      }

      .cls-11, .cls-15, .cls-22, .cls-36, .cls-44, .cls-53 {
        opacity: .8;
      }

      .cls-12 {
        fill: url(#_Áåçûìÿííûé_ãðàäèåíò_3649-10);
      }

      .cls-83 {
        fill: url(#_Áåçûìÿííûé_ãðàäèåíò_672-2);
      }

      .cls-13 {
        fill: url(#_Áåçûìÿííûé_ãðàäèåíò_281-3);
      }

      .cls-84 {
        fill: #00002b;
      }

      .cls-85 {
        fill: #40446f;
      }

      .cls-14 {
        fill: url(#linear-gradient-16);
      }

      .cls-15 {
        fill: url(#linear-gradient-3);
      }

      .cls-16 {
        fill: url(#_Áåçûìÿííûé_ãðàäèåíò_281-8);
      }

      .cls-86 {
        fill: url(#_Áåçûìÿííûé_ãðàäèåíò_672-7);
      }

      .cls-87 {
        fill: url(#_Áåçûìÿííûé_ãðàäèåíò_3614);
      }

      .cls-17 {
        fill: url(#_Áåçûìÿííûé_ãðàäèåíò_281-6);
      }

      .cls-18 {
        fill: url(#_Áåçûìÿííûé_ãðàäèåíò_151-19);
      }

      .cls-88 {
        fill: url(#_Áåçûìÿííûé_ãðàäèåíò_3148);
      }

      .cls-19 {
        fill: url(#linear-gradient-17);
      }

      .cls-89 {
        fill: url(#_Áåçûìÿííûé_ãðàäèåíò_3148-6);
      }

      .cls-90 {
        fill: url(#linear-gradient-6);
      }

      .cls-20 {
        fill: url(#_Áåçûìÿííûé_ãðàäèåíò_151-17);
      }

      .cls-91 {
        isolation: isolate;
      }

      .cls-92 {
        fill: url(#_Áåçûìÿííûé_ãðàäèåíò_252-2);
      }

      .cls-21 {
        fill: url(#_Áåçûìÿííûé_ãðàäèåíò_151-2);
      }

      .cls-22 {
        fill: url(#_Áåçûìÿííûé_ãðàäèåíò_1125);
      }

      .cls-93 {
        fill: #9c6ebf;
      }

      .cls-23 {
        fill: url(#_Áåçûìÿííûé_ãðàäèåíò_281-5);
      }

      .cls-94 {
        fill: url(#_Áåçûìÿííûé_ãðàäèåíò_1544-2);
      }

      .cls-95 {
        fill: url(#_Áåçûìÿííûé_ãðàäèåíò_3148-3);
      }

      .cls-24 {
        fill: url(#_Áåçûìÿííûé_ãðàäèåíò_999-4);
      }

      .cls-25 {
        fill: url(#_Áåçûìÿííûé_ãðàäèåíò_151);
      }

      .cls-25, .cls-26, .cls-49, .cls-67, .cls-75 {
        opacity: .78;
      }

      .cls-26 {
        fill: url(#_Áåçûìÿííûé_ãðàäèåíò_151-11);
      }

      .cls-96 {
        fill: url(#_Áåçûìÿííûé_ãðàäèåíò_728);
      }

      .cls-97 {
        fill: url(#_Áåçûìÿííûé_ãðàäèåíò_672-5);
      }

      .cls-27 {
        fill: url(#_Áåçûìÿííûé_ãðàäèåíò_267-2);
      }

      .cls-28 {
        fill: url(#_Áåçûìÿííûé_ãðàäèåíò_267);
      }

      .cls-98 {
        fill: #1d214c;
      }

      .cls-29 {
        fill: url(#_Áåçûìÿííûé_ãðàäèåíò_3649-9);
      }

      .cls-30 {
        fill: url(#_Áåçûìÿííûé_ãðàäèåíò_151-4);
      }

      .cls-99 {
        fill: url(#_Áåçûìÿííûé_ãðàäèåíò_728-2);
      }

      .cls-31 {
        fill: url(#_Áåçûìÿííûé_ãðàäèåíò_183);
      }

      .cls-32 {
        fill: url(#_Áåçûìÿííûé_ãðàäèåíò_151-18);
      }

      .cls-33 {
        fill: url(#_Áåçûìÿííûé_ãðàäèåíò_151-16);
      }

      .cls-34 {
        fill: url(#_Áåçûìÿííûé_ãðàäèåíò_151-15);
      }

      .cls-100 {
        fill: url(#_Áåçûìÿííûé_ãðàäèåíò_1547);
      }

      .cls-35 {
        fill: url(#_Áåçûìÿííûé_ãðàäèåíò_3649-11);
      }

      .cls-101 {
        clip-path: url(#clippath-1);
      }

      .cls-36 {
        fill: url(#_Áåçûìÿííûé_ãðàäèåíò_4);
      }

      .cls-102 {
        fill: url(#_Áåçûìÿííûé_ãðàäèåíò_3148-4);
      }

      .cls-103 {
        fill: #111540;
      }

      .cls-104 {
        fill: url(#_Áåçûìÿííûé_ãðàäèåíò_1547-2);
      }

      .cls-37 {
        fill: url(#_Áåçûìÿííûé_ãðàäèåíò_999-2);
      }

      .cls-105 {
        fill: #7d6da1;
      }

      .cls-106 {
        fill: url(#_Áåçûìÿííûé_ãðàäèåíò_3614-2);
      }

      .cls-38 {
        fill: url(#_Áåçûìÿííûé_ãðàäèåíò_281-2);
      }

      .cls-39 {
        fill: url(#_Áåçûìÿííûé_ãðàäèåíò_3649-14);
      }

      .cls-40 {
        fill: url(#_Áåçûìÿííûé_ãðàäèåíò_3649-8);
      }

      .cls-41 {
        fill: url(#linear-gradient-9);
      }

      .cls-107 {
        fill: #272b56;
      }

      .cls-42 {
        fill: url(#_Áåçûìÿííûé_ãðàäèåíò_3649-7);
      }

      .cls-43 {
        fill: url(#_Áåçûìÿííûé_ãðàäèåíò_669);
        opacity: .87;
      }

      .cls-108 {
        fill: url(#_Áåçûìÿííûé_ãðàäèåíò_670);
      }

      .cls-44 {
        fill: url(#_Áåçûìÿííûé_ãðàäèåíò_4-2);
      }

      .cls-45 {
        fill: url(#linear-gradient-8);
      }

      .cls-109 {
        fill: url(#_Áåçûìÿííûé_ãðàäèåíò_672-6);
      }

      .cls-46 {
        fill: url(#_Áåçûìÿííûé_ãðàäèåíò_3649-16);
      }

      .cls-110 {
        fill: url(#_Áåçûìÿííûé_ãðàäèåíò_3148-5);
      }

      .cls-111 {
        fill: url(#Gradient_9-3);
      }

      .cls-47 {
        fill: #ab4a9f;
      }

      .cls-48 {
        fill: url(#linear-gradient-15);
      }

      .cls-112 {
        fill: url(#_Áåçûìÿííûé_ãðàäèåíò_3148-2);
      }

      .cls-113 {
        fill: url(#linear-gradient-5);
      }

      .cls-49 {
        fill: url(#_Áåçûìÿííûé_ãðàäèåíò_151-13);
      }

      .cls-114 {
        clip-path: url(#clippath);
      }

      .cls-50 {
        fill: url(#_Áåçûìÿííûé_ãðàäèåíò_281);
      }

      .cls-115 {
        fill: url(#_Áåçûìÿííûé_ãðàäèåíò_3614-3);
      }

      .cls-51 {
        fill: url(#_Áåçûìÿííûé_ãðàäèåíò_151-6);
      }

      .cls-52 {
        fill: url(#_Áåçûìÿííûé_ãðàäèåíò_151-8);
      }

      .cls-53 {
        fill: url(#_Áåçûìÿííûé_ãðàäèåíò_1125-2);
      }

      .cls-116 {
        fill: url(#Gradient_9-2);
      }

      .cls-54 {
        fill: url(#_Áåçûìÿííûé_ãðàäèåíò_3649-6);
      }

      .cls-117 {
        fill: url(#linear-gradient-7);
      }

      .cls-55 {
        fill: url(#linear-gradient-12);
      }

      .cls-118 {
        fill: url(#Gradient_9);
      }

      .cls-119 {
        fill: url(#_Áåçûìÿííûé_ãðàäèåíò_672-3);
      }

      .cls-56 {
        fill: url(#_Áåçûìÿííûé_ãðàäèåíò_3649-12);
      }

      .cls-57 {
        fill: url(#_Áåçûìÿííûé_ãðàäèåíò_2716);
      }

      .cls-57, .cls-72 {
        opacity: .6;
      }

      .cls-120 {
        fill: url(#_Áåçûìÿííûé_ãðàäèåíò_252);
      }

      .cls-58 {
        fill: url(#_Áåçûìÿííûé_ãðàäèåíò_3649);
      }

      .cls-121 {
        fill: url(#_Áåçûìÿííûé_ãðàäèåíò_536);
      }

      .cls-59 {
        fill: url(#_Áåçûìÿííûé_ãðàäèåíò_999-3);
      }

      .cls-60 {
        fill: url(#_Áåçûìÿííûé_ãðàäèåíò_3649-20);
      }

      .cls-61 {
        fill: url(#_Áåçûìÿííûé_ãðàäèåíò_151-3);
      }

      .cls-122 {
        fill: url(#linear-gradient);
      }

      .cls-123 {
        fill: url(#_Áåçûìÿííûé_ãðàäèåíò_672);
      }

      .cls-62 {
        fill: url(#_Áåçûìÿííûé_ãðàäèåíò_3649-5);
      }

      .cls-63 {
        fill: url(#_Áåçûìÿííûé_ãðàäèåíò_3649-2);
      }

      .cls-64 {
        fill: #ad2e9f;
      }

      .cls-65 {
        fill: url(#_Áåçûìÿííûé_ãðàäèåíò_281-7);
      }

      .cls-124 {
        fill: url(#_Áåçûìÿííûé_ãðàäèåíò_672-8);
      }

      .cls-66 {
        fill: url(#_Áåçûìÿííûé_ãðàäèåíò_3649-3);
      }

      .cls-67 {
        fill: url(#_Áåçûìÿííûé_ãðàäèåíò_151-12);
      }

      .cls-68 {
        fill: url(#_Áåçûìÿííûé_ãðàäèåíò_999);
      }

      .cls-69 {
        fill: url(#linear-gradient-14);
      }

      .cls-70 {
        fill: url(#_Áåçûìÿííûé_ãðàäèåíò_151-5);
      }

      .cls-71 {
        fill: url(#_Áåçûìÿííûé_ãðàäèåíò_3649-13);
      }

      .cls-125 {
        fill: url(#linear-gradient-4);
      }

      .cls-72 {
        fill: url(#_Áåçûìÿííûé_ãðàäèåíò_2716-2);
      }

      .cls-73 {
        fill: url(#_Áåçûìÿííûé_ãðàäèåíò_281-9);
      }

      .cls-74 {
        fill: url(#_Áåçûìÿííûé_ãðàäèåíò_151-7);
      }

      .cls-75 {
        fill: url(#_Áåçûìÿííûé_ãðàäèåíò_151-10);
      }

      .cls-76 {
        fill: url(#_Áåçûìÿííûé_ãðàäèåíò_151-14);
      }

      .cls-77 {
        fill: url(#_Áåçûìÿííûé_ãðàäèåíò_3649-4);
      }
    </style>
    <linearGradient id="_Áåçûìÿííûé_ãðàäèåíò_672" data-name="Áåçûìÿííûé ãðàäèåíò 672" x1="77.88" y1="66.97" x2="77.88" y2="46.31" gradientUnits="userSpaceOnUse">
      <stop offset="0" stop-color="#8b404a"/>
      <stop offset="1" stop-color="#631631"/>
    </linearGradient>
    <linearGradient id="_Áåçûìÿííûé_ãðàäèåíò_151" data-name="Áåçûìÿííûé ãðàäèåíò 151" x1="77.88" y1="66.97" x2="77.88" y2="46.31" gradientUnits="userSpaceOnUse">
      <stop offset="0" stop-color="#ffeadb"/>
      <stop offset=".99" stop-color="#c245ba"/>
    </linearGradient>
    <linearGradient id="_Áåçûìÿííûé_ãðàäèåíò_1547" data-name="Áåçûìÿííûé ãðàäèåíò 1547" x1="38.02" y1="78.9" x2="38.02" y2="20.51" gradientUnits="userSpaceOnUse">
      <stop offset=".45" stop-color="#ff9b6e"/>
      <stop offset="1" stop-color="#ff8357"/>
    </linearGradient>
    <linearGradient id="_Áåçûìÿííûé_ãðàäèåíò_151-2" data-name="Áåçûìÿííûé ãðàäèåíò 151" x1="35.19" y1="46.88" x2="39.33" y2="57.32" xlink:href="#_Áåçûìÿííûé_ãðàäèåíò_151"/>
    <linearGradient id="_Áåçûìÿííûé_ãðàäèåíò_151-3" data-name="Áåçûìÿííûé ãðàäèåíò 151" x1="36.25" y1="46.52" x2="35.8" y2="58.11" xlink:href="#_Áåçûìÿííûé_ãðàäèåíò_151"/>
    <linearGradient id="_Áåçûìÿííûé_ãðàäèåíò_670" data-name="Áåçûìÿííûé ãðàäèåíò 670" x1="70.18" y1="74.21" x2="64.1" y2="110.17" gradientUnits="userSpaceOnUse">
      <stop offset=".02" stop-color="#c75659"/>
      <stop offset="1" stop-color="#e27459"/>
    </linearGradient>
    <linearGradient id="_Áåçûìÿííûé_ãðàäèåíò_2716" data-name="Áåçûìÿííûé ãðàäèåíò 2716" x1="61.67" y1="113.14" x2="66.37" y2="86.47" gradientUnits="userSpaceOnUse">
      <stop offset="0" stop-color="#ffeadb"/>
      <stop offset=".99" stop-color="#b060f4"/>
    </linearGradient>
    <linearGradient id="_Áåçûìÿííûé_ãðàäèåíò_2716-2" data-name="Áåçûìÿííûé ãðàäèåíò 2716" x1="65.9" y1="97.37" x2="65.9" y2="54.69" xlink:href="#_Áåçûìÿííûé_ãðàäèåíò_2716"/>
    <linearGradient id="_Áåçûìÿííûé_ãðàäèåíò_672-2" data-name="Áåçûìÿííûé ãðàäèåíò 672" x1="39.67" y1="65.05" x2="39.67" y2="35.23" xlink:href="#_Áåçûìÿííûé_ãðàäèåíò_672"/>
    <linearGradient id="_Áåçûìÿííûé_ãðàäèåíò_1544" data-name="Áåçûìÿííûé ãðàäèåíò 1544" x1="60.86" y1="78.9" x2="60.86" y2="20.51" gradientUnits="userSpaceOnUse">
      <stop offset="0" stop-color="#c2a2b3"/>
      <stop offset=".45" stop-color="#ff9b6e"/>
      <stop offset="1" stop-color="#ff8357"/>
    </linearGradient>
    <linearGradient id="_Áåçûìÿííûé_ãðàäèåíò_672-3" data-name="Áåçûìÿííûé ãðàäèåíò 672" x1="41.82" y1="85.07" x2="37.24" y2="99.82" xlink:href="#_Áåçûìÿííûé_ãðàäèåíò_672"/>
    <linearGradient id="_Áåçûìÿííûé_ãðàäèåíò_151-4" data-name="Áåçûìÿííûé ãðàäèåíò 151" x1="34.29" y1="57.31" x2="46.21" y2="36.51" xlink:href="#_Áåçûìÿííûé_ãðàäèåíò_151"/>
    <linearGradient id="_Áåçûìÿííûé_ãðàäèåíò_151-5" data-name="Áåçûìÿííûé ãðàäèåíò 151" x1="37.68" y1="61.05" x2="70.89" y2="37.71" xlink:href="#_Áåçûìÿííûé_ãðàäèåíò_151"/>
    <linearGradient id="_Áåçûìÿííûé_ãðàäèåíò_151-6" data-name="Áåçûìÿííûé ãðàäèåíò 151" x1="42.19" y1="60.56" x2="41.69" y2="32.28" xlink:href="#_Áåçûìÿííûé_ãðàäèåíò_151"/>
    <linearGradient id="_Áåçûìÿííûé_ãðàäèåíò_151-7" data-name="Áåçûìÿííûé ãðàäèåíò 151" x1="60.06" y1="60.93" x2="59.53" y2="31.15" xlink:href="#_Áåçûìÿííûé_ãðàäèåíò_151"/>
    <linearGradient id="_Áåçûìÿííûé_ãðàäèåíò_1547-2" data-name="Áåçûìÿííûé ãðàäèåíò 1547" x1="79.54" y1="78.9" x2="79.54" y2="20.51" xlink:href="#_Áåçûìÿííûé_ãðàäèåíò_1547"/>
    <linearGradient id="_Áåçûìÿííûé_ãðàäèåíò_151-8" data-name="Áåçûìÿííûé ãðàäèåíò 151" x1="94.24" y1="39.01" x2="69.84" y2="57.89" xlink:href="#_Áåçûìÿííûé_ãðàäèåíò_151"/>
    <linearGradient id="_Áåçûìÿííûé_ãðàäèåíò_151-9" data-name="Áåçûìÿííûé ãðàäèåíò 151" x1="73.67" y1="60.88" x2="81.41" y2="49.11" xlink:href="#_Áåçûìÿííûé_ãðàäèåíò_151"/>
    <linearGradient id="_Áåçûìÿííûé_ãðàäèåíò_672-4" data-name="Áåçûìÿííûé ãðàäèåíò 672" x1="86.09" y1="23.23" x2="86.09" y2="23.01" xlink:href="#_Áåçûìÿííûé_ãðàäèåíò_672"/>
    <linearGradient id="_Áåçûìÿííûé_ãðàäèåíò_672-5" data-name="Áåçûìÿííûé ãðàäèåíò 672" x1="80.47" y1="63.43" x2="80.47" y2="23.75" xlink:href="#_Áåçûìÿííûé_ãðàäèåíò_672"/>
    <linearGradient id="_Áåçûìÿííûé_ãðàäèåíò_151-10" data-name="Áåçûìÿííûé ãðàäèåíò 151" x1="75.53" y1="50" x2="75.53" y2="39.31" xlink:href="#_Áåçûìÿííûé_ãðàäèåíò_151"/>
    <linearGradient id="_Áåçûìÿííûé_ãðàäèåíò_151-11" data-name="Áåçûìÿííûé ãðàäèåíò 151" x1="79.28" y1="47.38" x2="79.28" y2="35.56" xlink:href="#_Áåçûìÿííûé_ãðàäèåíò_151"/>
    <linearGradient id="_Áåçûìÿííûé_ãðàäèåíò_151-12" data-name="Áåçûìÿííûé ãðàäèåíò 151" x1="82.68" y1="46.84" x2="82.68" y2="29.14" xlink:href="#_Áåçûìÿííûé_ãðàäèåíò_151"/>
    <linearGradient id="_Áåçûìÿííûé_ãðàäèåíò_672-6" data-name="Áåçûìÿííûé ãðàäèåíò 672" x1="59.99" y1="42.29" x2="59.99" y2="33.86" xlink:href="#_Áåçûìÿííûé_ãðàäèåíò_672"/>
    <linearGradient id="_Áåçûìÿííûé_ãðàäèåíò_672-7" data-name="Áåçûìÿííûé ãðàäèåíò 672" x1="40.89" y1="41.64" x2="40.89" y2="33.54" xlink:href="#_Áåçûìÿííûé_ãðàäèåíò_672"/>
    <linearGradient id="Gradient_9" data-name="Gradient 9" x1="54.85" y1="45.62" x2="64.73" y2="45.62" gradientUnits="userSpaceOnUse">
      <stop offset="0" stop-color="#ffe7e3"/>
      <stop offset="1" stop-color="#ffe6e4"/>
    </linearGradient>
    <clipPath id="clippath">
      <path class="cls-118" d="M64.73,46.88s-4.6-6.26-7.35-5.49c-1.55,.43-2.72,2.84-2.51,4.83,.21,2,1.79,3.84,4.38,3.67,2.58-.17,5.48-3.01,5.48-3.01Z"/>
    </clipPath>
    <linearGradient id="_Áåçûìÿííûé_ãðàäèåíò_252" data-name="Áåçûìÿííûé ãðàäèåíò 252" x1="61.09" y1="48.71" x2="59.9" y2="43.26" gradientUnits="userSpaceOnUse">
      <stop offset=".02" stop-color="#85757a"/>
      <stop offset=".99" stop-color="#563757"/>
    </linearGradient>
    <linearGradient id="_Áåçûìÿííûé_ãðàäèåíò_267" data-name="Áåçûìÿííûé ãðàäèåíò 267" x1="59.91" y1="48.15" x2="60.7" y2="43.15" gradientUnits="userSpaceOnUse">
      <stop offset="0" stop-color="#fff"/>
      <stop offset=".99" stop-color="#ab8bc2"/>
    </linearGradient>
    <linearGradient id="_Áåçûìÿííûé_ãðàäèåíò_4" data-name="Áåçûìÿííûé ãðàäèåíò 4" x1="60.07" y1="48.82" x2="58.5" y2="35.25" gradientUnits="userSpaceOnUse">
      <stop offset="0" stop-color="#fff"/>
      <stop offset=".99" stop-color="#b060f4"/>
    </linearGradient>
    <linearGradient id="Gradient_9-2" data-name="Gradient 9" x1="39.12" y1="45.95" x2="44.85" y2="45.95" xlink:href="#Gradient_9"/>
    <linearGradient id="Gradient_9-3" data-name="Gradient 9" x1="39.12" y1="45.95" x2="44.85" y2="45.95" xlink:href="#Gradient_9"/>
    <clipPath id="clippath-1">
      <path class="cls-111" d="M44.85,47.93s-2.36-7.28-4.45-5.96c-2.09,1.32-1.37,7.79,.41,8.1,1.78,.31,4.04-2.14,4.04-2.14Z"/>
    </clipPath>
    <linearGradient id="_Áåçûìÿííûé_ãðàäèåíò_252-2" data-name="Áåçûìÿííûé ãðàäèåíò 252" x1="42.47" y1="49.99" x2="41.96" y2="43.34" xlink:href="#_Áåçûìÿííûé_ãðàäèåíò_252"/>
    <linearGradient id="_Áåçûìÿííûé_ãðàäèåíò_267-2" data-name="Áåçûìÿííûé ãðàäèåíò 267" x1="41.69" y1="48.51" x2="42.48" y2="43.54" xlink:href="#_Áåçûìÿííûé_ãðàäèåíò_267"/>
    <linearGradient id="_Áåçûìÿííûé_ãðàäèåíò_4-2" data-name="Áåçûìÿííûé ãðàäèåíò 4" x1="42.42" y1="49.32" x2="40.38" y2="36.8" xlink:href="#_Áåçûìÿííûé_ãðàäèåíò_4"/>
    <linearGradient id="_Áåçûìÿííûé_ãðàäèåíò_672-8" data-name="Áåçûìÿííûé ãðàäèåíò 672" x1="59.84" y1="52.77" x2="59.55" y2="36.29" xlink:href="#_Áåçûìÿííûé_ãðàäèåíò_672"/>
    <linearGradient id="_Áåçûìÿííûé_ãðàäèåíò_672-9" data-name="Áåçûìÿííûé ãðàäèåíò 672" x1="42.05" y1="54.62" x2="41.71" y2="35.74" xlink:href="#_Áåçûìÿííûé_ãðàäèåíò_672"/>
    <linearGradient id="_Áåçûìÿííûé_ãðàäèåíò_151-13" data-name="Áåçûìÿííûé ãðàäèåíò 151" x1="85.67" y1="59.32" x2="80.68" y2="44.05" xlink:href="#_Áåçûìÿííûé_ãðàäèåíò_151"/>
    <linearGradient id="_Áåçûìÿííûé_ãðàäèåíò_1544-2" data-name="Áåçûìÿííûé ãðàäèåíò 1544" x1="46.32" y1="80.45" x2="46.32" y2="13.92" xlink:href="#_Áåçûìÿííûé_ãðàäèåíò_1544"/>
    <radialGradient id="_Áåçûìÿííûé_ãðàäèåíò_183" data-name="Áåçûìÿííûé ãðàäèåíò 183" cx="45.41" cy="61.27" fx="45.41" fy="61.27" r="10.19" gradientUnits="userSpaceOnUse">
      <stop offset="0" stop-color="#e5658e"/>
      <stop offset="1" stop-color="#fff"/>
    </radialGradient>
    <linearGradient id="_Áåçûìÿííûé_ãðàäèåíò_151-14" data-name="Áåçûìÿííûé ãðàäèåíò 151" x1="47.65" y1="65.68" x2="45.04" y2="56.02" xlink:href="#_Áåçûìÿííûé_ãðàäèåíò_151"/>
    <linearGradient id="_Áåçûìÿííûé_ãðàäèåíò_151-15" data-name="Áåçûìÿííûé ãðàäèåíò 151" x1="47.53" y1="65.23" x2="45.68" y2="58.36" xlink:href="#_Áåçûìÿííûé_ãðàäèåíò_151"/>
    <linearGradient id="_Áåçûìÿííûé_ãðàäèåíò_151-16" data-name="Áåçûìÿííûé ãðàäèåíò 151" x1="46.5" y1="55.77" x2="45.98" y2="69.06" xlink:href="#_Áåçûìÿííûé_ãðàäèåíò_151"/>
    <linearGradient id="_Áåçûìÿííûé_ãðàäèåíò_151-17" data-name="Áåçûìÿííûé ãðàäèåíò 151" x1="52.07" y1="86.29" x2="49.52" y2="68.53" xlink:href="#_Áåçûìÿííûé_ãðàäèåíò_151"/>
    <linearGradient id="_Áåçûìÿííûé_ãðàäèåíò_151-18" data-name="Áåçûìÿííûé ãðàäèåíò 151" x1="45.51" y1="87.24" x2="42.95" y2="69.48" xlink:href="#_Áåçûìÿííûé_ãðàäèåíò_151"/>
    <linearGradient id="_Áåçûìÿííûé_ãðàäèåíò_151-19" data-name="Áåçûìÿííûé ãðàäèåíò 151" x1="46.67" y1="80.92" x2="46.98" y2="65.19" xlink:href="#_Áåçûìÿííûé_ãðàäèåíò_151"/>
    <linearGradient id="linear-gradient" x1="74.72" y1="2.49" x2="74.72" y2="-30.46" gradientTransform="translate(-6.56 22.2) rotate(7.94) scale(.97 .99) skewX(5.91)" gradientUnits="userSpaceOnUse">
      <stop offset="0" stop-color="#dbcfe1"/>
      <stop offset="1" stop-color="#eae1f0"/>
    </linearGradient>
    <linearGradient id="linear-gradient-2" x1="74.72" y1="-5.79" x2="74.72" y2="-30.46" gradientTransform="translate(-6.56 22.2) rotate(7.94) scale(.97 .99) skewX(5.91)" gradientUnits="userSpaceOnUse">
      <stop offset="0" stop-color="#fff"/>
      <stop offset="1" stop-color="#997bab"/>
    </linearGradient>
    <linearGradient id="linear-gradient-3" x1="352.6" y1="-242.82" x2="415.35" y2="-242.82" gradientTransform="translate(432.07 312.09) rotate(-169.29) scale(.8 -.84) skewX(-29.99)" gradientUnits="userSpaceOnUse">
      <stop offset="0" stop-color="#8273ad"/>
      <stop offset=".46" stop-color="#9a92cc"/>
      <stop offset="1" stop-color="#b5b3ee"/>
    </linearGradient>
    <linearGradient id="_Áåçûìÿííûé_ãðàäèåíò_3614" data-name="Áåçûìÿííûé ãðàäèåíò 3614" x1="55.76" y1="104.61" x2="52.69" y2="89.82" gradientUnits="userSpaceOnUse">
      <stop offset="0" stop-color="#7c81b3"/>
      <stop offset="1" stop-color="#8682b3"/>
    </linearGradient>
    <linearGradient id="_Áåçûìÿííûé_ãðàäèåíò_3614-2" data-name="Áåçûìÿííûé ãðàäèåíò 3614" x1="76.07" y1="96.92" x2="73.62" y2="85.12" xlink:href="#_Áåçûìÿííûé_ãðàäèåíò_3614"/>
    <linearGradient id="_Áåçûìÿííûé_ãðàäèåíò_3649" data-name="Áåçûìÿííûé ãðàäèåíò 3649" x1="73.8" y1="85.51" x2="76.77" y2="100.68" gradientUnits="userSpaceOnUse">
      <stop offset="0" stop-color="#a097d0"/>
      <stop offset=".98" stop-color="#fff"/>
    </linearGradient>
    <linearGradient id="_Áåçûìÿííûé_ãðàäèåíò_3649-2" data-name="Áåçûìÿííûé ãðàäèåíò 3649" x1="52.87" y1="90.49" x2="56.56" y2="109.33" xlink:href="#_Áåçûìÿííûé_ãðàäèåíò_3649"/>
    <linearGradient id="_Áåçûìÿííûé_ãðàäèåíò_536" data-name="Áåçûìÿííûé ãðàäèåíò 536" x1="3.34" y1="253.94" x2="-14.42" y2="292.08" gradientTransform="translate(-85.7 -2.41) rotate(-25.48) scale(1.02 1.08)" gradientUnits="userSpaceOnUse">
      <stop offset="0" stop-color="#933b23"/>
      <stop offset=".98" stop-color="#ae4031"/>
    </linearGradient>
    <linearGradient id="_Áåçûìÿííûé_ãðàäèåíò_999" data-name="Áåçûìÿííûé ãðàäèåíò 999" x1="3.34" y1="253.94" x2="-14.42" y2="292.08" gradientTransform="translate(-85.7 -2.41) rotate(-25.48) scale(1.02 1.08)" gradientUnits="userSpaceOnUse">
      <stop offset="0" stop-color="#fff"/>
      <stop offset=".99" stop-color="#c98bc2"/>
    </linearGradient>
    <linearGradient id="_Áåçûìÿííûé_ãðàäèåíò_536-2" data-name="Áåçûìÿííûé ãðàäèåíò 536" x1="6.87" y1="254.74" x2="-11.58" y2="294.38" xlink:href="#_Áåçûìÿííûé_ãðàäèåíò_536"/>
    <linearGradient id="_Áåçûìÿííûé_ãðàäèåíò_999-2" data-name="Áåçûìÿííûé ãðàäèåíò 999" x1="6.87" y1="254.74" x2="-11.58" y2="294.38" xlink:href="#_Áåçûìÿííûé_ãðàäèåíò_999"/>
    <linearGradient id="_Áåçûìÿííûé_ãðàäèåíò_1125" data-name="Áåçûìÿííûé ãðàäèåíò 1125" x1="-10.15" y1="282.93" x2="-16.83" y2="303.31" gradientTransform="translate(-85.7 -2.41) rotate(-25.48) scale(1.02 1.08)" gradientUnits="userSpaceOnUse">
      <stop offset=".01" stop-color="#9090b0"/>
      <stop offset=".96" stop-color="#fff"/>
    </linearGradient>
    <linearGradient id="_Áåçûìÿííûé_ãðàäèåíò_3148" data-name="Áåçûìÿííûé ãðàäèåíò 3148" x1="2.97" y1="250.03" x2="-15.96" y2="290.69" gradientTransform="translate(-85.7 -2.41) rotate(-25.48) scale(1.02 1.08)" gradientUnits="userSpaceOnUse">
      <stop offset="0" stop-color="#ff9b6e"/>
      <stop offset="1" stop-color="#ff8357"/>
    </linearGradient>
    <linearGradient id="_Áåçûìÿííûé_ãðàäèåíò_999-3" data-name="Áåçûìÿííûé ãðàäèåíò 999" x1="-6.87" y1="297.98" x2="-4.54" y2="268.1" xlink:href="#_Áåçûìÿííûé_ãðàäèåíò_999"/>
    <linearGradient id="linear-gradient-4" x1="22.4" y1="76.96" x2="38.73" y2="338.02" gradientTransform="matrix(1, 0, 0, 1, 0, 0)" xlink:href="#linear-gradient"/>
    <linearGradient id="_Áåçûìÿííûé_ãðàäèåíò_1125-2" data-name="Áåçûìÿííûé ãðàäèåíò 1125" x1="60.42" y1="288.62" x2="11.87" y2="104.38" gradientTransform="matrix(1, 0, 0, 1, 0, 0)" xlink:href="#_Áåçûìÿííûé_ãðàäèåíò_1125"/>
    <linearGradient id="_Áåçûìÿííûé_ãðàäèåíò_3148-2" data-name="Áåçûìÿííûé ãðàäèåíò 3148" x1="-3.54" y1="253.74" x2="-18.91" y2="286.74" xlink:href="#_Áåçûìÿííûé_ãðàäèåíò_3148"/>
    <linearGradient id="_Áåçûìÿííûé_ãðàäèåíò_999-4" data-name="Áåçûìÿííûé ãðàäèåíò 999" x1="-16.98" y1="310.24" x2="-15.43" y2="290.36" xlink:href="#_Áåçûìÿííûé_ãðàäèåíò_999"/>
    <linearGradient id="_Áåçûìÿííûé_ãðàäèåíò_728" data-name="Áåçûìÿííûé ãðàäèåíò 728" x1="102.01" y1="504.41" x2="107.01" y2="490.07" gradientUnits="userSpaceOnUse">
      <stop offset="0" stop-color="#773960"/>
      <stop offset=".44" stop-color="#592154"/>
      <stop offset="1" stop-color="#2f0043"/>
    </linearGradient>
    <linearGradient id="_Áåçûìÿííûé_ãðàäèåíò_728-2" data-name="Áåçûìÿííûé ãðàäèåíò 728" x1="104.99" y1="466.91" x2="107.75" y2="463.14" xlink:href="#_Áåçûìÿííûé_ãðàäèåíò_728"/>
    <linearGradient id="_Áåçûìÿííûé_ãðàäèåíò_3649-3" data-name="Áåçûìÿííûé ãðàäèåíò 3649" x1="108.44" y1="254.67" x2="-44.95" y2="115.26" xlink:href="#_Áåçûìÿííûé_ãðàäèåíò_3649"/>
    <linearGradient id="_Áåçûìÿííûé_ãðàäèåíò_669" data-name="Áåçûìÿííûé ãðàäèåíò 669" x1="15.6" y1="388.48" x2="-20.36" y2="419.39" gradientUnits="userSpaceOnUse">
      <stop offset="0" stop-color="#935eb9"/>
      <stop offset="1" stop-color="#ffdec7"/>
    </linearGradient>
    <linearGradient id="linear-gradient-5" x1="39.12" y1="232.88" x2="79.06" y2="109.8" gradientTransform="matrix(1, 0, 0, 1, 0, 0)" xlink:href="#linear-gradient"/>
    <linearGradient id="_Áåçûìÿííûé_ãðàäèåíò_3649-4" data-name="Áåçûìÿííûé ãðàäèåíò 3649" x1="42.21" y1="79.76" x2="50.77" y2="127.03" xlink:href="#_Áåçûìÿííûé_ãðàäèåíò_3649"/>
    <linearGradient id="_Áåçûìÿííûé_ãðàäèåíò_3649-5" data-name="Áåçûìÿííûé ãðàäèåíò 3649" x1="73.34" y1="74.12" x2="81.9" y2="121.4" xlink:href="#_Áåçûìÿííûé_ãðàäèåíò_3649"/>
    <linearGradient id="_Áåçûìÿííûé_ãðàäèåíò_3649-6" data-name="Áåçûìÿííûé ãðàäèåíò 3649" x1="49.09" y1="112.23" x2="71.93" y2="166.3" xlink:href="#_Áåçûìÿííûé_ãðàäèåíò_3649"/>
    <linearGradient id="_Áåçûìÿííûé_ãðàäèåíò_3649-7" data-name="Áåçûìÿííûé ãðàäèåíò 3649" x1="31.4" y1="120.57" x2="54.7" y2="175.73" xlink:href="#_Áåçûìÿííûé_ãðàäèåíò_3649"/>
    <linearGradient id="_Áåçûìÿííûé_ãðàäèåíò_3649-8" data-name="Áåçûìÿííûé ãðàäèåíò 3649" x1="65.37" y1="231.32" x2="62.08" y2="189.44" xlink:href="#_Áåçûìÿííûé_ãðàäèåíò_3649"/>
    <linearGradient id="linear-gradient-6" x1="45.47" y1="215.24" x2="66.25" y2="215.24" gradientTransform="matrix(1, 0, 0, 1, 0, 0)" xlink:href="#linear-gradient"/>
    <linearGradient id="_Áåçûìÿííûé_ãðàäèåíò_3649-9" data-name="Áåçûìÿííûé ãðàäèåíò 3649" x1="1.16" y1="185.11" x2="51.71" y2="178.05" xlink:href="#_Áåçûìÿííûé_ãðàäèåíò_3649"/>
    <linearGradient id="_Áåçûìÿííûé_ãðàäèåíò_3649-10" data-name="Áåçûìÿííûé ãðàäèåíò 3649" x1="118.8" y1="186.83" x2="89.91" y2="115.3" xlink:href="#_Áåçûìÿííûé_ãðàäèåíò_3649"/>
    <linearGradient id="_Áåçûìÿííûé_ãðàäèåíò_3649-11" data-name="Áåçûìÿííûé ãðàäèåíò 3649" x1="96.49" y1="184.73" x2="45.96" y2="184.62" xlink:href="#_Áåçûìÿííûé_ãðàäèåíò_3649"/>
    <linearGradient id="_Áåçûìÿííûé_ãðàäèåíò_3649-12" data-name="Áåçûìÿííûé ãðàäèåíò 3649" x1="61.7" y1="104.05" x2="67.51" y2="191.92" xlink:href="#_Áåçûìÿííûé_ãðàäèåíò_3649"/>
    <linearGradient id="_Áåçûìÿííûé_ãðàäèåíò_3614-3" data-name="Áåçûìÿííûé ãðàäèåíò 3614" x1="64.57" y1="234.41" x2="61.92" y2="221.65" gradientTransform="translate(-51.59 19.31) rotate(-26.26)" xlink:href="#_Áåçûìÿííûé_ãðàäèåíò_3614"/>
    <linearGradient id="_Áåçûìÿííûé_ãðàäèåíò_3148-3" data-name="Áåçûìÿííûé ãðàäèåíò 3148" x1="49.58" y1="250.37" x2="47.79" y2="243.76" gradientTransform="translate(-51.59 19.31) rotate(-26.26)" xlink:href="#_Áåçûìÿííûé_ãðàäèåíò_3148"/>
    <linearGradient id="_Áåçûìÿííûé_ãðàäèåíò_281" data-name="Áåçûìÿííûé ãðàäèåíò 281" x1="19.54" y1="299.37" x2="48.27" y2="246.34" gradientTransform="translate(-51.59 19.31) rotate(-26.26)" gradientUnits="userSpaceOnUse">
      <stop offset="0" stop-color="#fff"/>
      <stop offset=".17" stop-color="#fdf7fa"/>
      <stop offset=".42" stop-color="#f8e3ec"/>
      <stop offset=".73" stop-color="#f0c2d7"/>
      <stop offset=".99" stop-color="#e89fc0"/>
    </linearGradient>
    <linearGradient id="_Áåçûìÿííûé_ãðàäèåíò_3148-4" data-name="Áåçûìÿííûé ãðàäèåíò 3148" x1="39.48" y1="220.66" x2="37.7" y2="214.04" gradientTransform="translate(-55.74 -2.11) rotate(-22.04) scale(1.04 1.21) skewX(4.93)" xlink:href="#_Áåçûìÿííûé_ãðàäèåíò_3148"/>
    <linearGradient id="_Áåçûìÿííûé_ãðàäèåíò_281-2" data-name="Áåçûìÿííûé ãðàäèåíò 281" x1="9.44" y1="269.65" x2="38.17" y2="216.62" gradientTransform="translate(-55.74 -2.11) rotate(-22.04) scale(1.04 1.21) skewX(4.93)" xlink:href="#_Áåçûìÿííûé_ãðàäèåíò_281"/>
    <linearGradient id="_Áåçûìÿííûé_ãðàäèåíò_3148-5" data-name="Áåçûìÿííûé ãðàäèåíò 3148" x1="36.02" y1="218.95" x2="34.23" y2="212.33" gradientTransform="translate(-55.74 -2.11) rotate(-22.04) scale(1.04 1.21) skewX(4.93)" xlink:href="#_Áåçûìÿííûé_ãðàäèåíò_3148"/>
    <linearGradient id="_Áåçûìÿííûé_ãðàäèåíò_281-3" data-name="Áåçûìÿííûé ãðàäèåíò 281" x1="5.98" y1="267.94" x2="34.71" y2="214.91" gradientTransform="translate(-55.74 -2.11) rotate(-22.04) scale(1.04 1.21) skewX(4.93)" xlink:href="#_Áåçûìÿííûé_ãðàäèåíò_281"/>
    <linearGradient id="_Áåçûìÿííûé_ãðàäèåíò_3148-6" data-name="Áåçûìÿííûé ãðàäèåíò 3148" x1="77.66" y1="246.61" x2="70.12" y2="218.7" gradientTransform="translate(-51.59 19.31) rotate(-26.26)" xlink:href="#_Áåçûìÿííûé_ãðàäèåíò_3148"/>
    <linearGradient id="_Áåçûìÿííûé_ãðàäèåíò_281-4" data-name="Áåçûìÿííûé ãðàäèåíò 281" x1="50.99" y1="239.6" x2="50" y2="235.93" xlink:href="#_Áåçûìÿííûé_ãðàäèåíò_281"/>
    <linearGradient id="_Áåçûìÿííûé_ãðàäèåíò_281-5" data-name="Áåçûìÿííûé ãðàäèåíò 281" x1="38.55" y1="256.9" x2="31.31" y2="230.14" xlink:href="#_Áåçûìÿííûé_ãðàäèåíò_281"/>
    <linearGradient id="_Áåçûìÿííûé_ãðàäèåíò_281-6" data-name="Áåçûìÿííûé ãðàäèåíò 281" x1="32.74" y1="251.51" x2="28.24" y2="234.85" xlink:href="#_Áåçûìÿííûé_ãðàäèåíò_281"/>
    <linearGradient id="_Áåçûìÿííûé_ãðàäèåíò_281-7" data-name="Áåçûìÿííûé ãðàäèåíò 281" x1="35.62" y1="251.43" x2="32.07" y2="238.3" xlink:href="#_Áåçûìÿííûé_ãðàäèåíò_281"/>
    <linearGradient id="_Áåçûìÿííûé_ãðàäèåíò_281-8" data-name="Áåçûìÿííûé ãðàäèåíò 281" x1="38.66" y1="251.39" x2="35.74" y2="240.58" xlink:href="#_Áåçûìÿííûé_ãðàäèåíò_281"/>
    <linearGradient id="_Áåçûìÿííûé_ãðàäèåíò_281-9" data-name="Áåçûìÿííûé ãðàäèåíò 281" x1="94.2" y1="242.14" x2="86.66" y2="214.23" xlink:href="#_Áåçûìÿííûé_ãðàäèåíò_281"/>
    <linearGradient id="linear-gradient-7" x1="99.26" y1="237.56" x2="135.66" y2="125.39" gradientTransform="matrix(1, 0, 0, 1, 0, 0)" xlink:href="#linear-gradient"/>
    <linearGradient id="_Áåçûìÿííûé_ãðàäèåíò_3649-13" data-name="Áåçûìÿííûé ãðàäèåíò 3649" x1="68.81" y1="281.59" x2="121.69" y2="90.44" gradientTransform="translate(-51.59 19.31) rotate(-26.26)" xlink:href="#_Áåçûìÿííûé_ãðàäèåíò_3649"/>
    <linearGradient id="_Áåçûìÿííûé_ãðàäèåíò_3649-14" data-name="Áåçûìÿííûé ãðàäèåíò 3649" x1="99.86" y1="246.63" x2="87.86" y2="179.92" gradientTransform="translate(-51.59 19.31) rotate(-26.26)" xlink:href="#_Áåçûìÿííûé_ãðàäèåíò_3649"/>
    <linearGradient id="_Áåçûìÿííûé_ãðàäèåíò_3649-15" data-name="Áåçûìÿííûé ãðàäèåíò 3649" x1="85.86" y1="180.22" x2="105.6" y2="238.22" gradientTransform="translate(-51.59 19.31) rotate(-26.26)" xlink:href="#_Áåçûìÿííûé_ãðàäèåíò_3649"/>
    <linearGradient id="_Áåçûìÿííûé_ãðàäèåíò_3649-16" data-name="Áåçûìÿííûé ãðàäèåíò 3649" x1="-2.8" y1="203.61" x2="51.08" y2="186.49" xlink:href="#_Áåçûìÿííûé_ãðàäèåíò_3649"/>
    <linearGradient id="_Áåçûìÿííûé_ãðàäèåíò_3649-17" data-name="Áåçûìÿííûé ãðàäèåíò 3649" x1="61.94" y1="103.66" x2="45.52" y2="112.54" xlink:href="#_Áåçûìÿííûé_ãðàäèåíò_3649"/>
    <linearGradient id="_Áåçûìÿííûé_ãðàäèåíò_3649-18" data-name="Áåçûìÿííûé ãðàäèåíò 3649" x1="64.11" y1="98.8" x2="76.68" y2="114.33" xlink:href="#_Áåçûìÿííûé_ãðàäèåíò_3649"/>
    <linearGradient id="_Áåçûìÿííûé_ãðàäèåíò_3649-19" data-name="Áåçûìÿííûé ãðàäèåíò 3649" x1="34.45" y1="105.74" x2="50.86" y2="105.74" xlink:href="#_Áåçûìÿííûé_ãðàäèåíò_3649"/>
    <linearGradient id="_Áåçûìÿííûé_ãðàäèåíò_3649-20" data-name="Áåçûìÿííûé ãðàäèåíò 3649" x1="80.03" y1="81.63" x2="60.47" y2="101.92" xlink:href="#_Áåçûìÿííûé_ãðàäèåíò_3649"/>
    <linearGradient id="linear-gradient-8" x1="47.11" y1="209.32" x2="47.11" y2="116.61" gradientUnits="userSpaceOnUse">
      <stop offset="0" stop-color="#fff"/>
      <stop offset=".99" stop-color="#a296b7"/>
    </linearGradient>
    <linearGradient id="linear-gradient-9" x1="49.83" y1="124.3" x2="49.83" y2="120.14" gradientTransform="translate(6.81 8.29) rotate(2.93)" gradientUnits="userSpaceOnUse">
      <stop offset=".01" stop-color="#655b7b"/>
      <stop offset="1" stop-color="#fff"/>
    </linearGradient>
    <linearGradient id="linear-gradient-10" x1="66.79" y1="124.6" x2="66.79" y2="121" xlink:href="#linear-gradient-9"/>
    <linearGradient id="linear-gradient-11" x1="49.47" y1="147.42" x2="49.47" y2="143.26" xlink:href="#linear-gradient-9"/>
    <linearGradient id="linear-gradient-12" x1="66.44" y1="147.72" x2="66.44" y2="144.12" xlink:href="#linear-gradient-9"/>
    <linearGradient id="linear-gradient-13" x1="49.13" y1="169.44" x2="49.13" y2="165.28" xlink:href="#linear-gradient-9"/>
    <linearGradient id="linear-gradient-14" x1="66.1" y1="169.74" x2="66.1" y2="166.13" xlink:href="#linear-gradient-9"/>
    <linearGradient id="linear-gradient-15" x1="50.33" y1="192.81" x2="50.33" y2="188.66" xlink:href="#linear-gradient-9"/>
    <linearGradient id="linear-gradient-16" x1="67.29" y1="193.11" x2="67.29" y2="189.51" xlink:href="#linear-gradient-9"/>
    <linearGradient id="linear-gradient-17" x1="41.63" y1="206.51" x2="41.63" y2="165.88" gradientUnits="userSpaceOnUse">
      <stop offset=".01" stop-color="#a094b5"/>
      <stop offset="1" stop-color="#fff"/>
    </linearGradient>
  </defs>
  <g class="cls-91">
    <g id="Capa_1" data-name="Capa 1">
      <g>
        <g id="Cara">
          <g>
            <path class="cls-123" d="M81.34,42.1s2.75,2.39,2.52,2.86c-1.79,3.52-8.96,18.32-9.77,19.58-.41,.64-2.17,.76-2.19-1.74-.03-3.11,1.74-9.06,1.74-9.06l7.71-11.63Z"/>
            <path class="cls-25" d="M81.34,42.1s2.75,2.39,2.52,2.86c-1.79,3.52-8.96,18.32-9.77,19.58-.41,.64-2.17,.76-2.19-1.74-.03-3.11,1.74-9.06,1.74-9.06l7.71-11.63Z"/>
            <path class="cls-100" d="M41.19,51.24s-5.3-6.93-7.54-5.5c-2.24,1.43,.41,12.43,3.26,12.84,2.85,.41,6.32,1.02,6.32,1.02l-2.04-8.35Z"/>
            <path class="cls-21" d="M41.19,51.24s-5.3-6.93-7.54-5.5c-2.24,1.43,.41,12.43,3.26,12.84,2.85,.41,6.32,1.02,6.32,1.02l-2.04-8.35Z"/>
            <path class="cls-61" d="M37.96,52.53s-1.72-4.84-3.17-4.57c-1.45,.27,.27,6.29,.27,6.29,0,0-1.13-3.44,.16-3.33,1.29,.11,1.88,3.22,1.88,3.22,0,0-.91-1.72-1.24-.75-.32,.97,1.4,3.92,1.45,3.71,.05-.21,.64-4.57,.64-4.57Z"/>
            <path class="cls-108" d="M75.77,45.99c0,.61-3.87,25.27-2.24,39.33,1.63,14.06,3.46,38.95,3.46,38.95,0,0-15.28,7.74-17.52,6.11-.85-.62-8.83-1.78-9.52-8.8-.04-.45,6.95-4.94,6.91-5.4-1.01-11.34-1.34-46.75,.36-55.73,.59-.26,18.54-14.47,18.54-14.47Z"/>
            <path class="cls-57" d="M73.3,82.78c-2.88,3.79-12.41,12.26-12.41,12.26,0,0-.45,5.1-1.18,8.97-.3-1.2-.43-4.91-.99-7.05-.89-3.41-2.21-5.22-2.15-4.45,.09,1.26,.19,2.49,.29,3.67,.04,.46-6.96,4.95-6.91,5.4,.68,7.03,8.66,8.18,9.52,8.8,2.24,1.63,17.52-6.11,17.52-6.11,0,0-1.83-4.89-3.46-18.95-.09-.81-.17-1.66-.23-2.54Z"/>
            <path class="cls-72" d="M74.58,93.14c-.35-2.21-.71-4.8-1.06-7.82-1.63-14.06,2.24-38.72,2.24-39.33,0,0-17.96,14.2-18.54,14.47-1,5.29-1.3,12.83-1.17,20.44,7.81,1.23,15.25,5.48,18.52,12.24Z"/>
            <path class="cls-83" d="M38.33,29.15s-3.06,12.46-2.52,13.14c.53,.69,2.6,4.89,2.37,8.33-.23,3.44-1.53,7.18-1.53,7.18l1.68,4.28s5.35-5.2,5.27-5.88c-.08-.69-5.27-27.05-5.27-27.05Z"/>
            <path class="cls-1" d="M44.67,17.54c-1.96,1.81-5.65,5.84-6.8,12.53-1.15,6.69-1.6,10.24-1.6,10.24,0,0,3,3.57,2.31,10.42s-4.46,26.78-2.46,28.78c2,2,23.85-.46,27.16-3.46,3.31-3,9.7-15.7,10.39-18.24,.14-.53,.42-2.08,.71-4.24,4.37-2.8,11.53-13.59,11.79-19.19,.82-17.52-14.2-21.77-25.88-22.21-9.65-.36-13.65,3.57-15.61,5.37Z"/>
            <path class="cls-119" d="M43.95,68.65c.41-.1,5.93,.08,5.93,.08,0,0-3.07-.83-4.4-.7s-1.53,.61-1.53,.61Z"/>
            <path class="cls-30" d="M45.9,50.92c-2.16,5.27-8.16,6.02-7.94,4.53,.27-1.87,.49-3.5,.61-4.72,.69-6.85-2.3-10.42-2.3-10.42,0,0,2.31-6.09,4.56-5.4,2.25,.69,4.78,4.46,4.78,4.46,0,0,2.76,5.54,.3,11.54Z"/>
            <path class="cls-70" d="M86.16,34.38c-.26,5.6-7.42,16.39-11.79,19.19-.29,2.17-.56,3.71-.71,4.25-.68,2.54-7.07,15.23-10.38,18.23-3.3,3.01-25.16,5.47-27.16,3.46-.92-.92-.62-5.59,.03-11.05,.31,3.22,.65,6.95,1.12,8.21,.92,2.44,14.7-2.55,19.06-5,4.36-2.45,8.86-13.24,9.17-16.09,.31-2.86-7.27-.37-10.9-2.96-3.63-2.59-2.33-13.32-2.33-13.32,0,0,3.64-3.67,7.52-3.18,3.88,.49,6.99,3.03,6.99,3.03,0,0,.75-11.26,3.95-15.95,2.95-4.31,8.39-1.98,7.8-3.97-1.23-4.15-10.15-6.15-18.23-7.06,11.68,.43,26.69,4.68,25.88,22.21Z"/>
            <path class="cls-51" d="M39.13,47.31c.23,1.15,.17,3.38,1.72,3.33,1.8-.06,3.99-2.71,3.99-2.71,0,0-.6-8.15-4.39-7.57-1.35,.21-1.55,5.8-1.32,6.95Z"/>
            <path class="cls-74" d="M54.88,46.23c0-.7-.12-2.78,.45-4.34,.45-1.24,1.5-2.11,2.28-2.04,4.91,.43,7.12,7.04,7.12,7.04,0,0-1.4,3.59-6.6,3.58-2.41,0-3.25-2.97-3.25-4.23Z"/>
            <path class="cls-104" d="M73.53,48.64s8.97-5.71,12.02-3.06c3.06,2.65-6.11,12.23-8.56,12.84-2.45,.61-4.08,.41-4.08,.41l.61-10.19Z"/>
            <path class="cls-52" d="M73.53,48.64s8.97-5.71,12.02-3.06c3.06,2.65-6.11,12.23-8.56,12.84-2.45,.61-4.08,.41-4.08,.41l.61-10.19Z"/>
            <path class="cls-6" d="M75.54,52.79s1.18-2.15,2.7-3.49c2.15-1.89,4.98-3.12,6.04-2.78,1.81,.59-1.27,5.48-1.27,5.48,0,0,1.5-4.28,.15-4.05-1.35,.23-4.74,3.67-4.64,3.62,.1-.05,2.32-1.4,2.62-.48s-4.3,5.53-4.3,5.53c0,0,1.58-2.37,.99-3.34-.59-.97-2.29-.48-2.29-.48Z"/>
            <g>
              <path class="cls-78" d="M86.16,23.21c-.1-.16-.15-.24-.15-.24,0,0,.06,.09,.15,.24Z"/>
              <path class="cls-97" d="M86.16,23.21c.14,.22,.35,.59,.6,1.07-3.05-5.2-10.78-8.61-10.78-8.61,0,0,8.17,5.6,3.52,14.81,.49,.64,.11,1.63,.11,1.63,0,0-.4-.06-.81-.39-.17,.28-.35,.56-.54,.84-.68,.99-1.43,1.93-2.18,2.77,.12,.91,.18,2.26,.18,2.26,0,0-.71-.7-1.13-1.23-.99,1.04-1.91,1.89-2.54,2.44,.31,1.19,.83,3.27,.94,3.69-.11-.44-.69-2.62-1.37-3.32-.27,.23-.44,.37-.44,.37,1.38,4.88,2.06,11.47,.98,19.95l2.04-5.56s.31-3.34,2.12-5.64c2.6-3.29,7-3.38,7.01-3.4,.06-.1,4.66-8.71,5.23-12,.63-3.59-2.25-8.55-2.95-9.69Zm2.44,9.08c-.35,2.59-1.95,6.37-3.23,9.1,1.73-4.19,3.89-10.51,2.17-15.41,.72,1.77,1.36,4.09,1.06,6.32Z"/>
              <path class="cls-75" d="M73.71,37.78c1.44,3.68,2.45,7.37,2.71,11.16,.14-.22,.29-.44,.45-.65,.15-.19,.31-.38,.48-.55-.38-3.67-1.6-7.24-2.98-10.61-.23,.23-.45,.44-.66,.64Z"/>
              <path class="cls-26" d="M81.09,45.45c.53-4.11-.69-8.8-3.26-12.31-.16,.22-.32,.44-.48,.65,2.46,3.82,2.7,8.3,2.02,12.41,.59-.33,1.18-.57,1.73-.76Z"/>
              <path class="cls-67" d="M80.89,25.53c-.02,.26-.02,.52-.06,.79,3.24,5.76,3.23,12.3,1.69,18.77,.82-.16,1.37-.18,1.37-.19,0-.02,.12-.23,.3-.57,1.07-6.27-.5-13.01-3.29-18.8Z"/>
            </g>
            <path class="cls-109" d="M62.39,32.47c-1.61-.34-4.83,2.08-7.21,4.13,.22-1.14,2.21-4.56,1.65-4.46-1.82,.32-5.46,6.82-4.57,7.15,0,0,6.13-1.66,9.47-1.39,3.34,.27,6.16,3.55,6.16,3.55,0,0-2.74-8.39-5.48-8.98Z"/>
            <path class="cls-86" d="M44.77,31.89c-.41-.08-.74,3.03-.07,5.45-1.05-1.82-4.1-4.1-5.58-3.71-2.05,.55-2.93,7.2-2.93,7.2,0,0,.24-1.88,2.56-2.49,1.78-.47,5.53,.12,6.86,1.03,0,0-.42-7.4-.83-7.48Z"/>
            <g>
              <path class="cls-118" d="M64.73,46.88s-4.6-6.26-7.35-5.49c-1.55,.43-2.72,2.84-2.51,4.83,.21,2,1.79,3.84,4.38,3.67,2.58-.17,5.48-3.01,5.48-3.01Z"/>
              <g class="cls-114">
                <g>
                  <path class="cls-120" d="M59.93,41.24c-3.42,.57-3.88,8.43,.8,7.52,4.67-.91,2.62-8.09-.8-7.52Z"/>
                  <path class="cls-28" d="M60.07,42.49c-2.29,.38-2.6,5.65,.53,5.04s1.76-5.42-.53-5.04Z"/>
                </g>
              </g>
            </g>
            <path class="cls-36" d="M64.73,46.88s-.23,.22-.61,.55c-.99-.92-3.18-2.84-6.02-3.18-2.02-.24-2.88,.78-3.24,1.81-.14-1.95,1.02-4.24,2.52-4.66,2.75-.77,7.35,5.49,7.35,5.49Z"/>
            <g>
              <path class="cls-116" d="M44.85,47.93s-2.36-7.28-4.45-5.96c-2.09,1.32-1.37,7.79,.41,8.1,1.78,.31,4.04-2.14,4.04-2.14Z"/>
              <g class="cls-101">
                <g>
                  <path class="cls-92" d="M41.82,41.62c-2.57,.57-2.91,8.43,.6,7.52s1.97-8.09-.6-7.52Z"/>
                  <path class="cls-27" d="M41.93,42.87c-1.72,.38-1.95,5.65,.4,5.04,2.35-.61,1.32-5.42-.4-5.04Z"/>
                </g>
              </g>
            </g>
            <path class="cls-44" d="M44.81,47.8c-.68-.69-2.43-2.38-4.27-2.87-.66-.18-1.1,0-1.42,.34,.05-1.44,.43-2.79,1.27-3.3,1.93-1.22,4.08,4.86,4.41,5.83Z"/>
            <path class="cls-124" d="M64.73,46.88s-4.63-5.11-7.78-4.71c-2.2,.28-2.1,4.04-2.17,3.83-.05-.16-.13-4.26-.13-4.26,0,0,1.82-.72,2.69-.74,3.32-.07,7.4,5.87,7.4,5.87Z"/>
            <path class="cls-82" d="M44.85,47.93s-2.36-6.8-4.19-6.8c-.37,0-1.59,.46-1.59,.46l-.11,3.64s.14-3.03,1.69-2.75,4.19,5.46,4.19,5.46Z"/>
            <path class="cls-49" d="M86.58,23.94c.06,.1,.11,.21,.18,.33-.35-.59-.76-1.16-1.21-1.7,.4,2.81,.44,7.1-1.33,12.49-2.47,7.48-8.28,9.95-11.28,10.78,.43,3.85,.44,8.39-.22,13.65l2.05-5.56s.31-3.34,2.12-5.65c2.6-3.29,7-3.38,7.01-3.4,.06-.1,4.66-8.7,5.24-11.99,.53-3.05-1.49-7.13-2.54-8.96Zm2.03,8.35c-.36,2.59-1.95,6.37-3.24,9.1,1.74-4.19,3.9-10.5,2.17-15.42,.72,1.77,1.36,4.09,1.06,6.32Z"/>
            <g>
              <path class="cls-94" d="M51.97,62.84c.23-.08,.79-1.25,.83-2.19,.02-.49-2.22-20.23-3.23-19.99-.62,.15-2.61,5.25-5,10.2-1.73,3.58-3.98,6.96-4.59,8.9-.22,.7-.15,1.49-.07,1.65,.2,.44,3.08,2.08,4.73,2.12,1.84,.04,6.98-.57,7.33-.68Z"/>
              <path class="cls-31" d="M51.97,62.84c.23-.08,.79-1.25,.83-2.19,.02-.49-2.22-20.23-3.23-19.99-.62,.15-2.61,5.25-5,10.2-1.73,3.58-3.98,6.96-4.59,8.9-.22,.7-.15,1.49-.07,1.65,.2,.44,3.08,2.08,4.73,2.12,1.84,.04,6.98-.57,7.33-.68Z"/>
              <path class="cls-76" d="M51.97,62.84c.34-.11,1.46-2.75,.36-3.3,.37,.15,.67,3.43-3.21,.94s-5.66-3.36-6.66-3.12c-1.24,.29-3.09,2.82-2.54,4.04,.2,.44,3.08,2.08,4.73,2.12,1.84,.04,6.98-.57,7.33-.68Z"/>
              <path class="cls-34" d="M52.33,59.55c.32,.13,.56,2.47-1.69,1.71-5.63,2.78-9.23,1.55-10.76-.87-.09,.38-.1,.73,.03,1.02,.2,.44,3.08,2.08,4.73,2.12,1.84,.04,6.98-.57,7.33-.68,.34-.11,1.46-2.75,.36-3.3Z"/>
              <path class="cls-33" d="M51.97,62.84c.34-.11,1.46-2.75,.36-3.3,.37,.15,.67,3.43-3.21,.94s-5.66-3.36-6.66-3.12c-1.24,.29-3.09,2.82-2.54,4.04,.2,.44,1.45,6.4,4.8,6.39,3.35-.02,6.92-4.84,7.26-4.95Z"/>
              <path class="cls-20" d="M50.25,63.09c-.82,.1-1.83,.2-2.8,.29-.31,.03-.44-1.2,.21-1.36,.57-.13,1.79,.56,2.59,1.08Z"/>
              <path class="cls-32" d="M42.71,63.05c-.55-.21-1.1-.47-1.56-.74,.28-.57,.65-1.11,1.02-1.04,.47,.08,.55,1.07,.54,1.78Z"/>
              <path class="cls-80" d="M43.06,55.71c-.69,.04-1.88,1.9-.6,1.66,1.28-.24,1.82-1.73,.6-1.66Z"/>
            </g>
            <path class="cls-79" d="M58.21,46.44c-1.33-.48-2.85,.99-1.51,1.16,1.34,.17,2.16-.93,1.51-1.16Z"/>
            <path class="cls-79" d="M40.68,47.37c-.7-.3-1.57,.47-.82,.7,.76,.23,1.22-.52,.82-.7Z"/>
            <path class="cls-18" d="M43.95,68.65s.39,1.22,1.56,1.28c1.17,.06,4.37-1.2,4.37-1.2,0,0-2.53-.33-3.82-.37-1.28-.04-2.11,.29-2.11,.29Z"/>
            <path class="cls-80" d="M47.1,45.73s-5.82,10.55-5.07,10.07c.75-.48,5.34-9.31,5.07-10.07Z"/>
          </g>
          <g>
            <g>
              <path class="cls-105" d="M33.29,10.87S43.83-.94,57.9,.06c17.4,1.24,36.9,20.54,36.9,20.54,0,0-25.7-15.24-37.45-15.87-10.14-.55-24.07,6.14-24.07,6.14Z"/>
              <path class="cls-122" d="M98.69,26.64c-.78,2.02-3.27,2.94-5.59,3.69-1.42,.45-3.87,.85-4.57,2.29-.35,.71,.07,1.31,.07,2.05,0,.81-.51,1.55-1.19,1.94-.9,.52-2.03,.57-3.11,.54-11.49-.26-22.58-7.41-34.09-7.9-.73-.03-1.47-.04-2.18-.3-.48-.18-.92-.46-1.35-.75-2.33-1.54-4.58-3.21-6.74-4.97-.86-.7-2.33-1.61-2.81-2.57-.54-1.09-.85-1.83-1.79-2.78-1.23-1.25-2.71-2.59-3.14-4.36-.87-3.58,13.66-12.74,25.81-12.68,14.6,2.16,42.6,20.81,40.68,25.8Z"/>
              <path class="cls-11" d="M98.69,26.64c-.78,2.02-3.27,2.94-5.59,3.69-.36-.27-.51-.57-.38-.9,1.05-2.48-19.55-20.16-34.58-20.88-12.54-.6-25.32,6.43-22.78,9.35h-.01c-1.23-1.25-2.71-2.6-3.14-4.36-.87-3.58,13.66-12.74,25.81-12.68,14.6,2.16,42.6,20.81,40.68,25.8Z"/>
            </g>
            <path class="cls-103" d="M36.47,32.19c3.88,.07,9.71,.29,16.8,.94,3.1,.28,6.47,.66,10.03,1.14,2.38,.32,4.85,.7,7.4,1.13,2.51,.43,4.88,.88,7.08,1.33t.02,0c3.7,.76,6.92,1.52,9.66,2.22,.04-.12,.09-.23,.13-.35,.09-.24,.13-.34,.13-.35,.08-.2,.62-2.03,2.12-7.13-7.66-5.1-14.77-8.25-19.76-10.15-4.74-1.8-8.08-2.89-12.53-3.54-9.04-1.32-16.64,2.07-19.97,3.84-.29,2.86-.57,5.71-.87,8.57-.08,.77-.16,1.56-.24,2.34Z"/>
            <path class="cls-15" d="M83.14,38.13s-1.31-.6-3.44-.83c-2.06-.22-17.69-.83-27.81-1.91-6.56-.7-11.18-1.72-13.53-2.3-.15-.04-.92,0-1.41-.36-.16-.12-.19-.2-.32-.32-.23-.22-.7-.47-1.76-.57,0,0,6.69-2.34,15.86-1.99,11.37,.43,28.84,6.31,28.84,6.31l3.57,1.96Z"/>
            <path class="cls-98" d="M34.88,31.85c.29,1.66,7.41-.9,16.82,.2,11.65,1.37,27.63,6.39,27.88,4.12,0,0-10.29-8.4-27.95-8.98-12.93-.43-16.94,3.56-16.75,4.66Z"/>
            <path class="cls-84" d="M34.88,31.85c.29,1.66,7.41-.9,16.82,.2,11.65,1.37,27.63,6.39,27.88,4.12-2.55,.55-18.29-3.96-27.35-5.04-7.64-.9-15.78,1.26-17.35,.71Z"/>
          </g>


          <animateTransform
            attributeName="transform"
            type="translate"
            values="0,0; 0,4; 0,0"
            dur="4s"
            repeatCount="indefinite"
            additive="sum"
            id="animacionCabeza"
            keyTimes="0; 0.5; 1"
            keySplines="0.42 0 0.58 1; 0.42 0 0.58 1"
            calcMode="spline"
          />






        </g>
        <g id="Cuerpo" transform-origin="270 465">
          <g>
            <g>
              <path class="cls-87" d="M57.16,105.46c-.51-5.73-1.12-12.49-1.11-18.94-.52,.27-.55,.44-.55,.44,0,0-4.75,4.04-4.89,8.37-.12,3.74,.83,9.01,2.27,13.43,1.97-1.4,4.31-3.03,4.29-3.29Z"/>
              <path class="cls-106" d="M73.16,83.14c-.11,4.06,.27,8.13,.66,11.46,.23,2.02,.47,3.83,.71,5.48,.24-.46,.47-.89,.67-1.28,3.19-6.24,1.76-12.17-2.04-15.65Z"/>
            </g>
            <g>
              <path class="cls-58" d="M73.11,83.02c-.11,4.06,.32,8.25,.71,11.58,.23,2.02,.47,3.83,.71,5.48,.24-.46,.47-.89,.67-1.28,3.19-6.24,1.71-12.29-2.09-15.77Z"/>
              <path class="cls-63" d="M57.16,105.46c-.51-5.73-1.12-12.4-1.11-18.85-.52,.27-.55,.35-.55,.35,0,0-.26,.23-.66,.61,.57,3.35,1.79,8.19,.2,10.06-1.59,1.87-3.17-2.57-3.94-4.67-.29,.76-.47,1.56-.5,2.37-.12,3.74,.83,9.01,2.27,13.43,1.97-1.4,4.31-3.03,4.29-3.29Z"/>
            </g>
          </g>
          <g>
            <path class="cls-107" d="M45.5,439.18s-1.08,2.41-1.79,2.5c-.71,.09,.72,.92,1.17,1.04,.45,.12-5.37,3.44-11.5,6.85-5.8,3.22-31.67,13.33-33.23,14.06-1.53,.72,8.83,2.64,22.22,2.17,13.95-.49,12.89-.88,20.82-.54,8.04,.34,27.39,1.09,29.11,.23,1.75-.87-1.55-9.77-1.83-10.17-.28-.41-1.45-11.52-1.87-11.97-.41-.45,.11-3.51,.11-3.51l-23.21-.66Z"/>
            <path class="cls-47" d="M23.52,463.44s18.43-.2,27.94-.61c9.77-.42,20.05-1.46,20.05-1.46,0,0-2.9-11.69-11.72-11.84-8.67-.15-22.7,9.98-36.27,13.91Z"/>
            <path class="cls-47" d="M38.34,446.79s8.57,1.15,17.72-.04c9.47-1.23,12.74-2.73,12.74-2.73l-.35-1.92s-15.73-1.08-22.96-2.92l-1.79,2.5,1.17,1.04-6.54,4.07Z"/>
          </g>
          <g>
            <path class="cls-121" d="M38.91,291.36s2.49-10.7,1.67-10.94c-.82-.24-8.24-.72-8.24-.72l6.58,11.67Z"/>
            <path class="cls-68" d="M38.91,291.36s2.49-10.7,1.67-10.94c-.82-.24-8.24-.72-8.24-.72l6.58,11.67Z"/>
            <path class="cls-81" d="M39.35,271.29l7.53,8.41s-1.13,6.25-.81,7.39c.32,1.15,.8,3.05,.8,3.05,0,0-7.18-3.59-7.01-5,.17-1.42,2.67-5.6,2.67-5.6l-9.18-3.03,6-5.21Z"/>
            <path class="cls-37" d="M39.35,271.29l7.53,8.41s-1.13,6.25-.81,7.39c.32,1.15,.8,3.05,.8,3.05,0,0-7.18-3.59-7.01-5,.17-1.42,2.67-5.6,2.67-5.6l-9.18-3.03,6-5.21Z"/>
            <path class="cls-93" d="M25.98,264.32s6.36,2.81,9.57,2.02c3.34-.82,7.27-2.98,7.27-2.98,0,0-6.58-18.64-10.55-16.85-3.79,1.71-6.29,17.82-6.29,17.82Z"/>
            <path class="cls-103" d="M25.98,264.32s6.36,2.81,9.57,2.02c3.34-.82,7.27-2.98,7.27-2.98,0,0-6.58-18.64-10.55-16.85-3.79,1.71-6.29,17.82-6.29,17.82Z"/>
            <path class="cls-22" d="M32.27,246.5c-3.79,1.71-6.29,17.82-6.29,17.82,0,0,.98,.43,2.36,.91,1.07-4.25,4.6-2.21,7.41-2.31,1.41,.29,2.82,.93,4.04,1.9,1.73-.76,3.03-1.47,3.03-1.47,0,0-6.58-18.64-10.55-16.85Z"/>
            <path class="cls-88" d="M47.71,164.64c-1.14,7.49-2.66,14.83-3.98,21.96-.57,1.39-1.14,2.75-1.67,4.05-2.22,5.34-3.96,9.61-3.85,10.15,.04,.16,.07,1.31,.12,3.19,.22,8.46,.55,31.38,.77,47.96h0c0,.87,.02,1.72,.03,2.54h0c.02,1.56,.04,3.04,.05,4.43,.01,.6,.02,1.19,.03,1.76,0,.61,.02,1.21,.02,1.79,0,.08,0,.16,0,.24,0,.6,.02,1.18,.02,1.73,0,.2,0,.4,.01,.6,0,.01,0,.02,0,.03,0,.77,.02,1.49,.03,2.14,.03,2.57,.05,4.07,.05,4.07l-9.33-.1s-.06-.27-.18-.78c-.17-.75-.46-2.03-.84-3.71-.06-.26-.12-.53-.19-.81-.01-.06-.03-.11-.04-.17-.02-.12-.05-.24-.08-.37-.01-.06-.03-.11-.04-.16-.03-.11-.05-.22-.08-.34-.01-.08-.03-.16-.05-.24-.08-.37-.17-.76-.25-1.16-.03-.11-.06-.23-.08-.35-.05-.21-.1-.45-.16-.67-.28-1.24-.59-2.57-.9-3.99h0c-.1-.45-.2-.91-.31-1.38-.15-.64-.3-1.31-.45-1.98-.15-.67-.3-1.34-.46-2.03-.1-.46-.21-.93-.32-1.4-.03-.13-.06-.26-.09-.4h0c-.09-.36-.17-.74-.25-1.11-.13-.57-.26-1.16-.4-1.74-3.86-17.02-8.59-37.77-9.39-40.86-1.36-5.31,5.44-70.32,5.44-70.32,0,0,16.85,16.57,25.24,25.68,.57,.62,1.1,1.2,1.57,1.73Z"/>
            <path class="cls-59" d="M39.1,251.96c.08,6.33,.16,11.78,.19,15.26-.47-.26-.95-.52-1.45-.78-3.09-1.6-6.4-.84-8.85,.27-.95-4.19-2.46-10.89-4.15-18.31,4.81,.37,11.03,.94,11.2,.98,.09,.03,1.33,1.09,3.06,2.58Z"/>
            <path class="cls-85" d="M28.37,265.27c-.91-.29-1.72-.6-2.39-.94,0,0-2.57-6.89,3.65-9.02,6.7-2.29,13.19,8.06,13.19,8.06l-2.24,1.14,1.37-1.04s-4.16-1.74-9.83-.89c-5.33,.8-5.32,1.9-5.32,1.9l1.57,.8Z"/>
            <path class="cls-125" d="M49.25,150.43c-.26,4.74-.82,9.5-1.53,14.2-1.14,7.49-2.67,14.84-3.99,21.97-1.16,6.24-2.17,12.35-2.65,18.34-.09,1.16-.17,2.29-.22,3.42-.62,13.15,1.38,24.76,2.35,37.54,.03,.4,.06,.79,.1,1.19,.04,.66-1.07,1.35-1.59,2-.04,.05-.08,.11-.11,.16-.04,.05-.06,.11-.09,.16-.02,.06-.04,.11-.05,.16-.02,.05-.02,.09-.02,.14,.03,.33,.06,.66,.09,.98,.05,.55,.09,1.08,.14,1.61,.03,.39,.07,.78,.1,1.15,.04,.39,.07,.78,.11,1.15,.04,.44,.08,.85,.12,1.25,.03,.4,.07,.78,.11,1.16,.05,.56,.11,1.09,.16,1.59,.04,.32,.07,.65,.1,.95,.26,2.4,.44,3.8,.44,3.8-1.24-.37-2.43-.66-3.58-.89-.49-.1-.97-.17-1.45-.24-.93-.14-1.82-.22-2.68-.26-2.62-.1-4.92,.28-6.92,1.14,0,0,0,0,0,0-.77,.32-1.51,.73-2.2,1.21,0,0,0-.06-.05-.17,0-.04-.03-.11-.06-.18,0-.03,0-.06-.03-.09,0-.06-.03-.12-.05-.19-.47-1.53-1.74-5.73-3.38-11.5,0-.05-.03-.1-.04-.15h0c-.04-.16-.15-.38-.31-.66-.08-.14-.16-.29-.25-.45-.02-.03-.04-.07-.07-.11-.09-.15-.19-.32-.29-.48-.11-.2-.24-.4-.35-.59-.09-.15-.19-.31-.28-.45-.16-.3-.32-.58-.45-.82-.1-.21-.17-.37-.21-.5-3.12-11.15-11.69-27.17-12.59-41.67-1.34-21.67,6.99-53.73,12.57-72.08,.61-2.01,1.19-3.86,1.72-5.51,.04-.14,.09-.27,.13-.41,.69-2.15,1.27-3.88,1.71-5.11,.98-2.81,6.35-11.36,8.25-13.15,4.05-3.8,8.03,1.71,10.27,4.93,1.62,2.31,2.94,5.02,3.98,8.02,1.48,4.26,2.41,9.08,2.87,14.15,.38,4.32,.42,8.8,.18,13.28Z"/>
            <path class="cls-107" d="M42.82,263.35c-1.24-.37-2.43-.66-3.58-.89-.49-.1-.97-.17-1.45-.24-.93-.14-1.82-.22-2.68-.26-2.62-.1-4.92,.28-6.92,1.14,0,0,0,0,0,0-.77,.32-1.51,.73-2.2,1.21,0,0,0-.06-.05-.17,0-.04-.03-.11-.06-.18,0-.03,0-.06-.03-.09,0-.06-.03-.12-.05-.19-.47-1.53-1.74-5.73-3.38-11.5,.47-.1,.94-.18,1.41-.25,5.92-.87,11.98-.74,17.86,.36,.03,.39,.07,.78,.1,1.15,.04,.39,.07,.78,.11,1.15,.04,.44,.08,.85,.12,1.25,.03,.4,.07,.78,.11,1.16,.05,.56,.11,1.09,.16,1.59,.04,.32,.07,.65,.1,.95,.26,2.4,.44,3.8,.44,3.8Z"/>
            <path class="cls-53" d="M49.25,150.43c-.26,4.74-.82,9.5-1.53,14.2-1.14,7.49-2.67,14.84-3.99,21.97-1.16,6.24-2.17,12.35-2.65,18.34-.09,1.16-.17,2.29-.22,3.42-.48,1.68-.85,3.4-.91,4.78-.41,10.29,2.38,22.71,3.26,32.76,.03,.4,.06,.79,.1,1.19,.04,.66-1.07,1.35-1.59,2-.04,.05-.08,.11-.11,.16-.04,.05-.06,.11-.09,.16-.02,.06-.04,.11-.05,.16s0,.1,0,.15c.03,.33,.05,.65,.08,.97,.08,.95,.16,1.88,.24,2.76,.04,.39,.07,.78,.11,1.15,.04,.44,.08,.85,.12,1.25,.03,.4,.07,.78,.11,1.16,.05,.56,.11,1.09,.16,1.59,.04,.32,.07,.65,.1,.95,.26,2.4,.44,3.8,.44,3.8-1.24-.37-2.43-.66-3.58-.89-.49-.1-.97-.17-1.45-.24-.93-.14-1.82-.22-2.68-.26,.69-1.01,1.32-3.29,.95-5.56-.45-2.67-2.25-5.24-6.75-5.46-1.11-.06-2.37,.03-3.81,.31-.97,.17-2.01,.43-3.13,.78-.04-.15-.15-.37-.31-.65-.08-.14-.16-.29-.25-.45-.02-.03-.04-.07-.07-.11-.09-.15-.19-.32-.29-.48-.11-.2-.24-.4-.35-.59-.09-.15-.19-.31-.28-.45-.16-.3-.32-.58-.45-.82-.1-.21-.17-.37-.21-.5-.04-.16,1.98,1.5,5.09,2.15,9.37,2.01,9.73-5.31,9.18-12.7-.75-9.86-1.93-20.6-12.32-24.33-.97-.35-4.71-.6-5.26-1.22-.69-.78-.27-2.11,.58-2.71,.85-.61,1.96-.7,3-.76,2.84-.18,5.68-.35,8.52-.52-3.32-4.54-8.08-8.01-13.43-9.77,3.16-1.28,6.78-1.33,9.97-.14,2.21,.82,4.55,2.23,6.75,1.39,1.79-.68,2.74-2.61,3.41-4.4,4.67-12.42,4.34-26.63-.9-38.82-1.83-4.27-4.2-8.22-6.86-12-2.4-3.41-5.04-6.68-7.75-9.92,.61-2.01,1.19-3.86,1.72-5.51,.04-.14,.09-.27,.13-.41,.69-2.15,1.27-3.88,1.71-5.11,.98-2.81,6.35-11.36,8.25-13.15,4.05-3.8,8.03,1.71,10.27,4.93,1.62,2.31,2.94,5.02,3.98,8.02,1.48,4.26,2.41,9.08,2.87,14.15,.38,4.32,.42,8.8,.18,13.28Z"/>
            <path class="cls-112" d="M39.35,271.29c-3.25-3.41-6.48-2.32-9.61-.82l-11.58,6.99,8.01,13.51,12.74,.39s-5.67-12.55-2.11-13.42c1.74-.75,4.89-1.99,4.89-1.99l-2.34-4.65Z"/>
            <path class="cls-24" d="M41.69,275.93v.02s-3.14,1.23-4.89,1.99c-3.56,.87,2.11,13.42,2.11,13.42l-12.74-.38-2.69-4.54c3.45,.38,11.06,1.18,11.26,.68,.26-.67-.93-9.92,.76-10.62,1.65-.69,5.81-.57,6.19-.56Z"/>
          </g>
          <path class="cls-96" d="M105.96,444.82c.33,0,9.56,7,16.67,7.45s14.45-.11,14.45-.11c0,0-5.67-13.33-10-14.33-4.33-1-21.11,7-21.11,7Z"/>
          <path class="cls-99" d="M107.75,452.29s4.65,.97,10-1.01,16.98-10.84,16.98-10.84c0,0-8.64-6.01-11.97-5.48-3.33,.53-15.79,11.23-15.01,17.33Z"/>
          <g>
            <path class="cls-107" d="M114.27,438.46s.77,2.7,.15,3.61c-.63,.94-12.65,9.03-17.35,11.16-5.08,2.3-17.48,7.28-18.44,10.6-1.01,3.52,25.09,4.14,33.54,2.49,7.76-1.51,23.7,.13,26.52-1.62,.89-.56-1.24-5.26-1.24-5.26,0,0-6.3-12.12-6.8-13.1-.49-.96-.9-3.77-.9-3.77l-15.49-4.11Z"/>
            <path class="cls-47" d="M106.37,464.49s11.98-1.64,17.92-3.04c5.54-1.3,12.73-.69,12.73-.69,0,0-2.59-7.14-8.84-9.58-6.28-2.46-8.2,6.59-21.81,13.31Z"/>
            <path class="cls-47" d="M111.42,444.52s1.74,2.27,9.81,3.16c7.66,.84,9-2.63,9-2.63l.04-1.02s-3.24-.19-7.44-1.22c-4.28-1.06-8.21-2.6-8.21-2.6,0,0,.14,1.41-.19,1.87-.33,.47-3.01,2.44-3.01,2.44Z"/>
          </g>
          <path class="cls-66" d="M32.54,109.89c-2.73,4.56-5.48,9.78-8.01,15.67-1.22,2.84-2.28,5.59-3.21,8.24,2.19,14.91,4.34,26.57,5.89,34.42,0,0,5.4,27.36-.94,29.81-.23,.09-.87,.43-1.44,1.04-1.54,1.64-.11,4.3,1.49,5.88s3.54,3.57,2.85,5.71c-.2,.61-.6,1.13-.82,1.73-.62,1.7,.3,3.52,.98,5.19,1.49,3.68,1.89,7.7,2.27,11.65,1.05,10.9,2.1,21.84,1.52,32.78,1.96,.49,3.9,1.08,5.8,1.78,.55-8.1,4.4-15.72,4.84-23.83,.21-3.75-.32-7.5-.85-11.22-1.19-8.39-3.48-17.28-3.34-25.7,.15-9.02,.05-18.04-.28-27.06-.6-16.39-2-32.74-4.18-48.99-.76-5.72-1.63-11.42-2.58-17.1Z"/>
          <path class="cls-103" d="M137.4,440.82c.74-.33-2.04-8.07-4.61-11.75l-4.8-69.22-17.58-33.37-20.38-125.53-54.2,2.04c-.82,2.45,1.22,138.57,1.22,138.57,0,0,7.34,10.6,8.15,17.93,.57,5.11,1.98,42.47,2.78,64.72-.11,.7-.23,1.13-.35,1.13-.63,0-2.08-1.04-3.02,.63-.94,1.67,0,4.79,0,4.79,0,0,3.34,2.35,3.34,3.08s-3.76,2.78-3.76,2.78l-2.29,5.55c.05-1.62,28.49,6.87,28.43,12.58,0,0,2.91-12.1,1.14-13.56-1.77-1.46,.16-3.19,.16-5.06,0-.31-.63-1.15-1.66-2.32,.14-7.59,.43-17.14,1.01-24.48,1.14-14.38,5.42-50.88,5.42-50.88,0,0-11.24-24.23-11.24-26.27,0-1.87-1.44-92.93-.41-92.51,2.04,.82,19.97,99.03,19.97,99.03l9.2,10.91c7.42,24.74,12.19,50.54,16.6,81.16-.34,.08-4.32,4.87-4.42,5.18-.1,.31,2.05,3.09,2.57,3.82s-2.72,5.05-2.72,5.05c0,0,5.21-2.23,10.89-1.33,5.68,.89,19.89,8.67,20.22,8.67,.2,0-1.33-8-1.33-8,0,0,1.27-3.16,1.67-3.33Z"/>
          <path class="cls-43" d="M132.8,429.07l-4.71-67.85-.06,.05-.03-1.42-17.58-33.37-20.38-125.53-54.2,2.04c-.22,.66-.23,11.2-.13,26.18,16.71,17.2,23.07,42.92,16.57,66.51-2.14,8.03-8.31,12.65-15.64,15.66,.24,17.6,.43,30.21,.43,30.21,0,0,7.34,10.6,8.15,17.93,.57,5.11,1.98,42.47,2.78,64.72-.11,.7-.23,1.13-.35,1.13-.37,0,8.47,6.61,7.81,6.64-.28,.02-5.6-.98-8.56-2.75-2.11-1.26-2.11-3.55-2.27-3.27-.94,1.67,0,4.79,0,4.79,0,0,3.34,2.35,3.34,3.08,0,.36,11.33,6.11,10.39,6.71-.94,.6-14.15-3.93-14.15-3.93l-2.29,5.55c.9-1.36,29.68,7.75,28.43,12.58,0,0,2.91-12.1,1.14-13.56-1.77-1.46,.16-3.19,.16-5.06,0-.31-.63-1.15-1.66-2.32,.14-7.59,.43-17.14,1.01-24.48,1.14-14.38,5.42-50.88,5.42-50.88,0,0-11.24-24.23-11.24-26.27,0-.43-.08-5.56-.18-13.19-.35-25.64-1.02-79.64-.23-79.33,.98,.39,5.68,23.55,10.28,47.36,5.51,8.7,15.41,14.24,24.43,20.68,3.7,1.85-.93,8.33-5.55,10.18-3.78,1.37-8.06,2.74-12.38,3.46,1.92,10.32,3.2,17.35,3.2,17.35l9.2,10.91c3.23,10.77,5.95,21.76,8.37,33.24,.26,1.22,.51,2.45,.76,3.69,.17,.84,.34,1.68,.51,2.52,.2,1.03,.41,2.07,.61,3.12,.21,1.07,.41,2.15,.61,3.24,2.08,11.15,3.95,22.84,5.75,35.35-.34,.08-4.32,4.87-4.42,5.18s2.05,3.09,2.56,3.82c.5,.71-2.54,4.8-2.71,5.04,.26-.1,5.34-2.19,10.88-1.33,5.68,.9,19.89,8.67,20.22,8.67,.2,0-1.33-8-1.33-8,0,0,1.27-3.17,1.67-3.34,.39-.17-17.97-4.69-18.99-7.31-.91-2.34,15.6-2.7,14.39-4.44Z"/>
          <path class="cls-113" d="M99,154.74l7.17-44.65c.22-.2-24.29-14.4-31.93-16.48-.31,.06-6.95,7.34-8.94,8.48-.52,.3-2.38,.22-3.29,1.76-2.54,4.31-4.8,12.86-4.8,12.86,0,0-.01-11.33-.09-12.63-.04-.63-.47-2.45-.47-2.45l-6.03-2.61s-16.87,9.54-17.38,10.05c-.51,.51-6.79,29.12-7.81,32.79-.72,2.58,2.59,18.28,4.96,31.52-.04,.74-.21,1.37-.62,1.7-1.44,1.12-3.21,2.14-2.75,3.06,.46,.92,4.99,5.14,4.99,5.14h0s-1.17,3.88-.56,5.1c.33,.66,.87,2.23,1.17,3.84-.24,4.7-1.55,6.38-1.02,9.61,.31,1.88,3.08,6.73,4.23,6.88,.56,.07,11.69,3.27,24.81,3.67,12.32,.37,26.19-1.47,29.48-3.57,.47-.3,4.42-2.67,4.45-5.14,.07-6.66-3.01-16.56-2.14-24.91,.87-8.35,6.57-23.99,6.57-23.99Z"/>
          <path class="cls-77" d="M57.12,104.08c-.04-.63-.47-2.45-.47-2.45l-6.03-2.61s-8.96,5.07-14.02,8.02c6.42,2.52,13.41,4.37,20.6,5.42-.01-3.36-.03-7.61-.08-8.37Z"/>
          <path class="cls-62" d="M101.19,107.06c-7.53-4.34-21.51-11.96-26.95-13.45-.31,.06-6.95,7.34-8.94,8.48-.52,.3-2.38,.22-3.29,1.76-1.39,2.36-2.69,5.98-3.59,8.78,14.56,1.93,29.85,.5,42.77-5.57Z"/>
          <path class="cls-54" d="M43.81,127.99c.11,.37,3.92,13.45,11.33,16.84,7.41,3.39,21.47,1.01,21.47,1.01,0,0-18.74,9.97-23.21,5.58s-9.59-23.42-9.59-23.42Z"/>
          <path class="cls-42" d="M41.01,134.53c-.16,.5,.97,16.96,2.27,22.41,1.3,5.45,9.89,19.68,9.89,19.68,0,0-5.76-11.61-8.19-22.3-2.43-10.7-3.97-19.78-3.97-19.78Z"/>
          <path class="cls-40" d="M31.54,201.33c.02,.16,.03,.32,.06,.49,.31,1.88,3.08,6.73,4.23,6.88,.56,.07,11.69,3.27,24.81,3.67,12.32,.37,26.19-1.47,29.48-3.57,.47-.3,4.42-2.67,4.45-5.14,.01-1.33-.1-2.78-.28-4.33-13.72,12.87-50.95,10.44-62.75,2.01Z"/>
          <path class="cls-107" d="M34.12,207.42s42.34,10.03,56.88-1.26l1.57,4.38s-23.24,18.55-57.27,5.72l-1.19-8.84Z"/>
          <path class="cls-90" d="M45.47,210.09s2.15,8.37,3.15,9.17c1,.8,14.48,1.08,15.74,1.13,1.26,.06,1.89-8.71,1.89-8.71,0,0-13.87,.14-20.78-1.59Z"/>
          <path class="cls-64" d="M71.27,221.19s5.48,4.11,11.9,8.17c6.42,4.06,10.96,5.92,10.96,5.92,0,0-3.78,.85-10.2-2.39-6.42-3.24-12.66-11.7-12.66-11.7Z"/>
          <path class="cls-29" d="M50.86,180.57c.05,2.78-11.28,2.79-18.85,2.69,0,0-4.53-4.22-4.99-5.14-.09-.19-.09-.39-.02-.58,8.86,5.48,23.81,.5,23.86,3.03Z"/>
          <path class="cls-12" d="M106.17,110.09s-.18-.16-.57-.41c-8.15,5.89-15.12,23.47-15.93,38.49-.63,11.8,4.16,22.24,4.3,22.67,1.98-7.75,5.02-16.1,5.02-16.1l7.17-44.65Z"/>
          <path class="cls-35" d="M92.43,178.74c.01-.1,.02-.2,.04-.3-7.83,9.86-34.55,8.79-34.96,10.01-.41,1.21,19.47,5.43,35.13-.78-.34-3.03-.51-6.07-.21-8.92Z"/>
          <path class="cls-56" d="M92.42,178.74c-.86,8.36,2.21,18.25,2.15,24.91-.03,2.46-3.98,4.84-4.45,5.14-3.29,2.1-17.17,3.94-29.48,3.57-13.12-.39-24.26-3.59-24.81-3.66-1.15-.16-3.92-5-4.23-6.88-.53-3.23,.78-4.91,1.02-9.61-.3-1.61-.84-3.19-1.18-3.84-.13-.25-.18-.62-.18-1.05,0-1.62,.74-4.06,.74-4.06,0,0-4.53-4.22-4.99-5.14-.46-.92,1.31-1.93,2.75-3.05,.42-.32,.58-.96,.62-1.7-1.8-10.02-4.13-21.45-4.84-27.53,0-.15-.02-.29-.04-.43,1.68,5.69,18.75,11.32,27.64,11.32,18.32,0,42.14-15.82,49.87-27.04,0,0,0,0,0,0l-4.03,25.07s-5.71,15.63-6.58,23.99Z"/>
          <g>
            <path class="cls-115" d="M98.73,190.44c-2,3.53,2.77,13.54,9.75,15.54,0,0,2.26-11.59,1.66-15.22s-11.41-.32-11.41-.32Z"/>
            <path class="cls-103" d="M98.73,190.44c-2,3.53,2.77,13.54,9.75,15.54,0,0,2.26-11.59,1.66-15.22s-11.41-.32-11.41-.32Z"/>
            <path class="cls-95" d="M101.47,215.34c-1.41,1.92-4.65,5.15-5.75,6.09-1.1,.94,3.37,3.03,3.37,3.03l6.76-9.35s-2.97-1.69-4.38,.23Z"/>
            <path class="cls-50" d="M101.47,215.34c-1.41,1.92-4.65,5.15-5.75,6.09-1.1,.94,3.37,3.03,3.37,3.03l6.76-9.35s-2.97-1.69-4.38,.23Z"/>
            <path class="cls-102" d="M97.79,214.74c-1.43,2.02-4.81,5.29-5.97,6.22-1.15,.93,3.87,3.92,3.87,3.92l6.89-9.82s-3.36-2.33-4.79-.31Z"/>
            <path class="cls-38" d="M97.79,214.74c-1.43,2.02-4.81,5.29-5.97,6.22-1.15,.93,3.87,3.92,3.87,3.92l6.89-9.82s-3.36-2.33-4.79-.31Z"/>
            <path class="cls-110" d="M93.55,214.22c-1.43,2.02-4.81,5.29-5.97,6.22-1.15,.93,3.87,3.92,3.87,3.92l6.89-9.82s-3.36-2.33-4.79-.31Z"/>
            <path class="cls-13" d="M93.55,214.22c-1.43,2.02-4.81,5.29-5.97,6.22-1.15,.93,3.87,3.92,3.87,3.92l6.89-9.82s-3.36-2.33-4.79-.31Z"/>
            <path class="cls-89" d="M115.92,179.9l-40.39,36.71,8.74,13.08,14.9-5.23s-7.51-3.97-5.77-8.79c1.75-4.82,10.13-7.59,10.71-8.78,.57-1.19,.24-3.72,.24-3.72l50.05-27.25-6.28-18.26-32.2,22.25Z"/>
            <path class="cls-7" d="M93.17,216.95c.02-.42,.08-.84,.24-1.28,1.75-4.82,10.13-7.59,10.71-8.78,.57-1.19,.24-3.72,.24-3.72,0,0-.19,2.79-1.71,3.86-3.57,2.49-10.31,5.2-9.46,9.92Z"/>
            <path class="cls-23" d="M84.28,229.69l14.9-5.23s-4.9-2.6-5.86-6.13c-4.98,2.98-13.48-.08-17.78-1.72l8.74,13.08Z"/>
            <path class="cls-17" d="M78.86,217.8c2.06,4.03,4.45,7.86,7.25,11.25l.42-.15c-2.62-3.12-4.58-6.89-6.48-10.72-.41-.12-.81-.25-1.19-.38Z"/>
            <path class="cls-65" d="M83.6,219.09c1.54,3.11,3.13,6.19,5.38,8.95l.71-.25c-2.03-2.65-3.51-5.57-4.96-8.5-.38-.06-.76-.13-1.13-.2Z"/>
            <path class="cls-16" d="M88.5,219.56c-.3,0-.59,.01-.9,0,.77,2.83,2.71,5.08,4.67,7.32l.28-.1c-1.86-2.13-3.33-4.38-4.05-7.23Z"/>
            <path class="cls-73" d="M148.12,157.65l-32.2,22.25-15.42,14.01c2.35,2.47,4.14,5.35,5.35,8.43l48.55-26.44-6.28-18.26Z"/>
            <path class="cls-85" d="M98.66,195.02c-.6-2.07-.54-3.56,.07-4.58,0,0,7.72-1.58,9.6,4.73,1.88,6.31,.14,10.81,.14,10.81-.89-.14-1.85-.64-2.84-1.28,0,0,2.08,.8,2.26,.68s.34-5.74-2.61-9.38c-2.95-3.64-5.26-4.54-5.97-4.12-.7,.41-.65,3.14-.65,3.14Z"/>
            <path class="cls-117" d="M168.85,167.42c-1.72,2.01-14.87,12.94-27.13,20.89-7.92,5.14-16.67,8.67-17.68,8.96-1.6,.46-3.05,.61-4.07,.75-.63,.08-1.09,.15-1.32,.29-7.8,4.5-10.17,7.67-10.17,7.67,.09-9.68-3.75-13.21-9.74-15.54l10.2-7.54,.1-.08s1.89-2.96,2.33-3.43c.25-.27,6.22-4.93,11.38-8.94,.54-.42-.6-1.71-.19-2.24,1.06-1.4,4.65-1.8,5.18-1.62,0,0,0,0,0,0-.73-.38-1.38-1.56,.09-2.07,.86-.3,.91-.18,1.87-.15-3.31-1.93-18.86-9.94-24.75-13.48-10.9-6.55-15.15-46-7.91-45.72,12.23,2.03,77.67,55.42,71.8,62.26Z"/>
            <path class="cls-107" d="M119.97,198.02c-.63,.08-1.09,.15-1.32,.29-7.8,4.5-10.17,7.67-10.17,7.67,.09-9.68-3.75-13.21-9.74-15.54l10.2-7.54c4.03,3.22,8.03,6.73,9.97,11.48,.48,1.18,.82,2.4,1.06,3.64Z"/>
            <path class="cls-71" d="M95.95,134.23c1.97,7.57,5.05,14.28,9.01,16.66,2.39,1.44,6.38,3.61,10.49,5.82h0s0,0,.01,0c4.68,2.51,9.52,5.06,12.36,6.6,.02,.01,.04,.02,.06,.03,.16,.09,.31,.17,.46,.25,.04,.02,.07,.04,.11,.06,.13,.07,.27,.15,.39,.21,.03,.02,.05,.03,.08,.04,.12,.07,.24,.13,.34,.19,0,0,0,0,0,0,.16,.09,.3,.17,.43,.24,3.21,1.3,6.11,3.23,9.26,3.25-.13-.79-12.85-7.76-22.97-16.14-11.68-9.68-16.43-13.03-20.03-17.24Z"/>
            <path class="cls-39" d="M166.2,160.3c-18.11,27.99-36.28,34.26-46.43,30.65-5.95-2.12-8.4-11.58-8.42-11.56-.44,.48-2.33,3.43-2.33,3.43,0,0,7.46,5.06,8.83,8.85,1.13,3.73-5.8,10.81-9.79,9.23,.28,1.48,.43,3.16,.41,5.08,0,0,2.37-3.17,10.17-7.66,.61-.35,2.8-.31,5.38-1.05,1.02-.29,9.76-3.81,17.68-8.95,12.25-7.95,25.41-18.88,27.13-20.89,1.01-1.17-.08-3.71-2.64-7.13Z"/>
            <path class="cls-3" d="M127.75,166.58s0,0-.01,.01c-.27-.09-1.37-.03-2.51,.25,1.03,.01,3.46,.89,5.7,2.64,3.83,3,8.06,7.83,8.81,5.99,1.2-2.91-7.61-8.01-12.47-10.63-.65,.58-.12,1.43,.48,1.74Z"/>
          </g>
          <path class="cls-46" d="M46.81,191.58c-1.78,1.33-11.7,1.07-14.19,.64-.24-1.3-.65-2.6-.97-3.39,.48,.27,3.09,1.78,6.45,2.14,4.43,.48,9.73-.14,8.71,.61Z"/>
          <path class="cls-10" d="M47.37,112.75c1.79,1.92,6.4,6.01,9.01,4.68,.22-.11,.39-.24,.49-.34-.01-1.95,.28-12.56,.25-13.01-.04-.63-.47-2.45-.47-2.45l-6.03-2.61-7.97,4.53c1.08,4.87,3.41,7.81,4.71,9.2Z"/>
          <path class="cls-2" d="M84.37,97.96c-.32-.54-2.18-1.16-5.77-2.72-1.73-.75-3.23-1.33-4.36-1.64-.31,.06-6.95,7.34-8.94,8.48-.33,.19-2.66-.07-3.69,1.81-2.35,4.27-4.13,12.58-4.13,12.58l.79,.38c.84,.24,2.38,.62,4.29,.64,12.84,.16,24.16-15.59,21.8-19.54Z"/>
          <path class="cls-4" d="M43.42,111.31c-.61-3.82-.6-6.32,.18-6.88,1.75-1.26,7.27-4.01,7.27-4.01l-.85-.27s-13.47,6.31-15.57,8.63c3.26-.5,6.29,.57,8.97,2.53Z"/>
          <path class="cls-107" d="M57.21,116.91c.23-5.35,.45-10.7,.68-16.05-2.96-.37-5.34-2.58-5.89-5.42-.6-3.08,1.08-6.25,4.07-7.54l-.03-2.44c-1.78,1.51-4.4,4.2-6.1,8.3,0,0-3.02,7.27-.42,15.47,1.36,4.3,3.42,6.02,3.96,6.45,.94,.74,1.84,1.18,2.49,1.45l1.25-.23Z"/>
          <g>
            <path class="cls-85" d="M83.88,97.32s-4.74,.15-5.49,3.41c0,0,17.32,8.61,18.37,9.02,1.06,.41,12.68-2.29,15.18-2.03,0,0-13.5-7.71-28.07-10.4Z"/>
            <path class="cls-85" d="M47.31,100.58c1.01-.13-1.7,3.11-1.7,3.11,0,0-16.43,8.88-17.44,8.36-1.01-.52,2.61-9.41,19.14-11.47Z"/>
            <path class="cls-79" d="M110.32,106.74s-8.81-.71-14.18,2.68l-5.23-2.34s6.02-3.45,16.15-1.83l3.26,1.48Z"/>
            <path class="cls-79" d="M104.09,103.87s-8.81-.71-14.18,2.68l-5.23-2.34s6.02-3.45,16.15-1.83l3.26,1.48Z"/>
            <path class="cls-79" d="M96.4,101.24s-7.77-.67-12.52,2.31l-4.61-2.08s5.33-3.02,14.26-1.55l2.87,1.32Z"/>
            <path class="cls-103" d="M111.95,107.72s-.53,1.94-.85,2.19c-.32,.25-13.45,2.45-14.16,2.47-.71,.01-18.69-11.37-18.69-11.37l.15-.28s17.39,8.43,18.69,8.73c1.29,.3,10.51-2.48,14.87-1.74Z"/>
            <path class="cls-103" d="M46.63,102.38l-18.46,9.67s1.03,.83,1.49,.89c.46,.07,15.76-8.83,16.2-9.05,.44-.22,.77-1.52,.77-1.52Z"/>
          </g>
          <path class="cls-107" d="M83.14,96.56c-1.21,3.04-5.54,12.78-16.07,17.77-3.82,1.81-7.42,2.5-10.19,2.75l2.94-15.66c1.4-.42,2.72-.91,3.95-1.46,6.64-2.96,10.77-7.57,10.64-12.03-.03-1.05-.31-2.44-1.31-4.06l.03-1.62v-.32s.36,.18,.36,.18l3.31,1.67c.69,.87,1.43,1.89,2.16,3.07,.7,1.1,1.39,2.33,2.03,3.71,1.04,2.2,1.71,4.25,2.15,6Z"/>
          <path class="cls-60" d="M78.96,86.85c0,.32-.03,.63-.06,.94-.05,.54-.12,1.09-.33,1.59-.26,.64-.74,1.16-1.21,1.66-2.07,2.25-4.17,4.51-6.69,6.24-2.05,1.42-4.44,2.45-6.9,2.68,6.64-2.96,10.77-7.57,10.64-12.03-.03-1.05-.31-2.44-1.31-4.06l.03-1.62c.03-.09,.05-.17,.08-.25,.11,.06,.2,.09,.28,.11l3.31,1.67c.69,.87,1.43,1.89,2.16,3.07Z"/>
          <g>
            <path class="cls-45" d="M57.84,116.61s-1.44,2.59-2.62,3.45c-1.17,.86-10.02,1.15-11.63,2.88-1.61,1.73-5.86,29.35-5.29,38.12,.57,8.78,4.77,15.39,5.14,22.87s.49,16.11-.66,17.41c-1.15,1.29,2.18,5.22,2.18,5.22-.73,.57-2.17,1.77-2.17,2.77-.32-.06-1.17-.36-1.13-.8,.03-.27,.74-.81,.93-1.01,.18-.19,1.32-1.16,1.1-1.49-.29-.43-2.41-2.23-2.7-3.6-.29-1.37,1.38-1.37,1.61-6.83,.23-5.47-.69-13.02-3.02-22.73-2.33-9.71-4.13-12.23-2.71-25.27,1.42-13.04,4.64-26.47,5.48-27.43s5.94-.44,10.04-.96c4.1-.52,5.44-2.59,5.44-2.59Z"/>
            <g>
              <path class="cls-107" d="M50.02,128.93c-3.23,.48-2.88,4.16-.27,5.3,2.61,1.14,5.54-6.08,.27-5.3Z"/>
              <path class="cls-107" d="M65.43,130.87c-3.09,2.92,1.81,6.86,4.25,3.27,2.45-3.59-2.15-5.26-4.25-3.27Z"/>
              <path class="cls-41" d="M47.73,131.72s.41,1.71,2.47,1.77c2.06,.06,2.75-2.53,2.75-2.53,0,0,.65,2.92-2.11,3.87-2.75,.95-3.11-3.11-3.11-3.11Z"/>
              <path class="cls-9" d="M64.45,132.64s0,1.69,2.65,1.93c2.65,.25,3.22-1.86,3.22-1.86,0,0-.33,3.14-3.1,3.41-2.77,.27-3.3-2.71-2.77-3.48Z"/>
            </g>
            <g>
              <path class="cls-107" d="M48.49,152c-3.23,.48-2.88,4.16-.27,5.3,2.61,1.14,5.54-6.08,.27-5.3Z"/>
              <path class="cls-107" d="M63.89,153.94c-3.09,2.92,1.81,6.86,4.25,3.27,2.45-3.59-2.15-5.26-4.25-3.27Z"/>
              <path class="cls-8" d="M46.19,154.79s.41,1.71,2.47,1.77,2.75-2.53,2.75-2.53c0,0,.65,2.92-2.11,3.87-2.75,.95-3.11-3.11-3.11-3.11Z"/>
              <path class="cls-55" d="M62.92,155.71s0,1.69,2.65,1.93c2.65,.25,3.22-1.86,3.22-1.86,0,0-.33,3.14-3.1,3.41-2.77,.27-3.3-2.71-2.77-3.48Z"/>
            </g>
            <g>
              <path class="cls-107" d="M47.02,173.97c-3.23,.48-2.88,4.16-.27,5.3,2.61,1.14,5.54-6.08,.27-5.3Z"/>
              <path class="cls-107" d="M62.42,175.91c-3.09,2.92,1.81,6.86,4.25,3.27,2.45-3.59-2.15-5.26-4.25-3.27Z"/>
              <path class="cls-5" d="M44.72,176.76s.41,1.71,2.47,1.77c2.06,.06,2.75-2.53,2.75-2.53,0,0,.65,2.92-2.11,3.87-2.75,.95-3.11-3.11-3.11-3.11Z"/>
              <path class="cls-69" d="M61.45,177.68s0,1.69,2.65,1.93c2.65,.25,3.22-1.86,3.22-1.86,0,0-.33,3.14-3.1,3.41-2.77,.27-3.3-2.71-2.77-3.48Z"/>
            </g>
            <g>
              <path class="cls-107" d="M47.02,197.38c-3.23,.48-2.88,4.16-.27,5.3,2.61,1.14,5.54-6.08,.27-5.3Z"/>
              <path class="cls-107" d="M62.42,199.32c-3.09,2.92,1.81,6.86,4.25,3.27,2.45-3.59-2.15-5.26-4.25-3.27Z"/>
              <path class="cls-48" d="M44.72,200.17s.41,1.71,2.47,1.77c2.06,.06,2.75-2.53,2.75-2.53,0,0,.65,2.92-2.11,3.87-2.75,.95-3.11-3.11-3.11-3.11Z"/>
              <path class="cls-14" d="M61.45,201.09s0,1.69,2.65,1.93c2.65,.25,3.22-1.86,3.22-1.86,0,0-.33,3.14-3.1,3.41-2.77,.27-3.3-2.71-2.77-3.48Z"/>
            </g>
            <path class="cls-19" d="M38.98,165.88s3.85,12.59,4.54,19.54c.69,6.95,.58,14.15-.44,15.35-1.02,1.2,1.2,5.74,1.2,5.74,0,0-3.29-2.69-3.83-4.05-.54-1.36,1.84-3.18,1.92-12.29,.08-9.11-3.39-24.29-3.39-24.29Z"/>
          </g>


          <animateTransform
            attributeName="transform"
            type="scale"
            values="1 1; 1 1.01; 1 1"
            dur="4s"
            repeatCount="indefinite"
            additive="sum"
            id="animacionCuerpo"
            keyTimes="0; 0.5; 1"
            keySplines="0.42 0 0.58 1; 0.42 0 0.58 1"
            calcMode="spline"
          />



        </g>
      </g>
    </g>
  </g>
</svg>