<?xml version="1.0" encoding="UTF-8"?>
<svg id="Capa_2" data-name="Capa 2" xmlns="http://www.w3.org/2000/svg" viewBox="0 0 330 642.74">
  <defs>
    <style>
      .cls-1 {
        fill: #fff;
      }

      .cls-2 {
        fill: #343038;
      }

      .cls-3 {
        fill: #534d59;
      }

      .cls-4 {
        opacity: .2;
      }

      .cls-4, .cls-5, .cls-6, .cls-7, .cls-8 {
        fill: #1d1d1b;
      }

      .cls-9 {
        opacity: .07;
      }

      .cls-10 {
        fill: #282826;
      }

      .cls-5 {
        opacity: .1;
      }

      .cls-11 {
        fill: #ffd2a1;
      }

      .cls-12 {
        fill: #171e3f;
      }

      .cls-6 {
        opacity: .15;
      }

      .cls-13 {
        fill: #3c3c3b;
      }

      .cls-14 {
        fill: #cea55f;
      }

      .cls-15 {
        fill: #efefef;
      }

      .cls-16 {
        fill: #ffb380;
      }

      .cls-7 {
        opacity: .4;
      }

      .cls-17 {
        fill: #1a1a1a;
      }

      .cls-18 {
        fill: #16191e;
      }

      .cls-19 {
        fill: #edc396;
      }
    </style>
  </defs>
  <g id="Marinero">
    <g id="Cuerpo">
	
      <polygon class="cls-8" points="150.3 351.83 62.42 340.38 21.79 490.41 116.38 493.96 144.59 490.41 173.85 482.63 150.3 351.83"/>
      <g>
        <g>
          <g>
            <path class="cls-18" d="M135.16,616.73c-1.78,.52-4.33,1.52-3.73,20.37h84.96c-.53-25.59-60.97-26.32-81.23-20.37Z"/>
            <polygon class="cls-13" points="216.5 642.74 131.54 642.74 131.38 634.93 216.34 634.93 216.5 642.74"/>
          </g>
          <polygon class="cls-2" points="180.51 614.73 131.38 634.92 123.96 518.44 115.49 385.72 112.19 333.9 110.31 387.27 105.63 519.97 101.49 637.09 49.07 637.09 49.07 634.87 50.09 519.82 51.11 405.07 51.75 332.06 51.86 322.9 166.12 322.9 168.44 369.79 175.3 509.02 180.51 614.73"/>
          <g>
            <path class="cls-18" d="M74.84,616.73c-14.47,0-26.16,1.52-25.77,20.37h52.39c-.41-19.71-12.15-20.37-26.62-20.37Z"/>
            <polygon class="cls-13" points="101.58 642.74 49.19 642.74 49.03 634.93 101.42 634.93 101.58 642.74"/>
          </g>
          <path class="cls-9" d="M68.47,311.46c1.74,.98,3.63,1.92,5.63,2.76-1.89-.94-3.74-1.85-5.63-2.76Z"/>
        </g>
        <path class="cls-7" d="M110.31,387.27l-4.69,132.7c-18.13,1.09-36.66,.98-55.54-.15l1.02-114.76,59.2-17.8Z"/>
        <path class="cls-7" d="M175.3,509.02c-16.65,4.45-33.8,7.53-51.34,9.41l-8.46-132.72,52.95-15.92,6.86,139.23Z"/>
      </g>
      <path class="cls-17" d="M163.67,254.46l14.23,229.77-16.29,6.17c-13.48-45.71-20.96-59.48-33.09-101.47l-3.13,108.73c-29.57,6.52-70.5,.16-103.61-7.25l12.81-86.1v-.09s21.67-145.69,21.67-145.69c-.77-1.88-1.5-3.77-2.23-5.65-16.12-41.87-23.24-85.96-18.7-132.94l53.56-15.1,37.11,1.08,28.27,3.47c5.66,1.49,10.29,1.49,19.36,11.77,4.29,4.86-13.44,15.53-12.68,21.42,6.45,50.21,2.66,112.83,2.71,111.88Z"/>
      <g>
        <path class="cls-16" d="M88.59,101.08c6.27,14.05,36.11,12.06,39.17,.08l-1.03-11.26-1.97-21.88-34.44-4.62-1.19,27.14-.54,10.54Z"/>
        <path class="cls-1" d="M127.76,101.16l-10.57,56.87-28.6-56.95c13.37,7.44,26.41,7.26,39.17,.08Z"/>
        <g>
          <path class="cls-12" d="M107.23,114.49c9.22,0,18.35-2.54,26.41-7.33l-2.48-4.06c-7.34,4.37-15.65,6.68-24.03,6.68h0c-6.98,0-14.71-2.61-24.34-8.21l-2.31,4.06c10.39,6.04,18.89,8.86,26.75,8.86h0Z"/>
          <path class="cls-12" d="M130.41,111.45c-7.12,4.1-15.08,6.29-23.12,6.29h0c-6.97,0-14.7-2.65-24.33-8.34l-2.34,4.04c10.4,6.14,18.91,9,26.77,9.01h0c7.95,0,15.83-1.93,23.02-5.58v-5.42Z"/>
          <path class="cls-12" d="M107.56,130.4c9.23,0,18.37-2.62,26.43-7.58l-2.54-4.03c-7.33,4.51-15.63,6.89-24,6.89h0c-6.97,0-14.69-2.69-24.32-8.47l-2.37,4.03c10.41,6.24,18.92,9.15,26.79,9.15h0Z"/>
          <path class="cls-12" d="M107.71,137.96c9.23,0,18.37-2.62,26.44-7.58l-2.54-4.03c-7.33,4.51-15.63,6.89-24,6.89h0c-6.97,0-14.7-2.69-24.32-8.47l-2.37,4.02c10.4,6.24,18.91,9.15,26.79,9.16h0Z"/>
        </g>
        <path class="cls-3" d="M126.03,82.1c12.22,5.09,19.59,13.76,19.2,29.6l-14.63,1.33,12.66,7.85-40.08,60.92,2.17,118.37-6.76-119.74,18.31-39.21,10.85-40.06-1.73-19.06Z"/>
        <path class="cls-3" d="M89.64,79.89c-12.42,2.2-26.05,15.44-25,31.28l16.9,1.41-14.01,7.22,43.12,43.98,8.66-13.47-30.73-49.23,1.05-21.18Z"/>
        <path class="cls-6" d="M142.75,96.21c-2.17,6.58-5.63,12.5-12.15,16.81-13.61,2.88-21.6-3.35-25.25-14.04-3.23-9.49-.87-39.84-.87-39.84,7.37,24.9,18.95,40.01,38.26,37.07Z"/>
        <path class="cls-16" d="M82.23,46.33c.27,7.28,.26,10.18,3,16.87,2.01,4.9,12.26,2.85,17.49,3.53-.61,18.71,7.28,28.96,28.5,31.29,7.47,.82,9.84-7.94,9.98-13.52,0,0-.34-9.52-.32-11.73l3.93,.68c4.19,.78,3.9-4.36,1.97-9.64-1.25-3.44-3.19-6.93-5.05-8.95,0,0,.86-1.77,1.55-3.91-.29-7.09-1.92-12.94-4.5-17.6-5.33-9.85-14.74-14.54-24.48-15.08-12.27-.16-31.32-4.99-32.07,28.06Z"/>
        <g>
          <path class="cls-8" d="M75.91,48.92c.18,1.67,.47,3.46,.87,5.28,1.74,8.76,5.42,18.66,10.39,24.22l7.99-1.51c3.03-.57,5.05-3.35,4.68-6.43-.12-1.11-.26-2.17-.35-3.2-2.71-2.17-5.45-6.81-5.79-10.77-.03-.28-.04-.57-.04-.82-.29-6.95,3.95-7.42,7.02-6.24,2.52,.97,3.38,3.58,3.76,6.27h.02c1.85-1.77,4.01-2.31,6.4-1.84-.32-3.02-.62-5.87-.89-8.53-.45-4.74-.75-8.86-.59-12.3,.01-.61,.07-1.2,.13-1.79v-.12c.86-8.46,5.22-11.97,18.36-8.98,3.99-4.22-7.82-10.72-22.45-8.15-14.15,2.52-24.64,8.79-28.44,21.18-.11,.31-.2,.61-.29,.94-.02,.07-.04,.14-.07,.24-.39,1.48-.71,3.09-.92,4.76-.26,2.07-.18,4.76,.19,7.8Z"/>
          <path class="cls-11" d="M93.69,56.5c-.66-7.73,3.8-8.3,6.98-7.07,2.53,.98,3.39,3.59,3.77,6.26,0,.02,0,.05,.01,.07,.04,3.71,.05,7.35,.11,10.85-.4,1.25-1.15,1.99-2.51,1.88-.8-.07-1.68-.52-2.57-1.23-2.71-2.17-5.45-6.8-5.79-10.76Z"/>
          <path class="cls-8" d="M104.45,55.7h0c1.87-1.75,4.02-2.3,6.41-1.82h0c4.05,22.55,5.22,31.9,29.93,34.39,7.66,1.53,7.86,17.39-7.67,15.76-5.41-.57-11.93-2.4-17.35-4.78-9.67-4.25-13.94-15.39-11.21-32.64,.55-3.45-.07-7.14-.11-10.85,0-.02,0-.05,0-.07Z"/>
        </g>
        <path class="cls-5" d="M72.13,36.18c1.07,.19,1.73,.26,1.73,.26l1.82,12.49h.24c.18,1.67,.47,3.46,.87,5.28l16.88,1.48,51.42,4.5c-1.06-2.1-2.3-4.03-3.49-5.32,0,0,.86-1.77,1.55-3.91-.19-4.45-.91-8.43-2.04-11.92-.68-2.05-1.5-3.96-2.45-5.68l-6.32-3.39s-4.41,.14-11.13,.52c-3.39,.19-7.38,.45-11.66,.78l-.92,.07c-10.13,.8-21.83,2.03-31.61,3.86-1.69,.31-3.31,.64-4.86,.99Z"/>
        <path class="cls-15" d="M73.86,36.44c.94-.02,1.86-.05,2.78-.07,11.37-.33,22.29-1.39,32.75-3.32,4.02-.71,7.94-1.58,11.79-2.57,6.43-1.63,12.62-3.63,18.63-6.01,5.25-12.47,13.99-16.98,8.31-22.83-5.38-5.55-32.95,3.98-59.54,14.62-22.46,8.99-30.68,19.68-14.74,20.18Z"/>
        <path class="cls-2" d="M73.86,36.44l1.82,12.49h.24c10.63-.38,22.03-1.63,34.07-3.58,9.97-1.63,20.38-3.77,31.11-6.31,.05,0,.09-.02,.14-.02l-1.41-14.54c-10.26,2.54-20.38,4.81-30.3,6.67-.3,.09-.61,.14-.92,.19-10.88,2.07-21.51,3.7-31.9,4.81-.97,.12-1.91,.21-2.85,.31Z"/>
        <path class="cls-8" d="M159.23,43.02l-19.04-8.93c-7.32,.72-14.5,3.28-23.94,8.3,17.15,6.64,37.81,12.21,42.98,.63Z"/>
        <path class="cls-14" d="M117.57,42.67c-.45,0-.88-.24-1.11-.66-.32-.61-.09-1.37,.52-1.7,9.58-5.11,15.82-7.42,23-8.53,.67-.12,1.33,.36,1.43,1.05,.11,.69-.36,1.33-1.05,1.43-6.88,1.06-12.9,3.3-22.21,8.26-.19,.1-.39,.15-.59,.15Z"/>
        <path class="cls-14" d="M114.22,41.42c.04,1.74,1.47,3.14,3.21,3.14s3.12-1.41,3.08-3.14c-.04-1.74-1.47-3.14-3.21-3.14s-3.12,1.41-3.08,3.14Z"/>
      </g>
      <g>
        <path class="cls-14" d="M117.19,189.08c.05,2.47-1.21,4.48-2.82,4.48s-2.96-2-3.01-4.48,1.21-4.48,2.82-4.48,2.96,2,3.01,4.48Z"/>
        <path class="cls-14" d="M147.78,186.27c.05,2.47-1.21,4.48-2.82,4.48s-2.96-2-3.01-4.48c-.05-2.47,1.21-4.48,2.82-4.48s2.96,2,3.01,4.48Z"/>
        <path class="cls-14" d="M118.03,229.19c.05,2.47-1.21,4.48-2.82,4.48s-2.96-2-3.01-4.48c-.05-2.47,1.21-4.48,2.82-4.48s2.96,2,3.01,4.48Z"/>
        <path class="cls-14" d="M148.62,226.38c.05,2.47-1.21,4.48-2.82,4.48s-2.96-2-3.01-4.48,1.21-4.48,2.82-4.48,2.96,2,3.01,4.48Z"/>
        <path class="cls-14" d="M118.86,269.31c.05,2.47-1.21,4.48-2.82,4.48s-2.96-2-3.01-4.48c-.05-2.47,1.21-4.48,2.82-4.48s2.96,2,3.01,4.48Z"/>
        <path class="cls-14" d="M149.46,266.5c.05,2.47-1.21,4.48-2.82,4.48s-2.96-2-3.01-4.48c-.05-2.47,1.21-4.48,2.82-4.48s2.96,2,3.01,4.48Z"/>
        <path class="cls-14" d="M119.7,309.42c.05,2.47-1.21,4.48-2.82,4.48s-2.96-2-3.01-4.48c-.05-2.47,1.21-4.48,2.82-4.48s2.96,2,3.01,4.48Z"/>
        <path class="cls-14" d="M150.29,306.61c.05,2.47-1.21,4.48-2.82,4.48s-2.96-2-3.01-4.48c-.05-2.47,1.21-4.48,2.82-4.48s2.96,2,3.01,4.48Z"/>
      </g>
      <path class="cls-4" d="M64.56,158.02l-3.83,57.91,31.7,12.62s-12.27,27.9-12.92,26.83c-.65-1.07-54.71-24.36-54.71-24.36l39.77-72.99Z"/>
      <path class="cls-4" d="M103.1,260.06l.23,10.91-11.19,7.34c-24.47,30.69-42.57,74.97-57.54,126v-.09s21.67-145.69,21.67-145.69c-.77-1.88-1.5-3.77-2.23-5.65l49.06,7.18Z"/>
      <path class="cls-16" d="M103.15,262.97c-1.7-.24-5.69-.73-7.4-.95l-21.1-6.62,6.4-9.45,10.25-15.1,10.27,1.91,.78,14.88,.8,15.32Z"/>
      <path class="cls-4" d="M103.15,262.97c-1.7-.24-5.69-.73-7.4-.95l-21.1-6.62,6.4-9.45,13.35,4.96,7.95-3.26,.8,15.32Z"/>
      <path class="cls-2" d="M82.12,261.9c.02,2.94,.35,5.91,.93,9.08-31.75-.11-60.7-9.52-82.46-20.5-1.42-17.65-.22-36.17,2.88-53.75l.02-.05c5.71-32.37,17.84-61.65,31.83-76.73l28.76,38.06-20.55,63.09,48.9,7.46c-7.17,14.06-10.43,23.38-10.3,33.34Z"/>
      <polygon class="cls-4" points="128.53 388.94 111.36 338 125.4 497.66 128.53 388.94"/>
      <path class="cls-4" d="M83.05,270.98c-31.75-.11-60.7-9.52-82.46-20.5-1.42-17.65-.22-36.17,2.88-53.75l.02-.05,3.36,48.31c21.89,13.93,45.6,15.19,75.27,16.91l.93,9.08Z"/>
    </g>
    <g id="Brazo">
      <path class="cls-3" d="M245.3,93.72c-7.26-5.49-20.48-11.17-34.31-16.87l-3.08,7.85,32.06,13.17,5.32-4.15Z"/>
      <path class="cls-19" d="M236.47,114.22l-27.58-19.13-.64-6.85-1.03-10.86-8.78-19.31,1.96-8.84,.37-1.64,21.43-2.56,4.21,13.62c.94,3,1.26,6.15,.98,9.29l-.6,6.57,2.82,11.54,3.88,15.89,2.99,12.28Z"/>
      <g>
        <rect class="cls-14" x="285.32" y="40.26" width="6.91" height="21.27" transform="translate(-1.83 11.8) rotate(-2.33)"/>
        <rect class="cls-8" x="237.32" y="43.18" width="48.02" height="17.67" transform="translate(-1.9 10.68) rotate(-2.33)"/>
        <rect class="cls-10" x="189.34" y="46.39" width="48.02" height="15.16" transform="translate(-2.02 8.73) rotate(-2.33)"/>
        <rect class="cls-8" x="141.37" y="50.37" width="48.02" height="11.1" transform="translate(-2.14 6.78) rotate(-2.33)"/>
      </g>
      <path class="cls-16" d="M233.48,101.94c-6.78-1.98-23.16-14.55-25.24-13.69-.02,0-.04,.02-.05,.02l-.97-10.88-5.09-3.91c-1.23-.94-2.24-2.11-3-3.46-.3-.51-.61-1.07-.94-1.63-1.39-2.41-2.14-5.14-2.17-7.93l-.03-3.06,1.83-8.06c.26-1.01,1.5-1.07,2.59-.1,.81,.72,1.53,2.01,1.68,3.89l1.01,6.92,4.93,.49c2.94,.65,5.33,2.78,6.32,5.62l.09,.25c.26,.76,1.29,9.69,1.29,9.69,0,0,11.14,7.49,13.88,9.96l3.88,15.89Z"/>
      <path class="cls-16" d="M197.55,46.97v.06c-.05,1.97,1.27,3.71,3.18,4.19l3.81,.95,12.85-.61c2.26-.11,2.64-2.67,3.05-4.89l1.82-.77c.19-1.03-.56-2.01-1.61-2.09l-12.24-.93-8.03,.97c-1.59,.19-2.79,1.52-2.83,3.11Z"/>
      <path class="cls-2" d="M243.95,174.49c-.55,5.48-5,9.75-10.49,10.07-23.28,1.41-38.95-7.04-67.7-12.28-1.42-.26-2.89-.52-4.38-.76l-5.51-61.69,47.95,24.38s2.85-42.83,2.86-54.38c10.19,7.41,32.24,13.94,38.63,13.88,.76,5.94,1.19,13.29,1.32,21.35v.02c.33,18.98-.91,41.88-2.67,59.41Z"/>
      <path class="cls-4" d="M243.95,174.49c-.55,5.48-5,9.75-10.49,10.07-23.28,1.41-38.95-7.04-67.7-12.28l-2.2-23.8c16.45,18.17,48.38,27.91,70.57,26.95,6.27-12.97,10.06-32.34,12.49-60.35,.33,18.98-.91,41.88-2.67,59.41Z"/>
      <path class="cls-4" d="M205.98,98.08c1.4,20.41,4.14,38.47,9.38,52.14-3.17-6.94-6.79-12.83-11.54-16.01l2.16-36.14Z"/>


<animateTransform
    attributeName="transform"
    type="rotate"
    values="0 158 140; 35 158 140; 35 158 140; 0 158 140; 0 158 140"
    dur="6s"
    repeatCount="indefinite"
    additive="sum"
    id="animacionBrazo"
    keyTimes="0; 0.25; 0.5; 0.75; 1"
    keySplines="0.42 0 0.58 1; 0.42 0 0.58 1; 0.42 0 0.58 1; 0.42 0 0.58 1"
    calcMode="spline"
  />

    </g>
  </g>
</svg>